# WaveFront *.obj file (generated by Autodesk ATF)

mtllib body1_visual.mtl

g Body1

v -9.792299 6.808287 -2.800000
v -9.821306 6.825034 -2.675000
v -9.900553 6.870787 -2.583494
v -10.008806 6.933287 -2.550000
v -10.117059 6.995787 -2.583494
v -10.196306 7.041540 -2.675000
v -10.225312 7.058287 -2.800000
v -10.196306 7.041540 -2.925000
v -10.117059 6.995787 -3.016506
v -10.008806 6.933287 -3.050000
v -9.900553 6.870787 -3.016506
v -9.821306 6.825034 -2.925000
v -11.292299 4.210211 -2.800000
v -11.321306 4.226958 -2.925000
v -11.400553 4.272711 -3.016506
v -11.508806 4.335211 -3.050000
v -11.617059 4.397711 -3.016506
v -11.696306 4.443464 -2.925000
v -11.725312 4.460211 -2.800000
v -11.696306 4.443464 -2.675000
v -11.617059 4.397711 -2.583494
v -11.508806 4.335211 -2.550000
v -11.400553 4.272711 -2.583494
v -11.321306 4.226958 -2.675000
v -1.000000 -11.884524 -2.800000
v -1.000000 -11.918017 -2.675000
v -1.000000 -12.009524 -2.583494
v -1.000000 -12.134524 -2.550000
v -1.000000 -12.259524 -2.583494
v -1.000000 -12.351030 -2.675000
v -1.000000 -12.384524 -2.800000
v -1.000000 -12.351030 -2.925000
v -1.000000 -12.259524 -3.016506
v -1.000000 -12.134524 -3.050000
v -1.000000 -12.009524 -3.016506
v -1.000000 -11.918017 -2.925000
v 2.000000 -11.884524 -2.800000
v 2.000000 -11.918017 -2.925000
v 2.000000 -12.009524 -3.016506
v 2.000000 -12.134524 -3.050000
v 2.000000 -12.259524 -3.016506
v 2.000000 -12.351030 -2.925000
v 2.000000 -12.384524 -2.800000
v 2.000000 -12.351030 -2.675000
v 2.000000 -12.259524 -2.583494
v 2.000000 -12.134524 -2.550000
v 2.000000 -12.009524 -2.583494
v 2.000000 -11.918017 -2.675000
v 10.792299 5.076236 -2.800000
v 10.821306 5.092983 -2.675000
v 10.900553 5.138736 -2.583494
v 11.008806 5.201236 -2.550000
v 11.117059 5.263736 -2.583494
v 11.196306 5.309490 -2.675000
v 11.225312 5.326236 -2.800000
v 11.196306 5.309490 -2.925000
v 11.117059 5.263736 -3.016506
v 11.008806 5.201236 -3.050000
v 10.900553 5.138736 -3.016506
v 10.821306 5.092983 -2.925000
v 9.292299 7.674313 -2.800000
v 9.321306 7.691060 -2.925000
v 9.400553 7.736813 -3.016506
v 9.508806 7.799313 -3.050000
v 9.617059 7.861813 -3.016506
v 9.696306 7.907566 -2.925000
v 9.725312 7.924313 -2.800000
v 9.696306 7.907566 -2.675000
v 9.617059 7.861813 -2.583494
v 9.508806 7.799313 -2.550000
v 9.400553 7.736813 -2.583494
v 9.321306 7.691060 -2.675000
v 6.376441 13.577224 0.000000
v 8.648677 14.889100 0.000000
v 8.648677 14.889100 -5.600000
v 3.798935 12.089100 -5.600000
v 3.798935 12.089100 0.000000
v 7.083935 6.399313 0.000000
v 7.083935 6.399313 -5.600000
v 11.874393 9.165085 0.000000
v 11.933677 9.199313 -5.600000
v 11.933677 9.199313 0.000000
v 7.634031 12.912071 0.000000
v 8.822950 12.130769 0.000000
v 9.932504 11.240346 0.000000
v 10.952710 10.248811 0.000000
v -9.083935 2.935211 0.000000
v -12.368935 -2.754576 0.000000
v -12.368935 -2.754576 -5.600000
v -9.083935 2.935211 -5.600000
v -13.874393 5.700984 0.000000
v -13.933677 5.735211 -5.600000
v -13.933677 5.735211 0.000000
v -17.218677 0.045424 0.000000
v -17.218677 0.045424 -5.600000
v -14.946441 -1.266452 0.000000
v -14.999197 0.155230 0.000000
v -14.917029 1.575515 0.000000
v -14.700677 2.981628 0.000000
v -14.352086 4.360920 0.000000
v 2.000000 -14.866069 0.000000
v 2.000000 -9.334524 0.000000
v 2.000000 -9.334524 -5.600000
v 2.000000 -14.934524 -5.600000
v 2.000000 -14.934524 0.000000
v 8.570000 -14.934524 0.000000
v 8.570000 -14.934524 -5.600000
v 8.570000 -12.310772 0.000000
v 8.570000 -9.334524 -5.600000
v 8.570000 -9.334524 0.000000
v 7.365166 -13.067300 0.000000
v 6.094079 -13.706283 0.000000
v 4.768173 -14.221973 0.000000
v 3.399376 -14.609731 0.000000
v -15.000000 -0.000000 2.000000
v -14.929975 1.447709 2.000000
v -14.720552 2.881901 2.000000
v -14.373687 4.289185 2.000000
v -13.892620 5.656423 2.000000
v -13.281840 6.970848 2.000000
v -12.547052 8.220188 2.000000
v -11.695115 9.392778 2.000000
v -10.733984 10.477670 2.000000
v -9.672633 11.464736 2.000000
v -8.520971 12.344758 2.000000
v -7.289751 13.109520 2.000000
v -5.990469 13.751883 2.000000
v -4.635255 14.265848 2.000000
v -3.236763 14.646616 2.000000
v -1.808050 14.890633 2.000000
v -0.362456 14.995620 2.000000
v 1.086522 14.960597 2.000000
v 2.525356 14.785891 2.000000
v 3.940611 14.473133 2.000000
v 5.319073 14.025244 2.000000
v 6.647873 13.446404 2.000000
v 7.914604 12.742019 2.000000
v 9.107438 11.918665 2.000000
v 10.215238 10.984030 2.000000
v 11.227661 9.946840 2.000000
v 12.135255 8.816779 2.000000
v 12.929545 7.604398 2.000000
v 13.603115 6.321017 2.000000
v 14.149677 4.978618 2.000000
v 14.564127 3.589735 2.000000
v 14.842596 2.167336 2.000000
v 14.982483 0.724701 2.000000
v 14.982483 -0.724701 2.000000
v 14.842596 -2.167336 2.000000
v 14.564127 -3.589735 2.000000
v 14.149677 -4.978618 2.000000
v 13.603115 -6.321017 2.000000
v 12.929545 -7.604398 2.000000
v 12.135255 -8.816779 2.000000
v 11.227661 -9.946840 2.000000
v 10.215238 -10.984030 2.000000
v 9.107438 -11.918665 2.000000
v 7.914604 -12.742019 2.000000
v 6.647873 -13.446404 2.000000
v 5.319073 -14.025244 2.000000
v 3.940611 -14.473133 2.000000
v 2.525356 -14.785891 2.000000
v 1.086522 -14.960597 2.000000
v -0.362456 -14.995620 2.000000
v -1.808050 -14.890633 2.000000
v -3.236763 -14.646616 2.000000
v -4.635255 -14.265848 2.000000
v -5.990469 -13.751883 2.000000
v -7.289751 -13.109520 2.000000
v -8.520971 -12.344758 2.000000
v -9.672633 -11.464736 2.000000
v -10.733984 -10.477670 2.000000
v -11.695115 -9.392778 2.000000
v -12.547052 -8.220188 2.000000
v -13.281840 -6.970848 2.000000
v -13.892620 -5.656423 2.000000
v -14.373687 -4.289185 2.000000
v -14.720552 -2.881901 2.000000
v -14.929975 -1.447709 2.000000
v 9.702485 -11.439484 0.000000
v 10.746929 -10.464393 0.000000
v 11.693855 -9.394348 0.000000
v 12.534669 -8.239057 0.000000
v 13.261744 -7.009005 0.000000
v 13.868480 -5.715353 0.000000
v 14.349373 -4.369839 0.000000
v 14.700059 -2.984673 0.000000
v 14.917355 -1.572424 0.000000
v 14.999290 -0.145907 0.000000
v 14.945121 1.281934 0.000000
v 14.755339 2.698143 0.000000
v 14.431666 4.089869 0.000000
v 13.977038 5.444483 0.000000
v 13.395583 6.749694 0.000000
v 12.692575 7.993657 0.000000
v 5.055641 14.122340 0.000000
v 3.688966 14.539310 0.000000
v 2.288816 14.824349 0.000000
v 0.867898 14.974871 0.000000
v -0.560895 14.989510 0.000000
v -1.984599 14.868133 0.000000
v -3.390295 14.611841 0.000000
v -4.765226 14.222961 0.000000
v -6.096918 13.705021 0.000000
v -7.373286 13.062720 0.000000
v -8.582748 12.301887 0.000000
v -9.714330 11.429427 0.000000
v -10.757763 10.453254 0.000000
v -11.703580 9.382229 0.000000
v -12.543197 8.226068 0.000000
v -13.268997 6.995264 0.000000
v -14.758126 -2.682857 0.000000
v -14.435895 -4.074917 0.000000
v -13.982671 -5.430001 0.000000
v -13.402568 -6.735813 0.000000
v -12.700848 -7.980504 0.000000
v -11.883881 -9.152780 0.000000
v -10.959078 -10.242002 0.000000
v -9.934832 -11.238288 0.000000
v -8.820437 -12.132596 0.000000
v -7.626004 -12.916813 0.000000
v -6.362373 -13.583822 0.000000
v -5.041009 -14.127570 0.000000
v -3.673902 -14.543124 0.000000
v -2.273459 -14.826712 0.000000
v -0.852385 -14.975762 0.000000
v 0.576423 -14.988920 0.000000
vt -3.000000 0.654498 0.000000
vt -0.000000 0.654498 0.000000
vt -3.000000 0.785398 0.000000
vt 0.000000 0.785398 0.000000
vt -3.000000 -0.785398 0.000000
vt 0.000000 -0.785398 0.000000
vt -3.000000 -0.654498 0.000000
vt -0.000000 -0.654498 0.000000
vt -3.000000 -0.523599 0.000000
vt -0.000000 -0.523599 0.000000
vt -3.000000 -0.392699 0.000000
vt -0.000000 -0.392699 0.000000
vt -3.000000 -0.261799 0.000000
vt -0.000000 -0.261799 0.000000
vt -3.000000 -0.130900 0.000000
vt -0.000000 -0.130900 0.000000
vt -3.000000 0.000000 0.000000
vt -0.000000 0.000000 0.000000
vt -3.000000 0.130900 0.000000
vt -0.000000 0.130900 0.000000
vt -3.000000 0.261799 0.000000
vt -0.000000 0.261799 0.000000
vt -3.000000 0.392699 0.000000
vt -0.000000 0.392699 0.000000
vt -3.000000 0.523599 0.000000
vt -0.000000 0.523599 0.000000
vt -0.216506 -0.125000 0.000000
vt 0.216506 -0.125000 0.000000
vt -0.250000 0.000000 0.000000
vt 0.250000 0.000000 0.000000
vt -0.216506 0.125000 0.000000
vt 0.216506 0.125000 0.000000
vt -0.125000 0.216506 0.000000
vt 0.125000 0.216506 0.000000
vt 0.000000 0.250000 0.000000
vt 0.125000 -0.216506 0.000000
vt -0.125000 -0.216506 0.000000
vt 0.000000 -0.250000 0.000000
vt -3.000000 0.654498 0.000000
vt -0.000000 0.654498 0.000000
vt -3.000000 0.785398 0.000000
vt -0.000000 0.785398 0.000000
vt -3.000000 -0.785398 0.000000
vt -0.000000 -0.785398 0.000000
vt -3.000000 -0.654498 0.000000
vt -0.000000 -0.654498 0.000000
vt -3.000000 -0.523599 0.000000
vt -0.000000 -0.523599 0.000000
vt -3.000000 -0.392699 0.000000
vt -0.000000 -0.392699 0.000000
vt -3.000000 -0.261799 0.000000
vt -0.000000 -0.261799 0.000000
vt -3.000000 -0.130900 0.000000
vt -0.000000 -0.130900 0.000000
vt -3.000000 0.000000 0.000000
vt -0.000000 0.000000 0.000000
vt -3.000000 0.130900 0.000000
vt -0.000000 0.130900 0.000000
vt -3.000000 0.261799 0.000000
vt -0.000000 0.261799 0.000000
vt -3.000000 0.392699 0.000000
vt -0.000000 0.392699 0.000000
vt -3.000000 0.523599 0.000000
vt -0.000000 0.523599 0.000000
vt -0.216506 -0.125000 0.000000
vt 0.216506 -0.125000 0.000000
vt -0.250000 0.000000 0.000000
vt 0.250000 0.000000 0.000000
vt -0.216506 0.125000 0.000000
vt 0.216506 0.125000 0.000000
vt -0.125000 0.216506 0.000000
vt 0.125000 0.216506 0.000000
vt 0.000000 0.250000 0.000000
vt 0.125000 -0.216506 0.000000
vt -0.125000 -0.216506 0.000000
vt 0.000000 -0.250000 0.000000
vt -3.000000 0.654498 0.000000
vt -0.000000 0.654498 0.000000
vt -3.000000 0.785398 0.000000
vt -0.000000 0.785398 0.000000
vt -3.000000 -0.785398 0.000000
vt -0.000000 -0.785398 0.000000
vt -3.000000 -0.654498 0.000000
vt -0.000000 -0.654498 0.000000
vt -3.000000 -0.523599 0.000000
vt -0.000000 -0.523599 0.000000
vt -3.000000 -0.392699 0.000000
vt -0.000000 -0.392699 0.000000
vt -3.000000 -0.261799 0.000000
vt -0.000000 -0.261799 0.000000
vt -3.000000 -0.130900 0.000000
vt -0.000000 -0.130900 0.000000
vt -3.000000 0.000000 0.000000
vt -0.000000 0.000000 0.000000
vt -3.000000 0.130900 0.000000
vt -0.000000 0.130900 0.000000
vt -3.000000 0.261799 0.000000
vt -0.000000 0.261799 0.000000
vt -3.000000 0.392699 0.000000
vt -0.000000 0.392699 0.000000
vt -3.000000 0.523599 0.000000
vt -0.000000 0.523599 0.000000
vt -0.216506 -0.125000 0.000000
vt 0.216506 -0.125000 0.000000
vt -0.250000 0.000000 0.000000
vt 0.250000 0.000000 0.000000
vt -0.216506 0.125000 0.000000
vt 0.216506 0.125000 0.000000
vt -0.125000 0.216506 0.000000
vt 0.125000 0.216506 0.000000
vt 0.000000 0.250000 0.000000
vt 0.125000 -0.216506 0.000000
vt -0.125000 -0.216506 0.000000
vt 0.000000 -0.250000 0.000000
vt 5.600000 0.000000 0.000000
vt 5.600000 5.600000 0.000000
vt 2.976248 0.000000 0.000000
vt 0.000000 5.600000 0.000000
vt 0.000000 0.000000 0.000000
vt 0.000000 0.000000 0.000000
vt 6.570000 0.000000 0.000000
vt 0.000000 5.600000 0.000000
vt 6.570000 5.600000 0.000000
vt 3.016506 2.675000 0.000000
vt 5.600000 -0.000000 0.000000
vt 3.050000 2.800000 0.000000
vt 5.600000 5.600000 0.000000
vt 3.016506 2.925000 0.000000
vt 2.925000 3.016506 0.000000
vt 2.800000 3.050000 0.000000
vt 0.000000 5.600000 0.000000
vt 2.675000 3.016506 0.000000
vt 2.583494 2.925000 0.000000
vt 2.550000 2.800000 0.000000
vt -0.000000 0.000000 0.000000
vt 0.068455 -0.000000 0.000000
vt 2.925000 2.583494 0.000000
vt 2.800000 2.550000 0.000000
vt 2.675000 2.583494 0.000000
vt 2.583494 2.675000 0.000000
vt 0.000000 0.000000 0.000000
vt 6.570000 0.000000 0.000000
vt 0.000000 5.600000 0.000000
vt 6.570000 5.600000 0.000000
vt -4.067371 -1.444893 0.000000
vt 0.782371 -4.244893 0.000000
vt -0.782371 4.244893 0.000000
vt 4.067371 1.444893 0.000000
vt 1.489865 -2.933017 0.000000
vt 0.232275 -2.267864 0.000000
vt -0.782371 -4.244893 0.000000
vt -0.956645 -1.486562 0.000000
vt -2.066198 -0.596139 0.000000
vt -3.086405 0.395395 0.000000
vt -4.067371 1.444893 0.000000
vt -4.008087 1.479121 0.000000
vt 0.000000 0.000000 0.000000
vt 6.570000 0.000000 0.000000
vt -0.000000 5.600000 0.000000
vt 6.570000 5.600000 0.000000
vt 3.016506 2.675000 0.000000
vt 5.600000 0.000000 0.000000
vt 3.050000 2.800000 0.000000
vt 5.600000 5.600000 0.000000
vt 3.016506 2.925000 0.000000
vt 2.925000 3.016506 0.000000
vt 2.800000 3.050000 0.000000
vt 0.000000 5.600000 0.000000
vt 2.675000 3.016506 0.000000
vt 2.583494 2.925000 0.000000
vt 2.550000 2.800000 0.000000
vt 0.000000 0.000000 0.000000
vt 0.068455 0.000000 0.000000
vt 2.925000 2.583494 0.000000
vt 2.800000 2.550000 0.000000
vt 2.675000 2.583494 0.000000
vt 2.583494 2.675000 0.000000
vt 0.000000 0.000000 0.000000
vt 6.570000 0.000000 0.000000
vt 0.000000 5.600000 0.000000
vt 6.570000 5.600000 0.000000
vt 5.600000 0.000000 0.000000
vt 5.600000 5.600000 0.000000
vt 2.976248 0.000000 0.000000
vt 0.000000 5.600000 0.000000
vt 0.000000 0.000000 0.000000
vt 16.109338 0.045424 0.000000
vt 12.824338 5.735211 0.000000
vt 11.259596 -2.754576 0.000000
vt 7.974596 2.935211 0.000000
vt 13.837103 1.266452 0.000000
vt 13.889858 -0.155230 0.000000
vt 16.109338 -0.045424 0.000000
vt 13.807690 -1.575515 0.000000
vt 13.591338 -2.981628 0.000000
vt 13.242748 -4.360920 0.000000
vt 12.824338 -5.735211 0.000000
vt 12.765055 -5.700984 0.000000
vt 3.016506 2.675000 0.000000
vt 5.600000 0.000000 0.000000
vt 3.050000 2.800000 0.000000
vt 5.600000 5.600000 0.000000
vt 3.016506 2.925000 0.000000
vt 2.925000 3.016506 0.000000
vt 2.800000 3.050000 0.000000
vt 0.000000 5.600000 0.000000
vt 2.675000 3.016506 0.000000
vt 2.583494 2.925000 0.000000
vt 2.550000 2.800000 0.000000
vt 0.000000 0.000000 0.000000
vt 0.068455 0.000000 0.000000
vt 2.925000 2.583494 0.000000
vt 2.800000 2.550000 0.000000
vt 2.675000 2.583494 0.000000
vt 2.583494 2.675000 0.000000
vt 0.000000 0.000000 0.000000
vt 6.570000 0.000000 0.000000
vt 0.000000 5.600000 0.000000
vt 6.570000 5.600000 0.000000
vt 5.600000 0.000000 0.000000
vt 5.600000 5.600000 0.000000
vt 2.976248 0.000000 0.000000
vt 0.000000 5.600000 0.000000
vt -0.000000 0.000000 0.000000
vt 0.000000 0.000000 0.000000
vt 6.570000 0.000000 0.000000
vt 0.000000 5.600000 0.000000
vt 6.570000 5.600000 0.000000
vt -2.000000 -9.334524 0.000000
vt -8.570000 -9.334524 0.000000
vt -2.000000 -14.934524 0.000000
vt -8.570000 -14.934524 0.000000
vt -8.570000 12.310772 0.000000
vt -7.365166 13.067300 0.000000
vt -8.570000 14.934524 0.000000
vt -6.094079 13.706283 0.000000
vt -4.768173 14.221973 0.000000
vt -3.399376 14.609731 0.000000
vt -2.000000 14.934524 0.000000
vt -2.000000 14.866069 0.000000
vt -2.000000 45.673924 0.000000
vt -0.000000 46.968657 0.000000
vt -2.000000 47.123890 0.000000
vt -2.000000 -47.123890 0.000000
vt 0.000000 -47.279122 0.000000
vt -0.000000 -45.855928 0.000000
vt -2.000000 -45.673924 0.000000
vt -0.000000 -44.426519 0.000000
vt -2.000000 -44.223958 0.000000
vt -0.000000 -42.997110 0.000000
vt -2.000000 -42.773992 0.000000
vt -0.000000 -41.567701 0.000000
vt -2.000000 -41.324026 0.000000
vt -0.000000 -40.138291 0.000000
vt -2.000000 -39.874061 0.000000
vt -0.000000 -38.708882 0.000000
vt -2.000000 -38.424095 0.000000
vt -0.000000 -37.279473 0.000000
vt -2.000000 -36.974129 0.000000
vt -0.000000 -35.850064 0.000000
vt -2.000000 -35.524163 0.000000
vt -0.000000 -34.420654 0.000000
vt -2.000000 -34.074197 0.000000
vt -0.000000 -32.991245 0.000000
vt -2.000000 -32.624231 0.000000
vt -0.000000 -31.561836 0.000000
vt -2.000000 -31.174266 0.000000
vt -0.000000 -30.132427 0.000000
vt -2.000000 -29.724300 0.000000
vt -0.000000 -28.703017 0.000000
vt -2.000000 -28.274334 0.000000
vt -0.000000 -27.273608 0.000000
vt -2.000000 -26.824368 0.000000
vt -0.000000 -25.844199 0.000000
vt -2.000000 -25.374402 0.000000
vt -0.000000 -24.414790 0.000000
vt -2.000000 -23.924436 0.000000
vt -0.000000 -22.985380 0.000000
vt -2.000000 -22.474471 0.000000
vt -0.000000 -21.555971 0.000000
vt -2.000000 -21.024505 0.000000
vt -0.000000 -20.132777 0.000000
vt -2.000000 -19.574539 0.000000
vt -0.000000 -18.709583 0.000000
vt -2.000000 -18.124573 0.000000
vt -0.000000 -17.286390 0.000000
vt -2.000000 -16.674607 0.000000
vt -0.000000 -15.863196 0.000000
vt -2.000000 -15.224641 0.000000
vt -0.000000 -14.440002 0.000000
vt -2.000000 -13.774675 0.000000
vt -0.000000 -13.010593 0.000000
vt -2.000000 -12.324710 0.000000
vt -0.000000 -11.581183 0.000000
vt -2.000000 -10.874744 0.000000
vt -0.000000 -10.151774 0.000000
vt -2.000000 -9.424778 0.000000
vt -0.000000 -8.722365 0.000000
vt -2.000000 -7.974812 0.000000
vt -0.000000 -7.292956 0.000000
vt -2.000000 -6.524846 0.000000
vt -0.000000 -5.863546 0.000000
vt -2.000000 -5.074880 0.000000
vt -0.000000 -4.434137 0.000000
vt -2.000000 -3.624915 0.000000
vt -0.000000 -3.004728 0.000000
vt -2.000000 -2.174949 0.000000
vt -0.000000 -1.575319 0.000000
vt -2.000000 -0.724983 0.000000
vt -0.000000 -0.145909 0.000000
vt -2.000000 0.724983 0.000000
vt -0.000000 1.283500 0.000000
vt -2.000000 2.174949 0.000000
vt -0.000000 2.712909 0.000000
vt -2.000000 3.624915 0.000000
vt -0.000000 4.142318 0.000000
vt -2.000000 5.074880 0.000000
vt -0.000000 5.571728 0.000000
vt -2.000000 6.524846 0.000000
vt -0.000000 7.001137 0.000000
vt -2.000000 7.974812 0.000000
vt -0.000000 8.430546 0.000000
vt -2.000000 9.424778 0.000000
vt -0.000000 9.859955 0.000000
vt -2.000000 10.874744 0.000000
vt -0.000000 11.283149 0.000000
vt -2.000000 12.324710 0.000000
vt -0.000000 12.706343 0.000000
vt -2.000000 13.774675 0.000000
vt -0.000000 14.129537 0.000000
vt -2.000000 15.224641 0.000000
vt -0.000000 15.552731 0.000000
vt -2.000000 16.674607 0.000000
vt -0.000000 16.975925 0.000000
vt -2.000000 18.124573 0.000000
vt -0.000000 18.405334 0.000000
vt -2.000000 19.574539 0.000000
vt -0.000000 19.834743 0.000000
vt -2.000000 21.024505 0.000000
vt -0.000000 21.264152 0.000000
vt -2.000000 22.474471 0.000000
vt -0.000000 22.693562 0.000000
vt -2.000000 23.924436 0.000000
vt -0.000000 24.122971 0.000000
vt -2.000000 25.374402 0.000000
vt -0.000000 25.552380 0.000000
vt -2.000000 26.824368 0.000000
vt -0.000000 26.981789 0.000000
vt -2.000000 28.274334 0.000000
vt -0.000000 28.411199 0.000000
vt -2.000000 29.724300 0.000000
vt -0.000000 29.840608 0.000000
vt -2.000000 31.174266 0.000000
vt -0.000000 31.270017 0.000000
vt -2.000000 32.624231 0.000000
vt -0.000000 32.699426 0.000000
vt -2.000000 34.074197 0.000000
vt -0.000000 34.128836 0.000000
vt -2.000000 35.524163 0.000000
vt -0.000000 35.558245 0.000000
vt -2.000000 36.974129 0.000000
vt -0.000000 36.987654 0.000000
vt -2.000000 38.424095 0.000000
vt -0.000000 38.417063 0.000000
vt -0.000000 39.846473 0.000000
vt -0.000000 45.545463 0.000000
vt -2.000000 44.223958 0.000000
vt -0.000000 44.122270 0.000000
vt -2.000000 42.773992 0.000000
vt -0.000000 42.699076 0.000000
vt -2.000000 41.324026 0.000000
vt -0.000000 41.275882 0.000000
vt -2.000000 39.874061 0.000000
vt -14.929975 1.447709 0.000000
vt -15.000000 -0.000000 0.000000
vt 14.982483 -0.724701 0.000000
vt -14.929975 -1.447709 0.000000
vt 14.842596 -2.167336 0.000000
vt -14.720552 -2.881901 0.000000
vt 14.564127 -3.589735 0.000000
vt -14.373687 -4.289185 0.000000
vt 14.149677 -4.978618 0.000000
vt -13.892620 -5.656423 0.000000
vt 13.603115 -6.321017 0.000000
vt -13.281840 -6.970848 0.000000
vt 12.929545 -7.604398 0.000000
vt -12.547052 -8.220188 0.000000
vt 12.135255 -8.816779 0.000000
vt -11.695115 -9.392778 0.000000
vt 11.227661 -9.946840 0.000000
vt -10.733984 -10.477670 0.000000
vt 10.215238 -10.984030 0.000000
vt -9.672633 -11.464736 0.000000
vt 9.107438 -11.918665 0.000000
vt -8.520971 -12.344758 0.000000
vt 7.914604 -12.742019 0.000000
vt -7.289751 -13.109520 0.000000
vt 6.647873 -13.446404 0.000000
vt -5.990469 -13.751883 0.000000
vt 5.319073 -14.025244 0.000000
vt -4.635255 -14.265848 0.000000
vt 3.940611 -14.473133 0.000000
vt -3.236763 -14.646616 0.000000
vt 2.525356 -14.785891 0.000000
vt -1.808050 -14.890633 0.000000
vt 1.086522 -14.960597 0.000000
vt -0.362456 -14.995620 0.000000
vt 14.982483 0.724701 0.000000
vt 14.564127 3.589735 0.000000
vt 14.149677 4.978618 0.000000
vt 13.603115 6.321017 0.000000
vt 14.842596 2.167336 0.000000
vt 12.929545 7.604398 0.000000
vt 12.135255 8.816779 0.000000
vt 11.227661 9.946840 0.000000
vt 10.215238 10.984030 0.000000
vt 9.107438 11.918665 0.000000
vt 7.914604 12.742019 0.000000
vt 6.647873 13.446404 0.000000
vt 5.319073 14.025244 0.000000
vt 3.940611 14.473133 0.000000
vt 2.525356 14.785891 0.000000
vt 1.086522 14.960597 0.000000
vt -0.362456 14.995620 0.000000
vt -1.808050 14.890633 0.000000
vt -3.236763 14.646616 0.000000
vt -4.635255 14.265848 0.000000
vt -5.990469 13.751883 0.000000
vt -7.289751 13.109520 0.000000
vt -8.520971 12.344758 0.000000
vt -9.672633 11.464736 0.000000
vt -10.733984 10.477670 0.000000
vt -11.695115 9.392778 0.000000
vt -12.547052 8.220188 0.000000
vt -13.281840 6.970848 0.000000
vt -13.892620 5.656423 0.000000
vt -14.373687 4.289185 0.000000
vt -14.720552 2.881901 0.000000
vt -11.874393 9.165085 0.000000
vt -12.692575 7.993657 0.000000
vt -7.083935 6.399313 0.000000
vt -13.395583 6.749694 0.000000
vt -13.977038 5.444483 0.000000
vt -14.431666 4.089869 0.000000
vt -14.755339 2.698143 0.000000
vt -14.945121 1.281934 0.000000
vt -14.999290 -0.145907 0.000000
vt -14.917355 -1.572424 0.000000
vt -14.700059 -2.984673 0.000000
vt -8.570000 -9.334524 0.000000
vt -14.349373 -4.369839 0.000000
vt -13.868480 -5.715353 0.000000
vt -13.261744 -7.009005 0.000000
vt -12.534669 -8.239057 0.000000
vt -11.693855 -9.394348 0.000000
vt -10.746929 -10.464393 0.000000
vt -9.702485 -11.439484 0.000000
vt -8.570000 -12.310772 0.000000
vt -2.000000 -9.334524 0.000000
vt 9.083935 2.935211 0.000000
vt -3.798935 12.089100 0.000000
vt 4.765226 14.222961 0.000000
vt 3.390295 14.611841 0.000000
vt -2.000000 -14.866069 0.000000
vt -0.576423 -14.988920 0.000000
vt 0.852385 -14.975762 0.000000
vt 2.273459 -14.826712 0.000000
vt 3.673902 -14.543124 0.000000
vt 5.041009 -14.127570 0.000000
vt 6.362373 -13.583822 0.000000
vt 7.626004 -12.916813 0.000000
vt 8.820437 -12.132596 0.000000
vt 9.934832 -11.238288 0.000000
vt 12.368935 -2.754576 0.000000
vt 10.959078 -10.242002 0.000000
vt 11.883881 -9.152780 0.000000
vt 12.700848 -7.980504 0.000000
vt 13.402568 -6.735813 0.000000
vt 13.982671 -5.430001 0.000000
vt 14.435895 -4.074917 0.000000
vt 14.758126 -2.682857 0.000000
vt 14.946441 -1.266452 0.000000
vt 13.874393 5.700984 0.000000
vt 13.268997 6.995264 0.000000
vt 12.543197 8.226068 0.000000
vt 11.703580 9.382229 0.000000
vt 10.757763 10.453254 0.000000
vt 9.714330 11.429427 0.000000
vt 8.582748 12.301887 0.000000
vt 7.373286 13.062720 0.000000
vt 6.096918 13.705021 0.000000
vt 1.984599 14.868133 0.000000
vt 0.560895 14.989510 0.000000
vt -0.867898 14.974871 0.000000
vt -2.288816 14.824349 0.000000
vt -3.688966 14.539310 0.000000
vt -5.055641 14.122340 0.000000
vt -6.376441 13.577224 0.000000
vn 0.750000 -0.433013 0.500000
vn 0.750000 -0.433013 0.500000
vn 0.866025 -0.500000 0.000000
vn 0.866025 -0.500000 0.000000
vn 0.750000 -0.433013 -0.500000
vn 0.750000 -0.433013 -0.500000
vn 0.433013 -0.250000 -0.866025
vn 0.433013 -0.250000 -0.866025
vn 0.000000 -0.000000 -1.000000
vn -0.000000 0.000000 -1.000000
vn -0.433013 0.250000 -0.866025
vn -0.433013 0.250000 -0.866025
vn -0.750000 0.433013 -0.500000
vn -0.750000 0.433013 -0.500000
vn -0.866025 0.500000 0.000000
vn -0.866025 0.500000 0.000000
vn -0.750000 0.433013 0.500000
vn -0.750000 0.433013 0.500000
vn -0.433013 0.250000 0.866025
vn -0.433013 0.250000 0.866025
vn 0.000000 -0.000000 1.000000
vn -0.000000 0.000000 1.000000
vn 0.433013 -0.250000 0.866025
vn 0.433013 -0.250000 0.866025
vn 0.500000 0.866025 0.000000
vn 0.500000 0.866025 0.000000
vn 0.500000 0.866025 0.000000
vn 0.500000 0.866025 0.000000
vn 0.500000 0.866025 0.000000
vn 0.500000 0.866025 0.000000
vn 0.500000 0.866025 0.000000
vn 0.500000 0.866025 0.000000
vn 0.500000 0.866025 0.000000
vn 0.500000 0.866025 0.000000
vn 0.500000 0.866025 0.000000
vn 0.500000 0.866025 0.000000
vn 0.000000 0.866025 0.500000
vn 0.000000 0.866025 0.500000
vn 0.000000 1.000000 0.000000
vn 0.000000 1.000000 0.000000
vn -0.000000 0.866025 -0.500000
vn -0.000000 0.866025 -0.500000
vn -0.000000 0.500000 -0.866025
vn -0.000000 0.500000 -0.866025
vn -0.000000 -0.000000 -1.000000
vn -0.000000 -0.000000 -1.000000
vn -0.000000 -0.500000 -0.866025
vn -0.000000 -0.500000 -0.866025
vn -0.000000 -0.866025 -0.500000
vn -0.000000 -0.866025 -0.500000
vn -0.000000 -1.000000 0.000000
vn -0.000000 -1.000000 0.000000
vn -0.000000 -0.866025 0.500000
vn -0.000000 -0.866025 0.500000
vn -0.000000 -0.500000 0.866025
vn -0.000000 -0.500000 0.866025
vn -0.000000 -0.000000 1.000000
vn -0.000000 -0.000000 1.000000
vn 0.000000 0.500000 0.866025
vn 0.000000 0.500000 0.866025
vn -1.000000 0.000000 0.000000
vn -1.000000 0.000000 0.000000
vn -1.000000 0.000000 0.000000
vn -1.000000 0.000000 0.000000
vn -1.000000 0.000000 0.000000
vn -1.000000 0.000000 0.000000
vn -1.000000 0.000000 0.000000
vn -1.000000 0.000000 0.000000
vn -1.000000 0.000000 0.000000
vn -1.000000 0.000000 0.000000
vn -1.000000 0.000000 0.000000
vn -1.000000 0.000000 0.000000
vn -0.750000 -0.433013 0.500000
vn -0.750000 -0.433013 0.500000
vn -0.866025 -0.500000 0.000000
vn -0.866025 -0.500000 0.000000
vn -0.750000 -0.433013 -0.500000
vn -0.750000 -0.433013 -0.500000
vn -0.433013 -0.250000 -0.866025
vn -0.433013 -0.250000 -0.866025
vn 0.000000 0.000000 -1.000000
vn -0.000000 -0.000000 -1.000000
vn 0.433013 0.250000 -0.866025
vn 0.433013 0.250000 -0.866025
vn 0.750000 0.433013 -0.500000
vn 0.750000 0.433013 -0.500000
vn 0.866025 0.500000 -0.000000
vn 0.866025 0.500000 -0.000000
vn 0.750000 0.433013 0.500000
vn 0.750000 0.433013 0.500000
vn 0.433013 0.250000 0.866025
vn 0.433013 0.250000 0.866025
vn 0.000000 0.000000 1.000000
vn -0.000000 -0.000000 1.000000
vn -0.433013 -0.250000 0.866025
vn -0.433013 -0.250000 0.866025
vn 0.500000 -0.866025 0.000000
vn 0.500000 -0.866025 0.000000
vn 0.500000 -0.866025 0.000000
vn 0.500000 -0.866025 0.000000
vn 0.500000 -0.866025 0.000000
vn 0.500000 -0.866025 0.000000
vn 0.500000 -0.866025 0.000000
vn 0.500000 -0.866025 0.000000
vn 0.500000 -0.866025 0.000000
vn 0.500000 -0.866025 0.000000
vn 0.500000 -0.866025 0.000000
vn 0.500000 -0.866025 0.000000
vn -0.500000 0.866025 0.000000
vn -0.500000 0.866025 0.000000
vn -0.500000 0.866025 0.000000
vn -0.500000 0.866025 0.000000
vn -0.500000 0.866025 0.000000
vn -0.866025 -0.500000 -0.000000
vn -0.866025 -0.500000 -0.000000
vn -0.866025 -0.500000 -0.000000
vn -0.866025 -0.500000 -0.000000
vn 0.500000 -0.866025 0.000000
vn 0.500000 -0.866025 0.000000
vn 0.500000 -0.866025 0.000000
vn 0.500000 -0.866025 0.000000
vn 0.500000 -0.866025 0.000000
vn 0.500000 -0.866025 0.000000
vn 0.500000 -0.866025 0.000000
vn 0.500000 -0.866025 0.000000
vn 0.500000 -0.866025 0.000000
vn 0.500000 -0.866025 0.000000
vn 0.500000 -0.866025 0.000000
vn 0.500000 -0.866025 0.000000
vn 0.500000 -0.866025 0.000000
vn 0.500000 -0.866025 0.000000
vn 0.500000 -0.866025 0.000000
vn 0.500000 -0.866025 0.000000
vn 0.500000 -0.866025 0.000000
vn 0.866025 0.500000 0.000000
vn 0.866025 0.500000 0.000000
vn 0.866025 0.500000 0.000000
vn 0.866025 0.500000 0.000000
vn 0.000000 0.000000 -1.000000
vn 0.000000 0.000000 -1.000000
vn 0.000000 0.000000 -1.000000
vn 0.000000 0.000000 -1.000000
vn -0.000000 -0.000000 1.000000
vn -0.000000 -0.000000 1.000000
vn -0.000000 -0.000000 1.000000
vn -0.000000 -0.000000 1.000000
vn -0.000000 -0.000000 1.000000
vn -0.000000 -0.000000 1.000000
vn -0.000000 -0.000000 1.000000
vn -0.000000 -0.000000 1.000000
vn 0.866025 -0.500000 0.000000
vn 0.866025 -0.500000 0.000000
vn 0.866025 -0.500000 0.000000
vn 0.866025 -0.500000 0.000000
vn 0.500000 0.866025 0.000000
vn 0.500000 0.866025 0.000000
vn 0.500000 0.866025 0.000000
vn 0.500000 0.866025 0.000000
vn 0.500000 0.866025 0.000000
vn 0.500000 0.866025 0.000000
vn 0.500000 0.866025 0.000000
vn 0.500000 0.866025 0.000000
vn 0.500000 0.866025 0.000000
vn 0.500000 0.866025 0.000000
vn 0.500000 0.866025 0.000000
vn 0.500000 0.866025 0.000000
vn 0.500000 0.866025 0.000000
vn 0.500000 0.866025 0.000000
vn 0.500000 0.866025 0.000000
vn 0.500000 0.866025 0.000000
vn 0.500000 0.866025 0.000000
vn -0.866025 0.500000 0.000000
vn -0.866025 0.500000 0.000000
vn -0.866025 0.500000 0.000000
vn -0.866025 0.500000 0.000000
vn -0.500000 -0.866025 -0.000000
vn -0.500000 -0.866025 -0.000000
vn -0.500000 -0.866025 -0.000000
vn -0.500000 -0.866025 -0.000000
vn -0.500000 -0.866025 -0.000000
vn 0.000000 0.000000 -1.000000
vn 0.000000 0.000000 -1.000000
vn 0.000000 0.000000 -1.000000
vn 0.000000 0.000000 -1.000000
vn -0.000000 -0.000000 1.000000
vn -0.000000 -0.000000 1.000000
vn -0.000000 -0.000000 1.000000
vn -0.000000 -0.000000 1.000000
vn -0.000000 -0.000000 1.000000
vn -0.000000 -0.000000 1.000000
vn -0.000000 -0.000000 1.000000
vn -0.000000 -0.000000 1.000000
vn -1.000000 -0.000000 -0.000000
vn -1.000000 -0.000000 -0.000000
vn -1.000000 -0.000000 -0.000000
vn -1.000000 -0.000000 -0.000000
vn -1.000000 -0.000000 -0.000000
vn -1.000000 -0.000000 -0.000000
vn -1.000000 -0.000000 -0.000000
vn -1.000000 -0.000000 -0.000000
vn -1.000000 -0.000000 -0.000000
vn -1.000000 -0.000000 -0.000000
vn -1.000000 -0.000000 -0.000000
vn -1.000000 -0.000000 -0.000000
vn -1.000000 -0.000000 -0.000000
vn -1.000000 -0.000000 -0.000000
vn -1.000000 -0.000000 -0.000000
vn -1.000000 -0.000000 -0.000000
vn -1.000000 -0.000000 -0.000000
vn -0.000000 -1.000000 -0.000000
vn -0.000000 -1.000000 -0.000000
vn -0.000000 -1.000000 -0.000000
vn -0.000000 -1.000000 -0.000000
vn 1.000000 -0.000000 0.000000
vn 1.000000 -0.000000 0.000000
vn 1.000000 -0.000000 0.000000
vn 1.000000 -0.000000 0.000000
vn 1.000000 -0.000000 0.000000
vn -0.000000 1.000000 0.000000
vn -0.000000 1.000000 0.000000
vn -0.000000 1.000000 0.000000
vn -0.000000 1.000000 0.000000
vn 0.000000 0.000000 -1.000000
vn 0.000000 0.000000 -1.000000
vn 0.000000 0.000000 -1.000000
vn 0.000000 0.000000 -1.000000
vn -0.000000 -0.000000 1.000000
vn -0.000000 -0.000000 1.000000
vn -0.000000 -0.000000 1.000000
vn -0.000000 -0.000000 1.000000
vn -0.000000 -0.000000 1.000000
vn -0.000000 -0.000000 1.000000
vn -0.000000 -0.000000 1.000000
vn -0.000000 -0.000000 1.000000
vn -0.995332 0.096514 -0.000000
vn -0.999946 0.010349 -0.000000
vn -1.000000 0.000000 -0.000000
vn -0.996429 -0.084430 0.000000
vn -0.995332 -0.096514 0.000000
vn -0.983875 -0.178857 0.000000
vn -0.981370 -0.192127 0.000000
vn -0.962393 -0.271661 0.000000
vn -0.958246 -0.285946 0.000000
vn -0.932178 -0.362000 0.000000
vn -0.926175 -0.377095 0.000000
vn -0.893505 -0.449054 0.000000
vn -0.885456 -0.464723 0.000000
vn -0.846723 -0.532034 0.000000
vn -0.836470 -0.548013 0.000000
vn -0.792259 -0.610185 0.000000
vn -0.779674 -0.626185 0.000000
vn -0.730605 -0.682800 0.000000
vn -0.715599 -0.698511 0.000000
vn -0.662322 -0.749219 0.000000
vn -0.644842 -0.764316 0.000000
vn -0.588029 -0.808840 0.000000
vn -0.568065 -0.822984 0.000000
vn -0.508400 -0.861121 0.000000
vn -0.485983 -0.873968 0.000000
vn -0.424158 -0.905588 0.000000
vn -0.399365 -0.916792 0.000000
vn -0.336067 -0.941838 0.000000
vn -0.309017 -0.951057 0.000000
vn -0.244927 -0.969542 0.000000
vn -0.215784 -0.976441 0.000000
vn -0.151564 -0.988447 0.000000
vn -0.120537 -0.992709 0.000000
vn -0.056826 -0.998384 0.000000
vn -0.024164 -0.999708 0.000000
vn 0.038428 -0.999261 -0.000000
vn 0.072435 -0.997373 -0.000000
vn 0.133333 -0.991071 -0.000000
vn 0.168357 -0.985726 -0.000000
vn 0.226625 -0.973982 -0.000000
vn 0.262707 -0.964876 -0.000000
vn 0.317878 -0.948132 -0.000000
vn 0.354605 -0.935016 -0.000000
vn 0.406272 -0.913752 -0.000000
vn 0.443192 -0.896427 -0.000000
vn 0.491011 -0.871153 -0.000000
vn 0.527640 -0.849468 -0.000000
vn 0.571333 -0.820718 -0.000000
vn 0.607163 -0.794578 -0.000000
vn 0.646832 -0.762632 -0.000000
vn 0.681016 -0.732269 -0.000000
vn 0.716462 -0.697626 -0.000000
vn 0.748511 -0.663123 -0.000000
vn 0.779590 -0.626290 -0.000000
vn 0.809017 -0.587785 -0.000000
vn 0.835645 -0.549270 -0.000000
vn 0.861970 -0.506960 -0.000000
vn 0.884116 -0.467267 -0.000000
vn 0.906874 -0.421401 -0.000000
vn 0.924565 -0.381024 -0.000000
vn 0.943312 -0.331908 -0.000000
vn 0.956625 -0.291323 -0.000000
vn 0.970942 -0.239316 -0.000000
vn 0.980004 -0.198978 -0.000000
vn 0.989506 -0.144489 -0.000000
vn 0.994490 -0.104828 -0.000000
vn 0.998832 -0.048313 -0.000000
vn 0.999953 -0.009727 -0.000000
vn 0.998832 0.048313 -0.000000
vn 0.996341 0.085462 -0.000000
vn 0.989506 0.144489 -0.000000
vn 0.983689 0.179876 -0.000000
vn 0.970942 0.239316 -0.000000
vn 0.962111 0.272658 -0.000000
vn 0.943312 0.331908 -0.000000
vn 0.931803 0.362966 -0.000000
vn 0.906874 0.421401 -0.000000
vn 0.893039 0.449980 -0.000000
vn 0.861970 0.506960 -0.000000
vn 0.846172 0.532910 -0.000000
vn 0.809017 0.587785 -0.000000
vn 0.791626 0.611006 -0.000000
vn 0.748511 0.663123 -0.000000
vn 0.730181 0.683254 -0.000000
vn 0.681016 0.732269 -0.000000
vn 0.662167 0.749356 -0.000000
vn 0.607163 0.794578 -0.000000
vn 0.588197 0.808718 -0.000000
vn 0.527640 0.849468 -0.000000
vn 0.508935 0.860805 -0.000000
vn 0.443192 0.896427 -0.000000
vn 0.425096 0.905148 -0.000000
vn 0.354605 0.935016 -0.000000
vn 0.337043 0.941489 -0.000000
vn 0.262707 0.964876 -0.000000
vn 0.245931 0.969287 -0.000000
vn 0.168357 0.985726 -0.000000
vn 0.152588 0.988290 -0.000000
vn 0.072435 0.997373 -0.000000
vn 0.057860 0.998325 -0.000000
vn -0.024164 0.999708 -0.000000
vn -0.037393 0.999301 -0.000000
vn -0.120537 0.992709 -0.000000
vn -0.132307 0.991209 -0.000000
vn -0.215784 0.976441 -0.000000
vn -0.226020 0.974123 -0.000000
vn -0.309017 0.951057 -0.000000
vn -0.317682 0.948197 -0.000000
vn -0.399365 0.916792 -0.000000
vn -0.406461 0.913668 -0.000000
vn -0.485983 0.873968 -0.000000
vn -0.491552 0.870848 -0.000000
vn -0.568065 0.822984 -0.000000
vn -0.572183 0.820126 -0.000000
vn -0.644842 0.764316 -0.000000
vn -0.647622 0.761962 -0.000000
vn -0.715599 0.698511 -0.000000
vn -0.717184 0.696884 -0.000000
vn -0.779674 0.626185 -0.000000
vn -0.780239 0.625482 -0.000000
vn -0.836470 0.548013 -0.000000
vn -0.836213 0.548405 -0.000000
vn -0.884600 0.466351 -0.000000
vn -0.994469 0.105034 -0.000000
vn -0.981370 0.192127 -0.000000
vn -0.980045 0.198775 -0.000000
vn -0.958246 0.285946 -0.000000
vn -0.956806 0.290728 -0.000000
vn -0.926175 0.377095 -0.000000
vn -0.924960 0.380066 -0.000000
vn -0.885456 0.464723 -0.000000
vn 0.000000 0.000000 1.000000
vn 0.000000 0.000000 1.000000
vn 0.000000 0.000000 1.000000
vn 0.000000 0.000000 1.000000
vn 0.000000 0.000000 1.000000
vn 0.000000 0.000000 1.000000
vn 0.000000 0.000000 1.000000
vn 0.000000 0.000000 1.000000
vn 0.000000 0.000000 1.000000
vn 0.000000 0.000000 1.000000
vn 0.000000 0.000000 1.000000
vn 0.000000 0.000000 1.000000
vn 0.000000 0.000000 1.000000
vn 0.000000 0.000000 1.000000
vn 0.000000 0.000000 1.000000
vn 0.000000 0.000000 1.000000
vn 0.000000 0.000000 1.000000
vn 0.000000 0.000000 1.000000
vn 0.000000 0.000000 1.000000
vn 0.000000 0.000000 1.000000
vn 0.000000 0.000000 1.000000
vn 0.000000 0.000000 1.000000
vn 0.000000 0.000000 1.000000
vn 0.000000 0.000000 1.000000
vn 0.000000 0.000000 1.000000
vn 0.000000 0.000000 1.000000
vn 0.000000 0.000000 1.000000
vn 0.000000 0.000000 1.000000
vn 0.000000 0.000000 1.000000
vn 0.000000 0.000000 1.000000
vn 0.000000 0.000000 1.000000
vn 0.000000 0.000000 1.000000
vn 0.000000 0.000000 1.000000
vn 0.000000 0.000000 1.000000
vn 0.000000 0.000000 1.000000
vn 0.000000 0.000000 1.000000
vn 0.000000 0.000000 1.000000
vn 0.000000 0.000000 1.000000
vn 0.000000 0.000000 1.000000
vn 0.000000 0.000000 1.000000
vn 0.000000 0.000000 1.000000
vn 0.000000 0.000000 1.000000
vn 0.000000 0.000000 1.000000
vn 0.000000 0.000000 1.000000
vn 0.000000 0.000000 1.000000
vn 0.000000 0.000000 1.000000
vn 0.000000 0.000000 1.000000
vn 0.000000 0.000000 1.000000
vn 0.000000 0.000000 1.000000
vn 0.000000 0.000000 1.000000
vn 0.000000 0.000000 1.000000
vn 0.000000 0.000000 1.000000
vn 0.000000 0.000000 1.000000
vn 0.000000 0.000000 1.000000
vn 0.000000 0.000000 1.000000
vn 0.000000 0.000000 1.000000
vn 0.000000 0.000000 1.000000
vn 0.000000 0.000000 1.000000
vn 0.000000 0.000000 1.000000
vn 0.000000 0.000000 1.000000
vn 0.000000 0.000000 1.000000
vn 0.000000 0.000000 1.000000
vn 0.000000 0.000000 1.000000
vn 0.000000 0.000000 1.000000
vn 0.000000 0.000000 1.000000
vn -0.000000 -0.000000 -1.000000
vn -0.000000 -0.000000 -1.000000
vn -0.000000 -0.000000 -1.000000
vn -0.000000 -0.000000 -1.000000
vn -0.000000 -0.000000 -1.000000
vn -0.000000 -0.000000 -1.000000
vn -0.000000 -0.000000 -1.000000
vn -0.000000 -0.000000 -1.000000
vn -0.000000 -0.000000 -1.000000
vn -0.000000 -0.000000 -1.000000
vn -0.000000 -0.000000 -1.000000
vn -0.000000 -0.000000 -1.000000
vn -0.000000 -0.000000 -1.000000
vn -0.000000 -0.000000 -1.000000
vn -0.000000 -0.000000 -1.000000
vn -0.000000 -0.000000 -1.000000
vn -0.000000 -0.000000 -1.000000
vn -0.000000 -0.000000 -1.000000
vn -0.000000 -0.000000 -1.000000
vn -0.000000 -0.000000 -1.000000
vn -0.000000 -0.000000 -1.000000
vn -0.000000 -0.000000 -1.000000
vn -0.000000 -0.000000 -1.000000
vn -0.000000 -0.000000 -1.000000
vn -0.000000 -0.000000 -1.000000
vn -0.000000 -0.000000 -1.000000
vn -0.000000 -0.000000 -1.000000
vn -0.000000 -0.000000 -1.000000
vn -0.000000 -0.000000 -1.000000
vn -0.000000 -0.000000 -1.000000
vn -0.000000 -0.000000 -1.000000
vn -0.000000 -0.000000 -1.000000
vn -0.000000 -0.000000 -1.000000
vn -0.000000 -0.000000 -1.000000
vn -0.000000 -0.000000 -1.000000
vn -0.000000 -0.000000 -1.000000
vn -0.000000 -0.000000 -1.000000
vn -0.000000 -0.000000 -1.000000
vn -0.000000 -0.000000 -1.000000
vn -0.000000 -0.000000 -1.000000
vn -0.000000 -0.000000 -1.000000
vn -0.000000 -0.000000 -1.000000
vn -0.000000 -0.000000 -1.000000
vn -0.000000 -0.000000 -1.000000
vn -0.000000 -0.000000 -1.000000
vn -0.000000 -0.000000 -1.000000
vn -0.000000 -0.000000 -1.000000
vn -0.000000 -0.000000 -1.000000
vn -0.000000 -0.000000 -1.000000
vn -0.000000 -0.000000 -1.000000
vn -0.000000 -0.000000 -1.000000
vn -0.000000 -0.000000 -1.000000
vn -0.000000 -0.000000 -1.000000
vn -0.000000 -0.000000 -1.000000
vn -0.000000 -0.000000 -1.000000
vn -0.000000 -0.000000 -1.000000
vn -0.000000 -0.000000 -1.000000
vn -0.000000 -0.000000 -1.000000
vn -0.000000 -0.000000 -1.000000
vn -0.000000 -0.000000 -1.000000
usemtl Steel_-_Satin
f 2/1/1 24/2/2 1/3/3
f 1/3/3 24/2/2 13/4/4
f 1/5/3 13/6/4 12/7/5
f 12/7/5 13/6/4 14/8/6
f 12/7/5 14/8/6 11/9/7
f 11/9/7 14/8/6 15/10/8
f 11/9/7 15/10/8 10/11/9
f 10/11/9 15/10/8 16/12/10
f 10/11/9 16/12/10 9/13/11
f 9/13/11 16/12/10 17/14/12
f 9/13/11 17/14/12 8/15/13
f 8/15/13 17/14/12 18/16/14
f 8/15/13 18/16/14 7/17/15
f 7/17/15 18/16/14 19/18/16
f 7/17/15 19/18/16 6/19/17
f 6/19/17 19/18/16 20/20/18
f 6/19/17 20/20/18 5/21/19
f 5/21/19 20/20/18 21/22/20
f 5/21/19 21/22/20 4/23/21
f 4/23/21 21/22/20 22/24/22
f 4/23/21 22/24/22 3/25/23
f 3/25/23 22/24/22 23/26/24
f 3/25/23 23/26/24 2/1/1
f 2/1/1 23/26/24 24/2/2
f 12/27/25 8/28/26 1/29/27
f 1/29/27 8/28/26 7/30/28
f 1/29/27 7/30/28 2/31/29
f 2/31/29 7/30/28 6/32/30
f 2/31/29 6/32/30 3/33/31
f 3/33/31 6/32/30 5/34/32
f 3/33/31 5/34/32 4/35/33
f 8/28/26 12/27/25 9/36/34
f 9/36/34 12/27/25 11/37/35
f 9/36/34 11/37/35 10/38/36
f 26/39/37 48/40/38 25/41/39
f 25/41/39 48/40/38 37/42/40
f 25/43/39 37/44/40 36/45/41
f 36/45/41 37/44/40 38/46/42
f 36/45/41 38/46/42 35/47/43
f 35/47/43 38/46/42 39/48/44
f 35/47/43 39/48/44 34/49/45
f 34/49/45 39/48/44 40/50/46
f 34/49/45 40/50/46 33/51/47
f 33/51/47 40/50/46 41/52/48
f 33/51/47 41/52/48 32/53/49
f 32/53/49 41/52/48 42/54/50
f 32/53/49 42/54/50 31/55/51
f 31/55/51 42/54/50 43/56/52
f 31/55/51 43/56/52 30/57/53
f 30/57/53 43/56/52 44/58/54
f 30/57/53 44/58/54 29/59/55
f 29/59/55 44/58/54 45/60/56
f 29/59/55 45/60/56 28/61/57
f 28/61/57 45/60/56 46/62/58
f 28/61/57 46/62/58 27/63/59
f 27/63/59 46/62/58 47/64/60
f 27/63/59 47/64/60 26/39/37
f 26/39/37 47/64/60 48/40/38
f 36/65/61 32/66/62 25/67/63
f 25/67/63 32/66/62 31/68/64
f 25/67/63 31/68/64 26/69/65
f 26/69/65 31/68/64 30/70/66
f 26/69/65 30/70/66 27/71/67
f 27/71/67 30/70/66 29/72/68
f 27/71/67 29/72/68 28/73/69
f 32/66/62 36/65/61 33/74/70
f 33/74/70 36/65/61 35/75/71
f 33/74/70 35/75/71 34/76/72
f 50/77/73 72/78/74 49/79/75
f 49/79/75 72/78/74 61/80/76
f 49/81/75 61/82/76 60/83/77
f 60/83/77 61/82/76 62/84/78
f 60/83/77 62/84/78 59/85/79
f 59/85/79 62/84/78 63/86/80
f 59/85/79 63/86/80 58/87/81
f 58/87/81 63/86/80 64/88/82
f 58/87/81 64/88/82 57/89/83
f 57/89/83 64/88/82 65/90/84
f 57/89/83 65/90/84 56/91/85
f 56/91/85 65/90/84 66/92/86
f 56/91/85 66/92/86 55/93/87
f 55/93/87 66/92/86 67/94/88
f 55/93/87 67/94/88 54/95/89
f 54/95/89 67/94/88 68/96/90
f 54/95/89 68/96/90 53/97/91
f 53/97/91 68/96/90 69/98/92
f 53/97/91 69/98/92 52/99/93
f 52/99/93 69/98/92 70/100/94
f 52/99/93 70/100/94 51/101/95
f 51/101/95 70/100/94 71/102/96
f 51/101/95 71/102/96 50/77/73
f 50/77/73 71/102/96 72/78/74
f 60/103/97 56/104/98 49/105/99
f 49/105/99 56/104/98 55/106/100
f 49/105/99 55/106/100 50/107/101
f 50/107/101 55/106/100 54/108/102
f 50/107/101 54/108/102 51/109/103
f 51/109/103 54/108/102 53/110/104
f 51/109/103 53/110/104 52/111/105
f 56/104/98 60/103/97 57/112/106
f 57/112/106 60/103/97 59/113/107
f 57/112/106 59/113/107 58/114/108
f 74/115/109 75/116/110 73/117/111
f 73/117/111 75/116/110 76/118/112
f 73/117/111 76/118/112 77/119/113
f 78/120/114 77/121/115 79/122/116
f 79/122/116 77/121/115 76/123/117
f 72/124/118 78/125/119 61/126/120
f 61/126/120 78/125/119 79/127/121
f 61/126/120 79/127/121 62/128/122
f 62/128/122 79/127/121 63/129/123
f 63/129/123 79/127/121 64/130/124
f 64/130/124 79/127/121 81/131/125
f 64/130/124 81/131/125 65/132/126
f 65/132/126 81/131/125 66/133/127
f 66/133/127 81/131/125 67/134/128
f 67/134/128 81/131/125 82/135/129
f 67/134/128 82/135/129 80/136/130
f 72/124/118 71/137/131 78/125/119
f 78/125/119 71/137/131 70/138/132
f 78/125/119 70/138/132 80/136/130
f 80/136/130 70/138/132 69/139/133
f 80/136/130 69/139/133 68/140/134
f 68/140/134 67/134/128 80/136/130
f 74/141/135 82/142/136 75/143/137
f 75/143/137 82/142/136 81/144/138
f 81/145/139 79/146/140 75/147/141
f 75/147/141 79/146/140 76/148/142
f 73/149/143 83/150/144 74/151/145
f 74/151/145 83/150/144 84/152/146
f 74/151/145 84/152/146 85/153/147
f 85/153/147 86/154/148 74/151/145
f 74/151/145 86/154/148 82/155/149
f 82/155/149 86/154/148 80/156/150
f 87/157/151 88/158/152 90/159/153
f 90/159/153 88/158/152 89/160/154
f 24/161/155 87/162/156 13/163/157
f 13/163/157 87/162/156 90/164/158
f 13/163/157 90/164/158 14/165/159
f 14/165/159 90/164/158 15/166/160
f 15/166/160 90/164/158 16/167/161
f 16/167/161 90/164/158 92/168/162
f 16/167/161 92/168/162 17/169/163
f 17/169/163 92/168/162 18/170/164
f 18/170/164 92/168/162 19/171/165
f 19/171/165 92/168/162 93/172/166
f 19/171/165 93/172/166 91/173/167
f 24/161/155 23/174/168 87/162/156
f 87/162/156 23/174/168 22/175/169
f 87/162/156 22/175/169 91/173/167
f 91/173/167 22/175/169 21/176/170
f 91/173/167 21/176/170 20/177/171
f 20/177/171 19/171/165 91/173/167
f 94/178/172 93/179/173 95/180/174
f 95/180/174 93/179/173 92/181/175
f 94/182/176 95/183/177 96/184/178
f 96/184/178 95/183/177 89/185/179
f 96/184/178 89/185/179 88/186/180
f 95/187/181 92/188/182 89/189/183
f 89/189/183 92/188/182 90/190/184
f 96/191/185 97/192/186 94/193/187
f 94/193/187 97/192/186 98/194/188
f 94/193/187 98/194/188 99/195/189
f 99/195/189 100/196/190 94/193/187
f 94/193/187 100/196/190 93/197/191
f 93/197/191 100/196/190 91/198/192
f 48/199/193 102/200/194 37/201/195
f 37/201/195 102/200/194 103/202/196
f 37/201/195 103/202/196 38/203/197
f 38/203/197 103/202/196 39/204/198
f 39/204/198 103/202/196 40/205/199
f 40/205/199 103/202/196 104/206/200
f 40/205/199 104/206/200 41/207/201
f 41/207/201 104/206/200 42/208/202
f 42/208/202 104/206/200 43/209/203
f 43/209/203 104/206/200 105/210/204
f 43/209/203 105/210/204 101/211/205
f 48/199/193 47/212/206 102/200/194
f 102/200/194 47/212/206 46/213/207
f 102/200/194 46/213/207 101/211/205
f 101/211/205 46/213/207 45/214/208
f 101/211/205 45/214/208 44/215/209
f 44/215/209 43/209/203 101/211/205
f 106/216/210 105/217/211 107/218/212
f 107/218/212 105/217/211 104/219/213
f 106/220/214 107/221/215 108/222/216
f 108/222/216 107/221/215 109/223/217
f 108/222/216 109/223/217 110/224/218
f 102/225/219 110/226/220 103/227/221
f 103/227/221 110/226/220 109/228/222
f 103/229/223 109/230/224 104/231/225
f 104/231/225 109/230/224 107/232/226
f 108/233/227 111/234/228 106/235/229
f 106/235/229 111/234/228 112/236/230
f 106/235/229 112/236/230 113/237/231
f 113/237/231 114/238/232 106/235/229
f 106/235/229 114/238/232 105/239/233
f 105/239/233 114/238/232 101/240/234
f 116/241/235 97/242/236 115/243/237
f 115/244/237 97/245/236 96/246/238
f 115/244/237 96/246/238 179/247/239
f 179/247/239 96/246/238 212/248/240
f 179/247/239 212/248/240 178/249/241
f 178/249/241 212/248/240 213/250/242
f 178/249/241 213/250/242 177/251/243
f 177/251/243 213/250/242 214/252/244
f 177/251/243 214/252/244 176/253/245
f 176/253/245 214/252/244 215/254/246
f 176/253/245 215/254/246 175/255/247
f 175/255/247 215/254/246 216/256/248
f 175/255/247 216/256/248 174/257/249
f 174/257/249 216/256/248 217/258/250
f 174/257/249 217/258/250 173/259/251
f 173/259/251 217/258/250 218/260/252
f 173/259/251 218/260/252 172/261/253
f 172/261/253 218/260/252 219/262/254
f 172/261/253 219/262/254 171/263/255
f 171/263/255 219/262/254 220/264/256
f 171/263/255 220/264/256 170/265/257
f 170/265/257 220/264/256 221/266/258
f 170/265/257 221/266/258 169/267/259
f 169/267/259 221/266/258 222/268/260
f 169/267/259 222/268/260 168/269/261
f 168/269/261 222/268/260 223/270/262
f 168/269/261 223/270/262 167/271/263
f 167/271/263 223/270/262 224/272/264
f 167/271/263 224/272/264 166/273/265
f 166/273/265 224/272/264 225/274/266
f 166/273/265 225/274/266 165/275/267
f 165/275/267 225/274/266 226/276/268
f 165/275/267 226/276/268 164/277/269
f 164/277/269 226/276/268 227/278/270
f 164/277/269 227/278/270 163/279/271
f 163/279/271 227/278/270 101/280/272
f 163/279/271 101/280/272 162/281/273
f 162/281/273 101/280/272 114/282/274
f 162/281/273 114/282/274 161/283/275
f 161/283/275 114/282/274 113/284/276
f 161/283/275 113/284/276 160/285/277
f 160/285/277 113/284/276 112/286/278
f 160/285/277 112/286/278 159/287/279
f 159/287/279 112/286/278 111/288/280
f 159/287/279 111/288/280 158/289/281
f 158/289/281 111/288/280 108/290/282
f 158/289/281 108/290/282 157/291/283
f 157/291/283 108/290/282 180/292/284
f 157/291/283 180/292/284 156/293/285
f 156/293/285 180/292/284 181/294/286
f 156/293/285 181/294/286 155/295/287
f 155/295/287 181/294/286 182/296/288
f 155/295/287 182/296/288 154/297/289
f 154/297/289 182/296/288 183/298/290
f 154/297/289 183/298/290 153/299/291
f 153/299/291 183/298/290 184/300/292
f 153/299/291 184/300/292 152/301/293
f 152/301/293 184/300/292 185/302/294
f 152/301/293 185/302/294 151/303/295
f 151/303/295 185/302/294 186/304/296
f 151/303/295 186/304/296 150/305/297
f 150/305/297 186/304/296 187/306/298
f 150/305/297 187/306/298 149/307/299
f 149/307/299 187/306/298 188/308/300
f 149/307/299 188/308/300 148/309/301
f 148/309/301 188/308/300 189/310/302
f 148/309/301 189/310/302 147/311/303
f 147/311/303 189/310/302 190/312/304
f 147/311/303 190/312/304 146/313/305
f 146/313/305 190/312/304 191/314/306
f 146/313/305 191/314/306 145/315/307
f 145/315/307 191/314/306 192/316/308
f 145/315/307 192/316/308 144/317/309
f 144/317/309 192/316/308 193/318/310
f 144/317/309 193/318/310 143/319/311
f 143/319/311 193/318/310 194/320/312
f 143/319/311 194/320/312 142/321/313
f 142/321/313 194/320/312 195/322/314
f 142/321/313 195/322/314 141/323/315
f 141/323/315 195/322/314 80/324/316
f 141/323/315 80/324/316 140/325/317
f 140/325/317 80/324/316 86/326/318
f 140/325/317 86/326/318 139/327/319
f 139/327/319 86/326/318 85/328/320
f 139/327/319 85/328/320 138/329/321
f 138/329/321 85/328/320 84/330/322
f 138/329/321 84/330/322 137/331/323
f 137/331/323 84/330/322 83/332/324
f 137/331/323 83/332/324 136/333/325
f 136/333/325 83/332/324 73/334/326
f 136/333/325 73/334/326 135/335/327
f 135/335/327 73/334/326 196/336/328
f 135/335/327 196/336/328 134/337/329
f 134/337/329 196/336/328 197/338/330
f 134/337/329 197/338/330 133/339/331
f 133/339/331 197/338/330 198/340/332
f 133/339/331 198/340/332 132/341/333
f 132/341/333 198/340/332 199/342/334
f 132/341/333 199/342/334 131/343/335
f 131/343/335 199/342/334 200/344/336
f 131/343/335 200/344/336 130/345/337
f 130/345/337 200/344/336 201/346/338
f 130/345/337 201/346/338 129/347/339
f 129/347/339 201/346/338 202/348/340
f 129/347/339 202/348/340 128/349/341
f 128/349/341 202/348/340 203/350/342
f 128/349/341 203/350/342 127/351/343
f 127/351/343 203/350/342 204/352/344
f 127/351/343 204/352/344 126/353/345
f 126/353/345 204/352/344 205/354/346
f 126/353/345 205/354/346 125/355/347
f 125/355/347 205/354/346 206/356/348
f 125/355/347 206/356/348 124/357/349
f 124/357/349 206/356/348 207/358/350
f 124/357/349 207/358/350 123/359/351
f 123/359/351 207/358/350 208/360/352
f 123/359/351 208/360/352 122/361/353
f 122/361/353 208/360/352 209/362/354
f 122/361/353 209/362/354 121/363/355
f 121/363/355 209/362/354 210/364/356
f 121/363/355 210/364/356 211/365/357
f 97/242/236 116/241/235 98/366/358
f 98/366/358 116/241/235 117/367/359
f 98/366/358 117/367/359 99/368/360
f 99/368/360 117/367/359 118/369/361
f 99/368/360 118/369/361 100/370/362
f 100/370/362 118/369/361 119/371/363
f 100/370/362 119/371/363 91/372/364
f 91/372/364 119/371/363 120/373/365
f 91/372/364 120/373/365 211/365/357
f 211/365/357 120/373/365 121/363/355
f 116/374/366 115/375/367 148/376/368
f 148/376/368 115/375/367 179/377/369
f 148/376/368 179/377/369 149/378/370
f 149/378/370 179/377/369 178/379/371
f 149/378/370 178/379/371 150/380/372
f 150/380/372 178/379/371 177/381/373
f 150/380/372 177/381/373 151/382/374
f 151/382/374 177/381/373 176/383/375
f 151/382/374 176/383/375 152/384/376
f 152/384/376 176/383/375 175/385/377
f 152/384/376 175/385/377 153/386/378
f 153/386/378 175/385/377 174/387/379
f 153/386/378 174/387/379 154/388/380
f 154/388/380 174/387/379 173/389/381
f 154/388/380 173/389/381 155/390/382
f 155/390/382 173/389/381 172/391/383
f 155/390/382 172/391/383 156/392/384
f 156/392/384 172/391/383 171/393/385
f 156/392/384 171/393/385 157/394/386
f 157/394/386 171/393/385 170/395/387
f 157/394/386 170/395/387 158/396/388
f 158/396/388 170/395/387 169/397/389
f 158/396/388 169/397/389 159/398/390
f 159/398/390 169/397/389 168/399/391
f 159/398/390 168/399/391 160/400/392
f 160/400/392 168/399/391 167/401/393
f 160/400/392 167/401/393 161/402/394
f 161/402/394 167/401/393 166/403/395
f 161/402/394 166/403/395 162/404/396
f 162/404/396 166/403/395 165/405/397
f 162/404/396 165/405/397 163/406/398
f 163/406/398 165/405/397 164/407/399
f 147/408/400 145/409/401 148/376/368
f 148/376/368 145/409/401 144/410/402
f 148/376/368 144/410/402 143/411/403
f 147/408/400 146/412/404 145/409/401
f 143/411/403 142/413/405 148/376/368
f 148/376/368 142/413/405 141/414/406
f 148/376/368 141/414/406 140/415/407
f 140/415/407 139/416/408 148/376/368
f 148/376/368 139/416/408 138/417/409
f 148/376/368 138/417/409 137/418/410
f 137/418/410 136/419/411 148/376/368
f 148/376/368 136/419/411 135/420/412
f 148/376/368 135/420/412 134/421/413
f 134/421/413 133/422/414 148/376/368
f 148/376/368 133/422/414 132/423/415
f 148/376/368 132/423/415 131/424/416
f 131/424/416 130/425/417 148/376/368
f 148/376/368 130/425/417 129/426/418
f 148/376/368 129/426/418 128/427/419
f 128/427/419 127/428/420 148/376/368
f 148/376/368 127/428/420 126/429/421
f 148/376/368 126/429/421 125/430/422
f 125/430/422 124/431/423 148/376/368
f 148/376/368 124/431/423 123/432/424
f 148/376/368 123/432/424 122/433/425
f 122/433/425 121/434/426 148/376/368
f 148/376/368 121/434/426 120/435/427
f 148/376/368 120/435/427 119/436/428
f 119/436/428 118/437/429 148/376/368
f 148/376/368 118/437/429 117/438/430
f 148/376/368 117/438/430 116/374/366
f 80/439/431 195/440/432 78/441/433
f 78/441/433 195/440/432 194/442/434
f 78/441/433 194/442/434 193/443/435
f 193/443/435 192/444/436 78/441/433
f 78/441/433 192/444/436 191/445/437
f 78/441/433 191/445/437 190/446/438
f 190/446/438 189/447/439 78/441/433
f 78/441/433 189/447/439 188/448/440
f 78/441/433 188/448/440 187/449/441
f 78/441/433 187/449/441 110/450/442
f 110/450/442 187/449/441 186/451/443
f 110/450/442 186/451/443 185/452/444
f 185/452/444 184/453/445 110/450/442
f 110/450/442 184/453/445 183/454/446
f 110/450/442 183/454/446 182/455/447
f 182/455/447 181/456/448 110/450/442
f 110/450/442 181/456/448 180/457/449
f 110/450/442 180/457/449 108/458/450
f 110/450/442 102/459/451 78/441/433
f 78/441/433 102/459/451 87/460/452
f 78/441/433 87/460/452 77/461/453
f 77/461/453 87/460/452 203/462/454
f 77/461/453 203/462/454 202/463/455
f 101/464/456 227/465/457 102/459/451
f 102/459/451 227/465/457 226/466/458
f 102/459/451 226/466/458 225/467/459
f 225/467/459 224/468/460 102/459/451
f 102/459/451 224/468/460 223/469/461
f 102/459/451 223/469/461 222/470/462
f 222/470/462 221/471/463 102/459/451
f 102/459/451 221/471/463 220/472/464
f 102/459/451 220/472/464 219/473/465
f 102/459/451 219/473/465 88/474/466
f 88/474/466 219/473/465 218/475/467
f 88/474/466 218/475/467 217/476/468
f 217/476/468 216/477/469 88/474/466
f 88/474/466 216/477/469 215/478/470
f 88/474/466 215/478/470 214/479/471
f 214/479/471 213/480/472 88/474/466
f 88/474/466 213/480/472 212/481/473
f 88/474/466 212/481/473 96/482/474
f 88/474/466 87/460/452 102/459/451
f 91/483/475 211/484/476 87/460/452
f 87/460/452 211/484/476 210/485/477
f 87/460/452 210/485/477 209/486/478
f 209/486/478 208/487/479 87/460/452
f 87/460/452 208/487/479 207/488/480
f 87/460/452 207/488/480 206/489/481
f 206/489/481 205/490/482 87/460/452
f 87/460/452 205/490/482 204/491/483
f 87/460/452 204/491/483 203/462/454
f 202/463/455 201/492/484 77/461/453
f 77/461/453 201/492/484 200/493/485
f 77/461/453 200/493/485 199/494/486
f 199/494/486 198/495/487 77/461/453
f 77/461/453 198/495/487 197/496/488
f 77/461/453 197/496/488 196/497/489
f 196/497/489 73/498/490 77/461/453
# 227 vertices
# 498 texture params
# 490 normals
# 450 facets

# 1 groups
