# WaveFront *.obj file (generated by Autodesk ATF)

mtllib body1_visual.mtl

g Body1

v -4.288237 0.400000 -1.697861
v -4.214611 0.346410 -1.883816
v -4.160713 0.200000 -2.019944
v -4.140985 0.000000 -2.069770
v -4.160713 -0.200000 -2.019944
v -4.214611 -0.346410 -1.883816
v -4.288237 -0.400000 -1.697861
v -4.361863 -0.346410 -1.511906
v -4.415761 -0.200000 -1.375777
v -4.435489 0.000000 -1.325951
v -4.415761 0.200000 -1.375777
v -4.361863 0.346410 -1.511906
v -4.355928 0.135532 -1.728594
v -4.355928 -0.135532 -1.728594
v -49.072654 0.400000 -19.429554
v -49.146280 0.346410 -19.243599
v -49.200178 0.200000 -19.107471
v -49.219906 0.000000 -19.057644
v -49.200178 -0.200000 -19.107471
v -49.146280 -0.346410 -19.243599
v -49.072654 -0.400000 -19.429554
v -48.999028 -0.346410 -19.615509
v -48.945130 -0.200000 -19.751637
v -48.925402 0.000000 -19.801464
v -48.945130 0.200000 -19.751637
v -48.999028 0.346410 -19.615509
v -49.004963 0.135532 -19.398821
v -49.004963 -0.135532 -19.398821
v -8.359547 0.400000 -3.309833
v -12.430858 0.400000 -4.921805
v -16.502169 0.400000 -6.533777
v -20.573479 0.400000 -8.145749
v -24.644790 0.400000 -9.757721
v -28.716101 0.400000 -11.369693
v -32.787411 0.400000 -12.981666
v -36.858722 0.400000 -14.593638
v -40.930033 0.400000 -16.205610
v -45.001343 0.400000 -17.817582
v -8.433173 0.346410 -3.123878
v -12.504484 0.346410 -4.735850
v -16.575795 0.346410 -6.347822
v -20.647105 0.346410 -7.959794
v -24.718416 0.346410 -9.571766
v -28.789727 0.346410 -11.183739
v -32.861037 0.346410 -12.795711
v -36.932348 0.346410 -14.407683
v -41.003659 0.346410 -16.019655
v -45.074969 0.346410 -17.631627
v -8.487071 0.200000 -2.987749
v -12.558382 0.200000 -4.599722
v -16.629693 0.200000 -6.211694
v -20.701003 0.200000 -7.823666
v -24.772314 0.200000 -9.435638
v -28.843625 0.200000 -11.047610
v -32.914935 0.200000 -12.659582
v -36.986246 0.200000 -14.271554
v -41.057557 0.200000 -15.883526
v -45.128867 0.200000 -17.495499
v -8.506799 0.000000 -2.937923
v -12.578110 0.000000 -4.549895
v -16.649421 0.000000 -6.161867
v -20.720731 0.000000 -7.773839
v -24.792042 0.000000 -9.385811
v -28.863353 0.000000 -10.997784
v -32.934663 0.000000 -12.609756
v -37.005974 0.000000 -14.221728
v -41.077285 0.000000 -15.833700
v -45.148595 0.000000 -17.445672
v -8.487071 -0.200000 -2.987749
v -12.558382 -0.200000 -4.599722
v -16.629693 -0.200000 -6.211694
v -20.701003 -0.200000 -7.823666
v -24.772314 -0.200000 -9.435638
v -28.843625 -0.200000 -11.047610
v -32.914935 -0.200000 -12.659582
v -36.986246 -0.200000 -14.271554
v -41.057557 -0.200000 -15.883526
v -45.128867 -0.200000 -17.495499
v -8.433173 -0.346410 -3.123878
v -12.504484 -0.346410 -4.735850
v -16.575795 -0.346410 -6.347822
v -20.647105 -0.346410 -7.959794
v -24.718416 -0.346410 -9.571766
v -28.789727 -0.346410 -11.183739
v -32.861037 -0.346410 -12.795711
v -36.932348 -0.346410 -14.407683
v -41.003659 -0.346410 -16.019655
v -45.074969 -0.346410 -17.631627
v -8.359547 -0.400000 -3.309833
v -12.430858 -0.400000 -4.921805
v -16.502169 -0.400000 -6.533777
v -20.573479 -0.400000 -8.145749
v -24.644790 -0.400000 -9.757721
v -28.716101 -0.400000 -11.369693
v -32.787411 -0.400000 -12.981666
v -36.858722 -0.400000 -14.593638
v -40.930033 -0.400000 -16.205610
v -45.001343 -0.400000 -17.817582
v -8.285922 -0.346410 -3.495788
v -12.357232 -0.346410 -5.107760
v -16.428543 -0.346410 -6.719732
v -20.499853 -0.346410 -8.331704
v -24.571164 -0.346410 -9.943676
v -28.642475 -0.346410 -11.555648
v -32.713785 -0.346410 -13.167620
v -36.785096 -0.346410 -14.779593
v -40.856407 -0.346410 -16.391565
v -44.927717 -0.346410 -18.003537
v -8.232024 -0.200000 -3.631916
v -12.303334 -0.200000 -5.243888
v -16.374645 -0.200000 -6.855860
v -20.445956 -0.200000 -8.467832
v -24.517266 -0.200000 -10.079805
v -28.588577 -0.200000 -11.691777
v -32.659888 -0.200000 -13.303749
v -36.731198 -0.200000 -14.915721
v -40.802509 -0.200000 -16.527693
v -44.873819 -0.200000 -18.139665
v -8.212296 0.000000 -3.681743
v -12.283606 0.000000 -5.293715
v -16.354917 0.000000 -6.905687
v -20.426228 0.000000 -8.517659
v -24.497538 0.000000 -10.129631
v -28.568849 0.000000 -11.741603
v -32.640160 0.000000 -13.353575
v -36.711470 0.000000 -14.965547
v -40.782781 0.000000 -16.577520
v -44.854091 0.000000 -18.189492
v -8.232024 0.200000 -3.631916
v -12.303334 0.200000 -5.243888
v -16.374645 0.200000 -6.855860
v -20.445956 0.200000 -8.467832
v -24.517266 0.200000 -10.079805
v -28.588577 0.200000 -11.691777
v -32.659888 0.200000 -13.303749
v -36.731198 0.200000 -14.915721
v -40.802509 0.200000 -16.527693
v -44.873819 0.200000 -18.139665
v -8.285922 0.346410 -3.495788
v -12.357232 0.346410 -5.107760
v -16.428543 0.346410 -6.719732
v -20.499853 0.346410 -8.331704
v -24.571164 0.346410 -9.943676
v -28.642475 0.346410 -11.555648
v -32.713785 0.346410 -13.167620
v -36.785096 0.346410 -14.779593
v -40.856407 0.346410 -16.391565
v -44.927717 0.346410 -18.003537
v -3.436084 0.000000 -0.860464
v -3.186084 0.000000 -0.927451
v -3.003072 0.000000 -1.110464
v -2.936084 0.000000 -1.360464
v -3.003072 0.000000 -1.610464
v -3.186084 0.000000 -1.793477
v -3.436084 0.000000 -1.860464
v -3.686084 0.000000 -1.793477
v -3.869097 0.000000 -1.610464
v -3.936084 0.000000 -1.360464
v -3.869097 0.000000 -1.110464
v -3.686084 0.000000 -0.927451
v -3.436084 -0.500000 -1.360464
v -3.436084 -0.250000 -0.927451
v -3.436084 -0.433013 -1.110464
v -3.219578 -0.250000 -0.985464
v -3.311084 -0.433013 -1.143958
v -3.061084 -0.250000 -1.143958
v -3.219578 -0.433013 -1.235464
v -3.003072 -0.250000 -1.360464
v -3.186084 -0.433013 -1.360464
v -3.061084 -0.250000 -1.576971
v -3.219578 -0.433013 -1.485464
v -3.219578 -0.250000 -1.735464
v -3.311084 -0.433013 -1.576971
v -3.436084 -0.250000 -1.793477
v -3.436084 -0.433013 -1.610464
v -3.652591 -0.250000 -1.735464
v -3.561084 -0.433013 -1.576971
v -3.811084 -0.250000 -1.576971
v -3.652591 -0.433013 -1.485464
v -3.869097 -0.250000 -1.360464
v -3.686084 -0.433013 -1.360464
v -3.811084 -0.250000 -1.143958
v -3.652591 -0.433013 -1.235464
v -3.652591 -0.250000 -0.985464
v -3.561084 -0.433013 -1.143958
v -4.088817 0.000000 -2.156668
v -4.113477 0.250000 -2.094385
v -4.180849 0.433013 -1.924225
v -4.272881 0.500000 -1.691781
v -4.364914 0.433013 -1.459337
v -4.432286 0.250000 -1.289177
v -4.456946 0.000000 -1.226894
v -4.425358 0.000000 -1.214387
v -4.288938 0.000000 -0.838314
v -4.016027 0.000000 -0.545807
v -3.650301 0.000000 -0.383678
v -3.250291 0.000000 -0.377875
v -2.880017 0.000000 -0.529327
v -2.598736 0.000000 -0.813795
v -2.451465 0.000000 -1.185753
v -2.461774 0.000000 -1.585671
v -2.628012 0.000000 -1.949548
v -2.923576 0.000000 -2.219146
v -3.301162 0.000000 -2.351320
v -3.700341 0.000000 -2.324917
v -4.057228 0.000000 -2.144161
v -48.935533 0.000000 -19.913028
v -48.903945 0.000000 -19.900521
v -48.928605 0.250000 -19.838238
v -48.995977 0.433013 -19.668077
v -49.088009 0.500000 -19.435634
v -49.180042 0.433013 -19.203190
v -49.247414 0.250000 -19.033030
v -49.272074 0.000000 -18.970746
v -49.303663 0.000000 -18.983254
v -49.279003 -0.250000 -19.045537
v -49.211631 -0.433013 -19.215697
v -49.119598 -0.500000 -19.448141
v -49.027566 -0.433013 -19.680584
v -48.960193 -0.250000 -19.850745
v -4.081888 -0.250000 -2.081878
v -4.149260 -0.433013 -1.911718
v -4.241293 -0.500000 -1.679274
v -4.333325 -0.433013 -1.446830
v -4.400698 -0.250000 -1.276670
v -44.133120 0.500000 -17.473822
v -39.146641 0.500000 -15.499504
v -34.160163 0.500000 -13.525185
v -29.173685 0.500000 -11.550867
v -24.187206 0.500000 -9.576548
v -19.200728 0.500000 -7.602230
v -14.214249 0.500000 -5.627911
v -9.227771 0.500000 -3.653592
v -43.973715 0.250000 -17.876426
v -38.987236 0.250000 -15.902108
v -34.000758 0.250000 -13.927789
v -29.014280 0.250000 -11.953471
v -24.027801 0.250000 -9.979152
v -19.041323 0.250000 -8.004834
v -14.054845 0.250000 -6.030515
v -9.068366 0.250000 -4.056197
v -9.068366 -0.250000 -4.056197
v -14.054845 -0.250000 -6.030515
v -19.041323 -0.250000 -8.004834
v -24.027801 -0.250000 -9.979152
v -29.014280 -0.250000 -11.953471
v -34.000758 -0.250000 -13.927789
v -38.987236 -0.250000 -15.902108
v -43.973715 -0.250000 -17.876426
v -44.041087 0.433013 -17.706266
v -39.054609 0.433013 -15.731947
v -34.068131 0.433013 -13.757629
v -29.081652 0.433013 -11.783310
v -24.095174 0.433013 -9.808992
v -19.108695 0.433013 -7.834673
v -14.122217 0.433013 -5.860355
v -9.135739 0.433013 -3.886036
v -44.225152 0.433013 -17.241379
v -39.238674 0.433013 -15.267060
v -34.252195 0.433013 -13.292742
v -29.265717 0.433013 -11.318423
v -24.279239 0.433013 -9.344104
v -19.292760 0.433013 -7.369786
v -14.306282 0.433013 -5.395467
v -9.319804 0.433013 -3.421149
v -44.292525 0.250000 -17.071218
v -39.306046 0.250000 -15.096900
v -34.319568 0.250000 -13.122581
v -29.333089 0.250000 -11.148262
v -24.346611 0.250000 -9.173944
v -19.360133 0.250000 -7.199625
v -14.373654 0.250000 -5.225307
v -9.387176 0.250000 -3.250988
v -44.292525 -0.250000 -17.071218
v -39.306046 -0.250000 -15.096900
v -34.319568 -0.250000 -13.122581
v -29.333089 -0.250000 -11.148262
v -24.346611 -0.250000 -9.173944
v -19.360133 -0.250000 -7.199625
v -14.373654 -0.250000 -5.225307
v -9.387176 -0.250000 -3.250988
v -44.225152 -0.433013 -17.241379
v -39.238674 -0.433013 -15.267060
v -34.252195 -0.433013 -13.292742
v -29.265717 -0.433013 -11.318423
v -24.279239 -0.433013 -9.344104
v -19.292760 -0.433013 -7.369786
v -14.306282 -0.433013 -5.395467
v -9.319804 -0.433013 -3.421149
v -44.133120 -0.500000 -17.473822
v -39.146641 -0.500000 -15.499504
v -34.160163 -0.500000 -13.525185
v -29.173685 -0.500000 -11.550867
v -24.187206 -0.500000 -9.576548
v -19.200728 -0.500000 -7.602230
v -14.214249 -0.500000 -5.627911
v -9.227771 -0.500000 -3.653592
v -44.041087 -0.433013 -17.706266
v -39.054609 -0.433013 -15.731947
v -34.068131 -0.433013 -13.757629
v -29.081652 -0.433013 -11.783310
v -24.095174 -0.433013 -9.808992
v -19.108695 -0.433013 -7.834673
v -14.122217 -0.433013 -5.860355
v -9.135739 -0.433013 -3.886036
v -49.660550 0.000000 -18.802498
v -50.059729 0.000000 -18.776094
v -50.437315 0.000000 -18.908269
v -50.732879 0.000000 -19.177867
v -50.899117 0.000000 -19.541743
v -50.909426 0.000000 -19.941662
v -50.762155 0.000000 -20.313619
v -50.480874 0.000000 -20.598087
v -50.110599 0.000000 -20.749539
v -49.710590 0.000000 -20.743737
v -49.344864 0.000000 -20.581608
v -49.071953 0.000000 -20.289101
v -49.924806 -1.000000 -19.766950
v -49.924806 -0.382683 -18.843071
v -49.924806 -0.707107 -19.059844
v -49.924806 -0.923880 -19.384267
v -49.071253 -0.382683 -20.120504
v -49.571253 -0.382683 -18.913397
v -49.654208 -0.707107 -19.113669
v -49.778360 -0.923880 -19.413397
v -49.654208 -0.923880 -19.496352
v -49.424806 -0.707107 -19.266950
v -49.271525 -0.382683 -19.113669
v -50.278360 -0.382683 -18.913397
v -50.195404 -0.707107 -19.113669
v -50.071253 -0.923880 -19.413397
v -50.578088 -0.382683 -19.113669
v -50.424806 -0.707107 -19.266950
v -50.195404 -0.923880 -19.496352
v -50.778360 -0.382683 -19.413397
v -50.578088 -0.707107 -19.496352
v -50.278360 -0.923880 -19.620504
v -50.848686 -0.382683 -19.766950
v -50.631913 -0.707107 -19.766950
v -50.307490 -0.923880 -19.766950
v -50.778360 -0.382683 -20.120504
v -50.578088 -0.707107 -20.037549
v -50.278360 -0.923880 -19.913397
v -50.578088 -0.382683 -20.420232
v -50.424806 -0.707107 -20.266950
v -50.195404 -0.923880 -20.037549
v -50.278360 -0.382683 -20.620504
v -50.195404 -0.707107 -20.420232
v -50.071253 -0.923880 -20.120504
v -49.924806 -0.382683 -20.690830
v -49.924806 -0.707107 -20.474057
v -49.924806 -0.923880 -20.149634
v -49.571253 -0.382683 -20.620504
v -49.654208 -0.707107 -20.420232
v -49.778360 -0.923880 -20.120504
v -49.271525 -0.382683 -20.420232
v -49.424806 -0.707107 -20.266950
v -49.654208 -0.923880 -20.037549
v -49.271525 -0.707107 -20.037549
v -49.571253 -0.923880 -19.913397
v -49.000927 -0.382683 -19.766950
v -49.217700 -0.707107 -19.766950
v -49.542123 -0.923880 -19.766950
v -49.271525 -0.707107 -19.496352
v -49.571253 -0.923880 -19.620504
v -49.924806 0.000000 -19.266950
v -50.174806 0.000000 -19.333938
v -50.357819 0.000000 -19.516950
v -50.424806 0.000000 -19.766950
v -50.357819 0.000000 -20.016950
v -50.174806 0.000000 -20.199963
v -49.924806 0.000000 -20.266950
v -49.674806 0.000000 -20.199963
v -49.491794 0.000000 -20.016950
v -49.424806 0.000000 -19.766950
v -49.491794 0.000000 -19.516950
v -49.674806 0.000000 -19.333938
v -49.924806 -0.500000 -19.766950
v -49.924806 -0.250000 -19.333938
v -49.924806 -0.433013 -19.516950
v -49.708300 -0.250000 -19.391950
v -49.799806 -0.433013 -19.550444
v -49.549806 -0.250000 -19.550444
v -49.708300 -0.433013 -19.641950
v -49.491794 -0.250000 -19.766950
v -49.674806 -0.433013 -19.766950
v -49.549806 -0.250000 -19.983457
v -49.708300 -0.433013 -19.891950
v -49.708300 -0.250000 -20.141950
v -49.799806 -0.433013 -19.983457
v -49.924806 -0.250000 -20.199963
v -49.924806 -0.433013 -20.016950
v -50.141313 -0.250000 -20.141950
v -50.049806 -0.433013 -19.983457
v -50.299806 -0.250000 -19.983457
v -50.141313 -0.433013 -19.891950
v -50.357819 -0.250000 -19.766950
v -50.174806 -0.433013 -19.766950
v -50.299806 -0.250000 -19.550444
v -50.141313 -0.433013 -19.641950
v -50.141313 -0.250000 -19.391950
v -50.049806 -0.433013 -19.550444
v -3.436084 -1.000000 -1.360464
v -3.436084 -0.382683 -0.436585
v -3.436084 -0.707107 -0.653357
v -3.436084 -0.923880 -0.977781
v -4.289638 -0.382683 -1.006911
v -3.789638 -0.382683 -2.214018
v -3.706683 -0.707107 -2.013746
v -3.582531 -0.923880 -1.714018
v -3.706683 -0.923880 -1.631062
v -3.936084 -0.707107 -1.860464
v -4.089366 -0.382683 -2.013746
v -3.436084 -0.382683 -2.284344
v -3.436084 -0.707107 -2.067571
v -3.436084 -0.923880 -1.743148
v -3.082531 -0.382683 -2.214018
v -3.165486 -0.707107 -2.013746
v -3.289638 -0.923880 -1.714018
v -2.782803 -0.382683 -2.013746
v -2.936084 -0.707107 -1.860464
v -3.165486 -0.923880 -1.631062
v -2.582531 -0.382683 -1.714018
v -2.782803 -0.707107 -1.631062
v -3.082531 -0.923880 -1.506911
v -2.512205 -0.382683 -1.360464
v -2.728978 -0.707107 -1.360464
v -3.053401 -0.923880 -1.360464
v -2.582531 -0.382683 -1.006911
v -2.782803 -0.707107 -1.089866
v -3.082531 -0.923880 -1.214018
v -2.782803 -0.382683 -0.707183
v -2.936084 -0.707107 -0.860464
v -3.165486 -0.923880 -1.089866
v -3.082531 -0.382683 -0.506911
v -3.165486 -0.707107 -0.707183
v -3.289638 -0.923880 -1.006911
v -3.789638 -0.382683 -0.506911
v -3.706683 -0.707107 -0.707183
v -3.582531 -0.923880 -1.006911
v -4.089366 -0.382683 -0.707183
v -3.936084 -0.707107 -0.860464
v -3.706683 -0.923880 -1.089866
v -4.089366 -0.707107 -1.089866
v -3.789638 -0.923880 -1.214018
v -4.359964 -0.382683 -1.360464
v -4.143191 -0.707107 -1.360464
v -3.818768 -0.923880 -1.360464
v -4.089366 -0.707107 -1.631062
v -3.789638 -0.923880 -1.506911
vt 0.152027 2.588063 0.000000
vt 0.344150 2.512923 0.000000
vt 0.376997 2.784956 0.000000
vt 0.550779 2.531721 0.000000
vt 0.720127 2.670585 0.000000
vt 0.788514 2.920973 0.000000
vt 0.376997 3.056989 0.000000
vt -0.034520 2.920973 0.000000
vt 0.015314 3.108212 0.000000
vt 0.152027 3.253882 0.000000
vt 0.344150 3.329022 0.000000
vt 0.550779 3.310224 0.000000
vt 0.720127 3.171360 0.000000
vt 0.015314 2.733733 0.000000
vt -0.152027 0.332909 0.000000
vt -0.344150 0.408049 0.000000
vt -0.376997 0.136016 0.000000
vt -0.550779 0.389252 0.000000
vt -0.720127 0.250387 0.000000
vt -0.788514 0.000000 0.000000
vt -0.376997 -0.136016 0.000000
vt 0.034520 0.000000 0.000000
vt -0.015314 -0.187240 0.000000
vt -0.152027 -0.332909 0.000000
vt -0.344150 -0.408049 0.000000
vt -0.550779 -0.389252 0.000000
vt -0.720127 -0.250387 0.000000
vt -0.015314 0.187240 0.000000
vt 0.916515 1.047198 0.000000
vt 5.295331 1.047198 0.000000
vt 0.916515 1.256637 0.000000
vt 5.295331 1.256637 0.000000
vt 0.916515 -1.256637 0.000000
vt 5.295331 -1.256637 0.000000
vt 0.916515 -1.047198 0.000000
vt 5.295331 -1.047198 0.000000
vt 0.916515 -0.837758 0.000000
vt 5.295331 -0.837758 0.000000
vt 0.916515 -0.628319 0.000000
vt 5.295331 -0.628319 0.000000
vt 0.916515 -0.418879 0.000000
vt 5.295331 -0.418879 0.000000
vt 0.916515 -0.209440 0.000000
vt 5.295331 -0.209440 0.000000
vt 0.916515 -0.000000 0.000000
vt 5.295331 -0.000000 0.000000
vt 0.916515 0.209440 0.000000
vt 5.295331 0.209440 0.000000
vt 0.916515 0.418879 0.000000
vt 5.295331 0.418879 0.000000
vt 0.916515 0.628319 0.000000
vt 5.295331 0.628319 0.000000
vt 0.916515 0.837758 0.000000
vt 5.295331 0.837758 0.000000
vt 49.083485 -1.047198 0.000000
vt 44.704669 -1.047198 0.000000
vt 49.083485 -1.256637 0.000000
vt 44.704669 -1.256637 0.000000
vt 49.083485 1.256637 0.000000
vt 44.704669 1.256637 0.000000
vt 49.083485 1.047198 0.000000
vt 44.704669 1.047198 0.000000
vt 49.083485 0.837758 0.000000
vt 44.704669 0.837758 0.000000
vt 49.083485 0.628319 0.000000
vt 44.704669 0.628319 0.000000
vt 49.083485 0.418879 0.000000
vt 44.704669 0.418879 0.000000
vt 49.083485 0.209440 0.000000
vt 44.704669 0.209440 0.000000
vt 49.083485 -0.000000 0.000000
vt 44.704669 -0.000000 0.000000
vt 49.083485 -0.209440 0.000000
vt 44.704669 -0.209440 0.000000
vt 49.083485 -0.418879 0.000000
vt 44.704669 -0.418879 0.000000
vt 49.083485 -0.628319 0.000000
vt 44.704669 -0.628319 0.000000
vt 49.083485 -0.837758 0.000000
vt 44.704669 -0.837758 0.000000
vt 9.674146 -1.256637 0.000000
vt 9.674146 -1.047198 0.000000
vt 9.674146 -0.837758 0.000000
vt 9.674146 -0.628319 0.000000
vt 9.674146 -0.418879 0.000000
vt 9.674146 -0.209440 0.000000
vt 9.674146 -0.000000 0.000000
vt 9.674146 0.209440 0.000000
vt 9.674146 0.418879 0.000000
vt 9.674146 0.628319 0.000000
vt 9.674146 0.837758 0.000000
vt 9.674146 1.047198 0.000000
vt 9.674146 1.256637 0.000000
vt 14.052961 -1.256637 0.000000
vt 14.052961 -1.047198 0.000000
vt 14.052961 -0.837758 0.000000
vt 14.052961 -0.628319 0.000000
vt 14.052961 -0.418879 0.000000
vt 14.052961 -0.209440 0.000000
vt 14.052961 -0.000000 0.000000
vt 14.052961 0.209440 0.000000
vt 14.052961 0.418879 0.000000
vt 14.052961 0.628319 0.000000
vt 14.052961 0.837758 0.000000
vt 14.052961 1.047198 0.000000
vt 14.052961 1.256637 0.000000
vt 18.431777 -1.256637 0.000000
vt 18.431777 -1.047198 0.000000
vt 18.431777 -0.837758 0.000000
vt 18.431777 -0.628319 0.000000
vt 18.431777 -0.418879 0.000000
vt 18.431777 -0.209440 0.000000
vt 18.431777 -0.000000 0.000000
vt 18.431777 0.209440 0.000000
vt 18.431777 0.418879 0.000000
vt 18.431777 0.628319 0.000000
vt 18.431777 0.837758 0.000000
vt 18.431777 1.047198 0.000000
vt 18.431777 1.256637 0.000000
vt 22.810592 -1.256637 0.000000
vt 22.810592 -1.047198 0.000000
vt 22.810592 -0.837758 0.000000
vt 22.810592 -0.628319 0.000000
vt 22.810592 -0.418879 0.000000
vt 22.810592 -0.209440 0.000000
vt 22.810592 -0.000000 0.000000
vt 22.810592 0.209440 0.000000
vt 22.810592 0.418879 0.000000
vt 22.810592 0.628319 0.000000
vt 22.810592 0.837758 0.000000
vt 22.810592 1.047198 0.000000
vt 22.810592 1.256637 0.000000
vt 27.189408 -1.256637 0.000000
vt 27.189408 -1.047198 0.000000
vt 27.189408 -0.837758 0.000000
vt 27.189408 -0.628319 0.000000
vt 27.189408 -0.418879 0.000000
vt 27.189408 -0.209440 0.000000
vt 27.189408 -0.000000 0.000000
vt 27.189408 0.209440 0.000000
vt 27.189408 0.418879 0.000000
vt 27.189408 0.628319 0.000000
vt 27.189408 0.837758 0.000000
vt 27.189408 1.047198 0.000000
vt 27.189408 1.256637 0.000000
vt 31.568223 -1.256637 0.000000
vt 31.568223 -1.047198 0.000000
vt 31.568223 -0.837758 0.000000
vt 31.568223 -0.628319 0.000000
vt 31.568223 -0.418879 0.000000
vt 31.568223 -0.209440 0.000000
vt 31.568223 -0.000000 0.000000
vt 31.568223 0.209440 0.000000
vt 31.568223 0.418879 0.000000
vt 31.568223 0.628319 0.000000
vt 31.568223 0.837758 0.000000
vt 31.568223 1.047198 0.000000
vt 31.568223 1.256637 0.000000
vt 35.947039 -1.256637 0.000000
vt 35.947039 -1.047198 0.000000
vt 35.947039 -0.837758 0.000000
vt 35.947039 -0.628319 0.000000
vt 35.947039 -0.418879 0.000000
vt 35.947039 -0.209440 0.000000
vt 35.947039 -0.000000 0.000000
vt 35.947039 0.209440 0.000000
vt 35.947039 0.418879 0.000000
vt 35.947039 0.628319 0.000000
vt 35.947039 0.837758 0.000000
vt 35.947039 1.047198 0.000000
vt 35.947039 1.256637 0.000000
vt 40.325854 -1.256637 0.000000
vt 40.325854 -1.047198 0.000000
vt 40.325854 -0.837758 0.000000
vt 40.325854 -0.628319 0.000000
vt 40.325854 -0.418879 0.000000
vt 40.325854 -0.209440 0.000000
vt 40.325854 -0.000000 0.000000
vt 40.325854 0.209440 0.000000
vt 40.325854 0.418879 0.000000
vt 40.325854 0.628319 0.000000
vt 40.325854 0.837758 0.000000
vt 40.325854 1.047198 0.000000
vt 40.325854 1.256637 0.000000
vt 0.000000 -0.925601 0.000000
vt -0.261799 -0.925601 0.000000
vt 0.000000 -1.110721 0.000000
vt -0.261799 -1.110721 0.000000
vt 0.000000 1.110721 0.000000
vt -0.261799 1.110721 0.000000
vt 0.000000 0.925601 0.000000
vt -0.261799 0.925601 0.000000
vt 0.000000 0.740480 0.000000
vt -0.261799 0.740480 0.000000
vt 0.000000 0.555360 0.000000
vt -0.261799 0.555360 0.000000
vt 0.000000 0.370240 0.000000
vt -0.261799 0.370240 0.000000
vt 0.000000 0.185120 0.000000
vt -0.261799 0.185120 0.000000
vt 0.000000 0.000000 0.000000
vt -0.261799 0.000000 0.000000
vt 0.000000 -0.185120 0.000000
vt -0.261799 -0.185120 0.000000
vt 0.000000 -0.370240 0.000000
vt -0.261799 -0.370240 0.000000
vt 0.000000 -0.555360 0.000000
vt -0.261799 -0.555360 0.000000
vt 0.000000 -0.740480 0.000000
vt -0.261799 -0.740480 0.000000
vt -0.523599 1.110721 0.000000
vt -0.785398 1.110721 0.000000
vt -0.523599 0.925601 0.000000
vt -0.785398 0.925601 0.000000
vt -0.523599 0.740480 0.000000
vt -0.785398 0.740480 0.000000
vt -0.523599 0.555360 0.000000
vt -0.785398 0.555360 0.000000
vt -0.523599 0.370240 0.000000
vt -0.523599 0.185120 0.000000
vt -0.785398 0.185120 0.000000
vt -0.523599 0.000000 0.000000
vt -0.785398 0.000000 0.000000
vt -0.523599 -0.185120 0.000000
vt -0.785398 -0.185120 0.000000
vt -0.523599 -0.370240 0.000000
vt -0.523599 -0.555360 0.000000
vt -0.785398 -0.555360 0.000000
vt -0.523599 -0.740480 0.000000
vt -0.785398 -0.740480 0.000000
vt -0.523599 -0.925601 0.000000
vt -0.785398 -0.925601 0.000000
vt -0.523599 -1.110721 0.000000
vt -0.785398 -0.370240 0.000000
vt -0.785398 0.370240 0.000000
vt -0.517023 -0.520309 0.000000
vt 0.482977 -0.520309 0.000000
vt -0.450036 -0.270309 0.000000
vt 0.415990 -0.270309 0.000000
vt -0.267023 -0.087297 0.000000
vt 0.232977 -0.087297 0.000000
vt -0.017023 -0.020309 0.000000
vt -1.528682 1.073039 0.000000
vt -2.021096 0.839589 0.000000
vt -1.498933 0.815935 0.000000
vt -1.879236 0.465534 0.000000
vt -1.344617 0.608152 0.000000
vt -1.602110 0.177016 0.000000
vt -1.107084 0.505363 0.000000
vt -1.234071 0.020209 0.000000
vt -0.834020 0.020209 0.000000
vt -2.004987 1.239316 0.000000
vt -1.425894 1.310572 0.000000
vt -1.833488 1.600742 0.000000
vt -1.534046 1.866025 0.000000
vt -1.218110 1.464887 0.000000
vt -0.961007 1.494637 0.000000
vt -0.723474 1.391848 0.000000
vt -0.534046 1.866025 0.000000
vt -0.534046 1.900000 0.000000
vt -1.534046 1.900000 0.000000
vt -0.234603 1.600742 0.000000
vt -0.569158 1.184065 0.000000
vt -0.063104 1.239316 0.000000
vt -0.539409 0.926961 0.000000
vt -0.046995 0.839589 0.000000
vt -0.188856 0.465534 0.000000
vt -0.642197 0.689428 0.000000
vt -0.465981 0.177016 0.000000
vt -0.849981 0.535113 0.000000
vt -49.133975 -0.785398 0.000000
vt -49.100000 -0.785398 0.000000
vt -49.133975 -0.523599 0.000000
vt -43.770869 -0.523599 0.000000
vt -49.133975 -0.261799 0.000000
vt -43.770869 -0.261799 0.000000
vt -49.133975 -0.000000 0.000000
vt -43.770869 -0.000000 0.000000
vt -49.133975 0.261799 0.000000
vt -43.770869 0.261799 0.000000
vt -49.133975 0.523599 0.000000
vt -43.770869 0.523599 0.000000
vt -49.100000 0.785398 0.000000
vt -43.770869 1.047198 0.000000
vt -49.100000 1.047198 0.000000
vt -49.100000 1.308997 0.000000
vt -43.770869 1.308997 0.000000
vt -49.100000 1.570796 0.000000
vt -43.770869 1.570796 0.000000
vt -49.100000 -1.570796 0.000000
vt -43.770869 -1.570796 0.000000
vt -49.100000 -1.308997 0.000000
vt -43.770869 -1.308997 0.000000
vt -49.100000 -1.047198 0.000000
vt -43.770869 -1.047198 0.000000
vt -49.133975 0.785398 0.000000
vt -0.866025 0.785398 0.000000
vt -0.900000 0.785398 0.000000
vt -0.866025 0.523599 0.000000
vt -6.229131 0.523599 0.000000
vt -0.866025 0.261799 0.000000
vt -6.229131 0.261799 0.000000
vt -0.866025 -0.000000 0.000000
vt -6.229131 -0.000000 0.000000
vt -0.866025 -0.261799 0.000000
vt -6.229131 -0.261799 0.000000
vt -0.866025 -0.523599 0.000000
vt -6.229131 -0.523599 0.000000
vt -0.900000 -0.785398 0.000000
vt -6.229131 -1.047198 0.000000
vt -0.900000 -1.047198 0.000000
vt -0.900000 -1.308997 0.000000
vt -6.229131 -1.308997 0.000000
vt -0.900000 -1.570796 0.000000
vt -6.229131 -1.570796 0.000000
vt -0.900000 1.570796 0.000000
vt -6.229131 1.570796 0.000000
vt -0.900000 1.308997 0.000000
vt -6.229131 1.308997 0.000000
vt -0.900000 1.047198 0.000000
vt -6.229131 1.047198 0.000000
vt -0.866025 -0.785398 0.000000
vt -38.407764 -1.570796 0.000000
vt -38.407764 -1.308997 0.000000
vt -38.407764 -1.047198 0.000000
vt -38.407764 -0.523599 0.000000
vt -38.407764 -0.261799 0.000000
vt -38.407764 -0.000000 0.000000
vt -38.407764 0.261799 0.000000
vt -38.407764 0.523599 0.000000
vt -38.407764 1.047198 0.000000
vt -38.407764 1.308997 0.000000
vt -38.407764 1.570796 0.000000
vt -33.044658 -1.570796 0.000000
vt -33.044658 -1.308997 0.000000
vt -33.044658 -1.047198 0.000000
vt -33.044658 -0.523599 0.000000
vt -33.044658 -0.261799 0.000000
vt -33.044658 -0.000000 0.000000
vt -33.044658 0.261799 0.000000
vt -33.044658 0.523599 0.000000
vt -33.044658 1.047198 0.000000
vt -33.044658 1.308997 0.000000
vt -33.044658 1.570796 0.000000
vt -27.681553 -1.570796 0.000000
vt -27.681553 -1.308997 0.000000
vt -27.681553 -1.047198 0.000000
vt -27.681553 -0.523599 0.000000
vt -27.681553 -0.261799 0.000000
vt -27.681553 -0.000000 0.000000
vt -27.681553 0.261799 0.000000
vt -27.681553 0.523599 0.000000
vt -27.681553 1.047198 0.000000
vt -27.681553 1.308997 0.000000
vt -27.681553 1.570796 0.000000
vt -22.318447 -1.570796 0.000000
vt -22.318447 -1.308997 0.000000
vt -22.318447 -1.047198 0.000000
vt -22.318447 -0.523599 0.000000
vt -22.318447 -0.261799 0.000000
vt -22.318447 -0.000000 0.000000
vt -22.318447 0.261799 0.000000
vt -22.318447 0.523599 0.000000
vt -22.318447 1.047198 0.000000
vt -22.318447 1.308997 0.000000
vt -22.318447 1.570796 0.000000
vt -16.955342 -1.570796 0.000000
vt -16.955342 -1.308997 0.000000
vt -16.955342 -1.047198 0.000000
vt -16.955342 -0.523599 0.000000
vt -16.955342 -0.261799 0.000000
vt -16.955342 -0.000000 0.000000
vt -16.955342 0.261799 0.000000
vt -16.955342 0.523599 0.000000
vt -16.955342 1.047198 0.000000
vt -16.955342 1.308997 0.000000
vt -16.955342 1.570796 0.000000
vt -11.592236 -1.570796 0.000000
vt -11.592236 -1.308997 0.000000
vt -11.592236 -1.047198 0.000000
vt -11.592236 -0.523599 0.000000
vt -11.592236 -0.261799 0.000000
vt -11.592236 -0.000000 0.000000
vt -11.592236 0.261799 0.000000
vt -11.592236 0.523599 0.000000
vt -11.592236 1.047198 0.000000
vt -11.592236 1.308997 0.000000
vt -11.592236 1.570796 0.000000
vt 0.252680 -1.705146 0.000000
vt -0.000000 -1.747538 0.000000
vt 0.392699 -1.943761 0.000000
vt -0.000000 -2.032338 0.000000
vt 0.392699 -2.221441 0.000000
vt 0.392699 2.221441 0.000000
vt -0.000000 2.410545 0.000000
vt -0.000000 2.125745 0.000000
vt 0.392699 1.943761 0.000000
vt -0.000000 1.840944 0.000000
vt 0.392699 1.666081 0.000000
vt -0.000000 1.556144 0.000000
vt 0.392699 1.388401 0.000000
vt -0.000000 1.271344 0.000000
vt 0.392699 1.110721 0.000000
vt -0.000000 0.986544 0.000000
vt 0.392699 0.833041 0.000000
vt -0.000000 0.701744 0.000000
vt 0.392699 0.555360 0.000000
vt -0.000000 0.416944 0.000000
vt 0.392699 0.277680 0.000000
vt -0.000000 0.132143 0.000000
vt 0.392699 0.000000 0.000000
vt -0.000000 -0.152657 0.000000
vt 0.392699 -0.277680 0.000000
vt -0.000000 -0.437457 0.000000
vt 0.392699 -0.555360 0.000000
vt -0.000000 -0.722257 0.000000
vt 0.392699 -0.833041 0.000000
vt -0.000000 -1.007057 0.000000
vt 0.252680 -1.049449 0.000000
vt 0.392699 -1.110721 0.000000
vt 0.447832 -1.178576 0.000000
vt 0.785398 -1.110721 0.000000
vt 0.523599 -1.377298 0.000000
vt 0.785398 -1.388401 0.000000
vt 0.447832 -1.576019 0.000000
vt 0.785398 -1.666081 0.000000
vt 0.392699 -1.666081 0.000000
vt 0.785398 -1.943761 0.000000
vt 0.785398 -2.221441 0.000000
vt 0.785398 2.221441 0.000000
vt 0.785398 1.943761 0.000000
vt 0.785398 1.666081 0.000000
vt 0.785398 1.388401 0.000000
vt 0.785398 1.110721 0.000000
vt 0.785398 0.833041 0.000000
vt 0.785398 0.555360 0.000000
vt 0.785398 0.277680 0.000000
vt 0.785398 0.000000 0.000000
vt 0.785398 -0.277680 0.000000
vt 0.785398 -0.555360 0.000000
vt 0.785398 -0.833041 0.000000
vt 1.178097 -2.221441 0.000000
vt 1.570796 -2.221441 0.000000
vt 1.178097 -1.943761 0.000000
vt 1.570796 -1.943761 0.000000
vt 1.178097 -1.666081 0.000000
vt 1.570796 -1.666081 0.000000
vt 1.178097 -1.388401 0.000000
vt 1.570796 -1.388401 0.000000
vt 1.178097 -1.110721 0.000000
vt 1.570796 -1.110721 0.000000
vt 1.178097 -0.833041 0.000000
vt 1.178097 -0.555360 0.000000
vt 1.570796 -0.555360 0.000000
vt 1.178097 -0.277680 0.000000
vt 1.570796 -0.277680 0.000000
vt 1.178097 0.000000 0.000000
vt 1.570796 0.000000 0.000000
vt 1.178097 0.277680 0.000000
vt 1.570796 0.277680 0.000000
vt 1.178097 0.555360 0.000000
vt 1.178097 0.833041 0.000000
vt 1.570796 0.833041 0.000000
vt 1.178097 1.110721 0.000000
vt 1.570796 1.110721 0.000000
vt 1.178097 1.388401 0.000000
vt 1.570796 1.388401 0.000000
vt 1.178097 1.666081 0.000000
vt 1.570796 1.666081 0.000000
vt 1.178097 1.943761 0.000000
vt 1.570796 1.943761 0.000000
vt 1.178097 2.221441 0.000000
vt 1.570796 -0.740480 0.000000
vt 1.570796 0.740480 0.000000
vt -0.505363 0.926961 0.000000
vt -0.029058 1.239316 0.000000
vt -0.535113 1.184065 0.000000
vt -0.200557 1.600742 0.000000
vt -0.689428 1.391848 0.000000
vt -0.500000 1.866025 0.000000
vt -0.926961 1.494637 0.000000
vt -0.500000 1.900000 0.000000
vt -1.500000 1.900000 0.000000
vt -0.608152 0.689428 0.000000
vt -0.154810 0.465534 0.000000
vt -0.012950 0.839589 0.000000
vt -0.431935 0.177016 0.000000
vt -0.815935 0.535113 0.000000
vt -0.799974 0.020209 0.000000
vt -1.073039 0.505363 0.000000
vt -1.200026 0.020209 0.000000
vt -1.568065 0.177016 0.000000
vt -1.310572 0.608152 0.000000
vt -1.845190 0.465534 0.000000
vt -1.464887 0.815935 0.000000
vt -1.987050 0.839589 0.000000
vt -1.494637 1.073039 0.000000
vt -1.970942 1.239316 0.000000
vt -1.391848 1.310572 0.000000
vt -1.799443 1.600742 0.000000
vt -1.500000 1.866025 0.000000
vt -1.184065 1.464887 0.000000
vt -0.500000 -0.500000 0.000000
vt 0.500000 -0.500000 0.000000
vt -0.433013 -0.250000 0.000000
vt 0.433013 -0.250000 0.000000
vt -0.250000 -0.066987 0.000000
vt 0.250000 -0.066987 0.000000
vt -0.000000 -0.000000 0.000000
vt 0.000000 -0.925601 0.000000
vt -0.261799 -0.925601 0.000000
vt 0.000000 -1.110721 0.000000
vt -0.261799 -1.110721 0.000000
vt 0.000000 1.110721 0.000000
vt -0.261799 1.110721 0.000000
vt 0.000000 0.925601 0.000000
vt -0.261799 0.925601 0.000000
vt 0.000000 0.740480 0.000000
vt -0.261799 0.740480 0.000000
vt 0.000000 0.555360 0.000000
vt -0.261799 0.555360 0.000000
vt 0.000000 0.370240 0.000000
vt -0.261799 0.370240 0.000000
vt 0.000000 0.185120 0.000000
vt -0.261799 0.185120 0.000000
vt 0.000000 0.000000 0.000000
vt -0.261799 0.000000 0.000000
vt 0.000000 -0.185120 0.000000
vt -0.261799 -0.185120 0.000000
vt 0.000000 -0.370240 0.000000
vt -0.261799 -0.370240 0.000000
vt 0.000000 -0.555360 0.000000
vt -0.261799 -0.555360 0.000000
vt 0.000000 -0.740480 0.000000
vt -0.261799 -0.740480 0.000000
vt -0.523599 1.110721 0.000000
vt -0.785398 1.110721 0.000000
vt -0.523599 0.925601 0.000000
vt -0.785398 0.925601 0.000000
vt -0.523599 0.740480 0.000000
vt -0.785398 0.740480 0.000000
vt -0.523599 0.555360 0.000000
vt -0.785398 0.555360 0.000000
vt -0.523599 0.370240 0.000000
vt -0.523599 0.185120 0.000000
vt -0.785398 0.185120 0.000000
vt -0.523599 0.000000 0.000000
vt -0.785398 0.000000 0.000000
vt -0.523599 -0.185120 0.000000
vt -0.785398 -0.185120 0.000000
vt -0.523599 -0.370240 0.000000
vt -0.523599 -0.555360 0.000000
vt -0.785398 -0.555360 0.000000
vt -0.523599 -0.740480 0.000000
vt -0.785398 -0.740480 0.000000
vt -0.523599 -0.925601 0.000000
vt -0.785398 -0.925601 0.000000
vt -0.523599 -1.110721 0.000000
vt -0.785398 -0.370240 0.000000
vt -0.785398 0.370240 0.000000
vt 0.252680 0.516295 0.000000
vt -0.000000 0.473904 0.000000
vt 0.392699 0.277680 0.000000
vt -0.000000 0.189103 0.000000
vt 0.392699 0.000000 0.000000
vt -0.000000 -0.095697 0.000000
vt 0.392699 -0.277680 0.000000
vt -0.000000 -0.380497 0.000000
vt 0.392699 -0.555360 0.000000
vt -0.000000 -0.665297 0.000000
vt 0.392699 -0.833041 0.000000
vt -0.000000 -0.950097 0.000000
vt 0.392699 -1.110721 0.000000
vt -0.000000 -1.234898 0.000000
vt 0.392699 -1.388401 0.000000
vt -0.000000 -1.519698 0.000000
vt 0.392699 -1.666081 0.000000
vt -0.000000 -1.804498 0.000000
vt 0.392699 -1.943761 0.000000
vt -0.000000 -2.089298 0.000000
vt 0.392699 -2.221441 0.000000
vt 0.392699 2.221441 0.000000
vt -0.000000 2.353585 0.000000
vt -0.000000 2.068785 0.000000
vt 0.392699 1.943761 0.000000
vt -0.000000 1.783984 0.000000
vt 0.392699 1.666081 0.000000
vt -0.000000 1.499184 0.000000
vt 0.392699 1.388401 0.000000
vt -0.000000 1.214384 0.000000
vt 0.252680 1.171992 0.000000
vt 0.392699 1.110721 0.000000
vt 0.447832 1.042866 0.000000
vt 0.785398 1.110721 0.000000
vt 0.523599 0.844144 0.000000
vt 0.785398 0.833041 0.000000
vt 0.447832 0.645422 0.000000
vt 0.785398 0.555360 0.000000
vt 0.392699 0.555360 0.000000
vt 0.785398 0.277680 0.000000
vt 0.785398 0.000000 0.000000
vt 0.785398 -0.277680 0.000000
vt 0.785398 -0.555360 0.000000
vt 0.785398 -0.833041 0.000000
vt 0.785398 -1.110721 0.000000
vt 0.785398 -1.388401 0.000000
vt 0.785398 -1.666081 0.000000
vt 0.785398 -1.943761 0.000000
vt 0.785398 -2.221441 0.000000
vt 0.785398 2.221441 0.000000
vt 0.785398 1.943761 0.000000
vt 0.785398 1.666081 0.000000
vt 0.785398 1.388401 0.000000
vt 1.178097 -2.221441 0.000000
vt 1.570796 -2.221441 0.000000
vt 1.178097 -1.943761 0.000000
vt 1.570796 -1.943761 0.000000
vt 1.178097 -1.666081 0.000000
vt 1.570796 -1.666081 0.000000
vt 1.178097 -1.388401 0.000000
vt 1.570796 -1.388401 0.000000
vt 1.178097 -1.110721 0.000000
vt 1.570796 -1.110721 0.000000
vt 1.178097 -0.833041 0.000000
vt 1.178097 -0.555360 0.000000
vt 1.570796 -0.555360 0.000000
vt 1.178097 -0.277680 0.000000
vt 1.570796 -0.277680 0.000000
vt 1.178097 0.000000 0.000000
vt 1.570796 0.000000 0.000000
vt 1.178097 0.277680 0.000000
vt 1.570796 0.277680 0.000000
vt 1.178097 0.555360 0.000000
vt 1.178097 0.833041 0.000000
vt 1.570796 0.833041 0.000000
vt 1.178097 1.110721 0.000000
vt 1.570796 1.110721 0.000000
vt 1.178097 1.388401 0.000000
vt 1.570796 1.388401 0.000000
vt 1.178097 1.666081 0.000000
vt 1.570796 1.666081 0.000000
vt 1.178097 1.943761 0.000000
vt 1.570796 1.943761 0.000000
vt 1.178097 2.221441 0.000000
vt 1.570796 -0.740480 0.000000
vt 1.570796 0.740480 0.000000
vn -0.925778 0.346410 -0.151442
vn -0.852152 0.400000 -0.337396
vn -0.919843 0.135532 -0.368130
vn -0.778526 0.346410 -0.523351
vn -0.724628 0.200000 -0.659480
vn -0.704900 0.000000 -0.709306
vn -0.919843 -0.135532 -0.368130
vn -0.999404 0.000000 0.034513
vn -0.979676 -0.200000 -0.015313
vn -0.925778 -0.346410 -0.151442
vn -0.852152 -0.400000 -0.337396
vn -0.778526 -0.346410 -0.523351
vn -0.724628 -0.200000 -0.659480
vn -0.979676 0.200000 -0.015313
vn 0.925778 0.346410 0.151442
vn 0.852152 0.400000 0.337396
vn 0.919843 0.135532 0.368130
vn 0.778526 0.346410 0.523351
vn 0.724628 0.200000 0.659480
vn 0.704900 0.000000 0.709306
vn 0.919843 -0.135532 0.368130
vn 0.999404 0.000000 -0.034513
vn 0.979676 -0.200000 0.015313
vn 0.925778 -0.346410 0.151442
vn 0.852152 -0.400000 0.337396
vn 0.778526 -0.346410 0.523351
vn 0.724628 -0.200000 0.659480
vn 0.979676 0.200000 0.015313
vn 0.184065 -0.866025 -0.464887
vn 0.184065 -0.866025 -0.464887
vn -0.000000 -1.000000 -0.000000
vn -0.000000 -1.000000 -0.000000
vn -0.184065 -0.866025 0.464887
vn -0.184065 -0.866025 0.464887
vn -0.318810 -0.500000 0.805208
vn -0.318810 -0.500000 0.805208
vn -0.368130 0.000000 0.929774
vn -0.368130 -0.000000 0.929774
vn -0.318810 0.500000 0.805208
vn -0.318810 0.500000 0.805208
vn -0.184065 0.866025 0.464887
vn -0.184065 0.866025 0.464887
vn 0.000000 1.000000 0.000000
vn -0.000000 1.000000 0.000000
vn 0.184065 0.866025 -0.464887
vn 0.184065 0.866025 -0.464887
vn 0.318810 0.500000 -0.805208
vn 0.318810 0.500000 -0.805208
vn 0.368130 0.000000 -0.929774
vn 0.368130 0.000000 -0.929774
vn 0.318810 -0.500000 -0.805208
vn 0.318810 -0.500000 -0.805208
vn -0.184065 -0.866025 0.464887
vn -0.184065 -0.866025 0.464887
vn -0.000000 -1.000000 0.000000
vn -0.000000 -1.000000 0.000000
vn 0.184065 -0.866025 -0.464887
vn 0.184065 -0.866025 -0.464887
vn 0.318810 -0.500000 -0.805208
vn 0.318810 -0.500000 -0.805208
vn 0.368130 0.000000 -0.929774
vn 0.368130 0.000000 -0.929774
vn 0.318810 0.500000 -0.805208
vn 0.318810 0.500000 -0.805208
vn 0.184065 0.866025 -0.464887
vn 0.184065 0.866025 -0.464887
vn -0.000000 1.000000 0.000000
vn -0.000000 1.000000 0.000000
vn -0.184065 0.866025 0.464887
vn -0.184065 0.866025 0.464887
vn -0.318810 0.500000 0.805208
vn -0.318810 0.500000 0.805208
vn -0.368130 -0.000000 0.929774
vn -0.368130 -0.000000 0.929774
vn -0.318810 -0.500000 0.805208
vn -0.318810 -0.500000 0.805208
vn -0.000000 -1.000000 0.000000
vn -0.184065 -0.866025 0.464887
vn -0.318810 -0.500000 0.805208
vn -0.368130 -0.000000 0.929774
vn -0.318810 0.500000 0.805208
vn -0.184065 0.866025 0.464887
vn -0.000000 1.000000 0.000000
vn 0.184065 0.866025 -0.464887
vn 0.318810 0.500000 -0.805208
vn 0.368130 0.000000 -0.929774
vn 0.318810 -0.500000 -0.805208
vn 0.184065 -0.866025 -0.464887
vn -0.000000 -1.000000 0.000000
vn -0.184065 -0.866025 0.464887
vn -0.318810 -0.500000 0.805208
vn -0.368130 -0.000000 0.929774
vn -0.318810 0.500000 0.805208
vn -0.184065 0.866025 0.464887
vn -0.000000 1.000000 0.000000
vn 0.184065 0.866025 -0.464887
vn 0.318810 0.500000 -0.805208
vn 0.368130 0.000000 -0.929774
vn 0.318810 -0.500000 -0.805208
vn 0.184065 -0.866025 -0.464887
vn -0.000000 -1.000000 0.000000
vn -0.184065 -0.866025 0.464887
vn -0.318810 -0.500000 0.805208
vn -0.368130 -0.000000 0.929774
vn -0.318810 0.500000 0.805208
vn -0.184065 0.866025 0.464887
vn -0.000000 1.000000 0.000000
vn 0.184065 0.866025 -0.464887
vn 0.318810 0.500000 -0.805208
vn 0.368130 0.000000 -0.929774
vn 0.318810 -0.500000 -0.805208
vn 0.184065 -0.866025 -0.464887
vn -0.000000 -1.000000 0.000000
vn -0.184065 -0.866025 0.464887
vn -0.318810 -0.500000 0.805208
vn -0.368130 -0.000000 0.929774
vn -0.318810 0.500000 0.805208
vn -0.184065 0.866025 0.464887
vn -0.000000 1.000000 0.000000
vn 0.184065 0.866025 -0.464887
vn 0.318810 0.500000 -0.805208
vn 0.368130 0.000000 -0.929774
vn 0.318810 -0.500000 -0.805208
vn 0.184065 -0.866025 -0.464887
vn -0.000000 -1.000000 0.000000
vn -0.184065 -0.866025 0.464887
vn -0.318810 -0.500000 0.805208
vn -0.368130 -0.000000 0.929774
vn -0.318810 0.500000 0.805208
vn -0.184065 0.866025 0.464887
vn -0.000000 1.000000 0.000000
vn 0.184065 0.866025 -0.464887
vn 0.318810 0.500000 -0.805208
vn 0.368130 0.000000 -0.929774
vn 0.318810 -0.500000 -0.805208
vn 0.184065 -0.866025 -0.464887
vn -0.000000 -1.000000 0.000000
vn -0.184065 -0.866025 0.464887
vn -0.318810 -0.500000 0.805208
vn -0.368130 -0.000000 0.929774
vn -0.318810 0.500000 0.805208
vn -0.184065 0.866025 0.464887
vn -0.000000 1.000000 0.000000
vn 0.184065 0.866025 -0.464887
vn 0.318810 0.500000 -0.805208
vn 0.368130 0.000000 -0.929774
vn 0.318810 -0.500000 -0.805208
vn 0.184065 -0.866025 -0.464887
vn -0.000000 -1.000000 0.000000
vn -0.184065 -0.866025 0.464887
vn -0.318810 -0.500000 0.805208
vn -0.368130 -0.000000 0.929774
vn -0.318810 0.500000 0.805208
vn -0.184065 0.866025 0.464887
vn -0.000000 1.000000 0.000000
vn 0.184065 0.866025 -0.464887
vn 0.318810 0.500000 -0.805208
vn 0.368130 0.000000 -0.929774
vn 0.318810 -0.500000 -0.805208
vn 0.184065 -0.866025 -0.464887
vn -0.000000 -1.000000 0.000000
vn -0.184065 -0.866025 0.464887
vn -0.318810 -0.500000 0.805208
vn -0.368130 -0.000000 0.929774
vn -0.318810 0.500000 0.805208
vn -0.184065 0.866025 0.464887
vn -0.000000 1.000000 0.000000
vn 0.184065 0.866025 -0.464887
vn 0.318810 0.500000 -0.805208
vn 0.368130 0.000000 -0.929774
vn 0.318810 -0.500000 -0.805208
vn 0.184065 -0.866025 -0.464887
vn -0.500000 -0.000000 -0.866025
vn -0.433013 0.500000 -0.750000
vn -0.000000 -0.000000 -1.000000
vn -0.000000 0.500000 -0.866025
vn 0.500000 -0.000000 -0.866025
vn 0.433013 0.500000 -0.750000
vn 0.866025 -0.000000 -0.500000
vn 0.750000 0.500000 -0.433013
vn 1.000000 -0.000000 -0.000000
vn 0.866025 0.500000 -0.000000
vn 0.866025 -0.000000 0.500000
vn 0.750000 0.500000 0.433013
vn 0.500000 -0.000000 0.866025
vn 0.433013 0.500000 0.750000
vn -0.000000 -0.000000 1.000000
vn -0.000000 0.500000 0.866025
vn -0.500000 -0.000000 0.866025
vn -0.433013 0.500000 0.750000
vn -0.866025 -0.000000 0.500000
vn -0.750000 0.500000 0.433013
vn -1.000000 -0.000000 -0.000000
vn -0.866025 0.500000 -0.000000
vn -0.866025 -0.000000 -0.500000
vn -0.750000 0.500000 -0.433013
vn -0.000000 0.866025 -0.500000
vn -0.000000 1.000000 -0.000000
vn 0.250000 0.866025 -0.433013
vn 0.433013 0.866025 -0.250000
vn 0.500000 0.866025 -0.000000
vn 0.433013 0.866025 0.250000
vn 0.250000 0.866025 0.433013
vn -0.000000 0.866025 0.500000
vn -0.250000 0.866025 0.433013
vn -0.433013 0.866025 0.250000
vn -0.500000 0.866025 -0.000000
vn -0.433013 0.866025 -0.250000
vn -0.250000 0.866025 -0.433013
vn 0.929774 -0.000000 0.368130
vn 0.929774 -0.000000 0.368130
vn 0.929774 -0.000000 0.368130
vn 0.929774 -0.000000 0.368130
vn 0.929774 -0.000000 0.368130
vn 0.929774 -0.000000 0.368130
vn 0.929774 -0.000000 0.368130
vn 0.000000 1.000000 0.000000
vn 0.000000 1.000000 0.000000
vn 0.000000 1.000000 0.000000
vn 0.000000 1.000000 0.000000
vn 0.000000 1.000000 0.000000
vn 0.000000 1.000000 0.000000
vn 0.000000 1.000000 0.000000
vn 0.000000 1.000000 0.000000
vn 0.000000 1.000000 0.000000
vn 0.000000 1.000000 0.000000
vn 0.000000 1.000000 0.000000
vn 0.000000 1.000000 0.000000
vn 0.000000 1.000000 0.000000
vn 0.000000 1.000000 0.000000
vn 0.000000 1.000000 0.000000
vn 0.000000 1.000000 0.000000
vn 0.000000 1.000000 0.000000
vn 0.000000 1.000000 0.000000
vn 0.000000 1.000000 0.000000
vn 0.000000 1.000000 0.000000
vn 0.000000 1.000000 0.000000
vn 0.000000 1.000000 0.000000
vn 0.000000 1.000000 0.000000
vn 0.000000 1.000000 0.000000
vn 0.000000 1.000000 0.000000
vn 0.000000 1.000000 0.000000
vn 0.000000 1.000000 0.000000
vn 0.000000 1.000000 0.000000
vn 0.368130 -0.000000 -0.929774
vn 0.368130 -0.000000 -0.929774
vn 0.318810 -0.500000 -0.805208
vn 0.318810 -0.500000 -0.805208
vn 0.184065 -0.866025 -0.464887
vn 0.184065 -0.866025 -0.464887
vn 0.000000 -1.000000 -0.000000
vn 0.000000 -1.000000 -0.000000
vn -0.184065 -0.866025 0.464887
vn -0.184065 -0.866025 0.464887
vn -0.318810 -0.500000 0.805208
vn -0.318810 -0.500000 0.805208
vn -0.368130 -0.000000 0.929774
vn -0.318810 0.500000 0.805208
vn -0.318810 0.500000 0.805208
vn -0.184065 0.866025 0.464887
vn -0.184065 0.866025 0.464887
vn 0.000000 1.000000 0.000000
vn 0.000000 1.000000 0.000000
vn 0.184065 0.866025 -0.464887
vn 0.184065 0.866025 -0.464887
vn 0.318810 0.500000 -0.805208
vn 0.318810 0.500000 -0.805208
vn -0.368130 -0.000000 0.929774
vn -0.368130 0.000000 0.929774
vn -0.368130 0.000000 0.929774
vn -0.318810 -0.500000 0.805208
vn -0.318810 -0.500000 0.805208
vn -0.184065 -0.866025 0.464887
vn -0.184065 -0.866025 0.464887
vn -0.000000 -1.000000 -0.000000
vn 0.000000 -1.000000 -0.000000
vn 0.184065 -0.866025 -0.464887
vn 0.184065 -0.866025 -0.464887
vn 0.318810 -0.500000 -0.805208
vn 0.318810 -0.500000 -0.805208
vn 0.368130 0.000000 -0.929774
vn 0.318810 0.500000 -0.805208
vn 0.318810 0.500000 -0.805208
vn 0.184065 0.866025 -0.464887
vn 0.184065 0.866025 -0.464887
vn 0.000000 1.000000 -0.000000
vn 0.000000 1.000000 -0.000000
vn -0.184065 0.866025 0.464887
vn -0.184065 0.866025 0.464887
vn -0.318810 0.500000 0.805208
vn -0.318810 0.500000 0.805208
vn 0.368130 0.000000 -0.929774
vn 0.000000 1.000000 -0.000000
vn 0.184065 0.866025 -0.464887
vn 0.318810 0.500000 -0.805208
vn 0.318810 -0.500000 -0.805208
vn 0.184065 -0.866025 -0.464887
vn 0.000000 -1.000000 -0.000000
vn -0.184065 -0.866025 0.464887
vn -0.318810 -0.500000 0.805208
vn -0.318810 0.500000 0.805208
vn -0.184065 0.866025 0.464887
vn 0.000000 1.000000 -0.000000
vn 0.184065 0.866025 -0.464887
vn 0.318810 0.500000 -0.805208
vn 0.318810 -0.500000 -0.805208
vn 0.184065 -0.866025 -0.464887
vn 0.000000 -1.000000 -0.000000
vn -0.184065 -0.866025 0.464887
vn -0.318810 -0.500000 0.805208
vn -0.318810 0.500000 0.805208
vn -0.184065 0.866025 0.464887
vn 0.000000 1.000000 -0.000000
vn 0.184065 0.866025 -0.464887
vn 0.318810 0.500000 -0.805208
vn 0.318810 -0.500000 -0.805208
vn 0.184065 -0.866025 -0.464887
vn 0.000000 -1.000000 -0.000000
vn -0.184065 -0.866025 0.464887
vn -0.318810 -0.500000 0.805208
vn -0.318810 0.500000 0.805208
vn -0.184065 0.866025 0.464887
vn 0.000000 1.000000 -0.000000
vn 0.184065 0.866025 -0.464887
vn 0.318810 0.500000 -0.805208
vn 0.318810 -0.500000 -0.805208
vn 0.184065 -0.866025 -0.464887
vn 0.000000 -1.000000 -0.000000
vn -0.184065 -0.866025 0.464887
vn -0.318810 -0.500000 0.805208
vn -0.318810 0.500000 0.805208
vn -0.184065 0.866025 0.464887
vn 0.000000 1.000000 -0.000000
vn 0.184065 0.866025 -0.464887
vn 0.318810 0.500000 -0.805208
vn 0.318810 -0.500000 -0.805208
vn 0.184065 -0.866025 -0.464887
vn 0.000000 -1.000000 -0.000000
vn -0.184065 -0.866025 0.464887
vn -0.318810 -0.500000 0.805208
vn -0.318810 0.500000 0.805208
vn -0.184065 0.866025 0.464887
vn 0.000000 1.000000 -0.000000
vn 0.184065 0.866025 -0.464887
vn 0.318810 0.500000 -0.805208
vn 0.318810 -0.500000 -0.805208
vn 0.184065 -0.866025 -0.464887
vn 0.000000 -1.000000 -0.000000
vn -0.184065 -0.866025 0.464887
vn -0.318810 -0.500000 0.805208
vn -0.318810 0.500000 0.805208
vn -0.184065 0.866025 0.464887
vn 0.645803 -0.250000 0.721414
vn 0.621143 0.000000 0.783697
vn 0.353553 -0.382683 0.853553
vn 0.264256 0.000000 0.964453
vn 0.000000 -0.382683 0.923880
vn -0.134923 0.000000 0.990856
vn -0.353553 -0.382683 0.853553
vn -0.512509 0.000000 0.858682
vn -0.653281 -0.382683 0.653281
vn -0.808072 0.000000 0.589083
vn -0.853553 -0.382683 0.353553
vn -0.974311 0.000000 0.225207
vn -0.923880 -0.382683 0.000000
vn -0.984620 0.000000 -0.174711
vn -0.853553 -0.382683 -0.353553
vn -0.837349 0.000000 -0.546669
vn -0.653281 -0.382683 -0.653281
vn -0.556068 0.000000 -0.831137
vn -0.353553 -0.382683 -0.853553
vn -0.185793 0.000000 -0.982589
vn 0.000000 -0.382683 -0.923880
vn 0.214216 0.000000 -0.976786
vn 0.353553 -0.382683 -0.853553
vn 0.579942 0.000000 -0.814658
vn 0.653281 -0.382683 -0.653281
vn 0.852853 0.000000 -0.522150
vn 0.853553 -0.382683 -0.353553
vn 0.989273 0.000000 -0.146078
vn 0.964613 -0.250000 -0.083794
vn 0.923880 -0.382683 0.000000
vn 0.897241 -0.433013 0.086366
vn 0.707107 -0.707107 0.000000
vn 0.805208 -0.500000 0.318810
vn 0.653281 -0.707107 0.270598
vn 0.713176 -0.433013 0.551253
vn 0.500000 -0.707107 0.500000
vn 0.653281 -0.382683 0.653281
vn 0.270598 -0.707107 0.653281
vn 0.000000 -0.707107 0.707107
vn -0.270598 -0.707107 0.653281
vn -0.500000 -0.707107 0.500000
vn -0.653281 -0.707107 0.270598
vn -0.707107 -0.707107 0.000000
vn -0.653281 -0.707107 -0.270598
vn -0.500000 -0.707107 -0.500000
vn -0.270598 -0.707107 -0.653281
vn 0.000000 -0.707107 -0.707107
vn 0.270598 -0.707107 -0.653281
vn 0.500000 -0.707107 -0.500000
vn 0.653281 -0.707107 -0.270598
vn 0.000000 -0.923880 0.382683
vn 0.000000 -1.000000 0.000000
vn 0.146447 -0.923880 0.353553
vn 0.270598 -0.923880 0.270598
vn 0.353553 -0.923880 0.146447
vn 0.382683 -0.923880 0.000000
vn 0.353553 -0.923880 -0.146447
vn 0.270598 -0.923880 -0.270598
vn 0.146447 -0.923880 -0.353553
vn 0.000000 -0.923880 -0.382683
vn -0.146447 -0.923880 -0.353553
vn -0.270598 -0.923880 -0.270598
vn -0.353553 -0.923880 -0.146447
vn -0.382683 -0.923880 0.000000
vn -0.353553 -0.923880 0.146447
vn -0.270598 -0.923880 0.270598
vn -0.146447 -0.923880 0.353553
vn 0.000000 1.000000 0.000000
vn 0.000000 1.000000 0.000000
vn 0.000000 1.000000 0.000000
vn 0.000000 1.000000 0.000000
vn 0.000000 1.000000 0.000000
vn 0.000000 1.000000 0.000000
vn 0.000000 1.000000 0.000000
vn 0.000000 1.000000 0.000000
vn 0.000000 1.000000 0.000000
vn 0.000000 1.000000 0.000000
vn 0.000000 1.000000 0.000000
vn 0.000000 1.000000 0.000000
vn 0.000000 1.000000 0.000000
vn 0.000000 1.000000 0.000000
vn 0.000000 1.000000 0.000000
vn 0.000000 1.000000 0.000000
vn 0.000000 1.000000 0.000000
vn 0.000000 1.000000 0.000000
vn 0.000000 1.000000 0.000000
vn 0.000000 1.000000 0.000000
vn 0.000000 1.000000 0.000000
vn 0.000000 1.000000 0.000000
vn 0.000000 1.000000 0.000000
vn 0.000000 1.000000 0.000000
vn 0.000000 1.000000 0.000000
vn 0.000000 1.000000 0.000000
vn 0.000000 1.000000 0.000000
vn 0.000000 1.000000 0.000000
vn -0.929774 0.000000 -0.368130
vn -0.929774 0.000000 -0.368130
vn -0.929774 0.000000 -0.368130
vn -0.929774 0.000000 -0.368130
vn -0.929774 0.000000 -0.368130
vn -0.929774 0.000000 -0.368130
vn -0.929774 0.000000 -0.368130
vn -0.500000 -0.000000 -0.866025
vn -0.433013 0.500000 -0.750000
vn -0.000000 -0.000000 -1.000000
vn -0.000000 0.500000 -0.866025
vn 0.500000 -0.000000 -0.866025
vn 0.433013 0.500000 -0.750000
vn 0.866025 -0.000000 -0.500000
vn 0.750000 0.500000 -0.433013
vn 1.000000 -0.000000 -0.000000
vn 0.866025 0.500000 -0.000000
vn 0.866025 -0.000000 0.500000
vn 0.750000 0.500000 0.433013
vn 0.500000 -0.000000 0.866025
vn 0.433013 0.500000 0.750000
vn -0.000000 -0.000000 1.000000
vn -0.000000 0.500000 0.866025
vn -0.500000 -0.000000 0.866025
vn -0.433013 0.500000 0.750000
vn -0.866025 -0.000000 0.500000
vn -0.750000 0.500000 0.433013
vn -1.000000 -0.000000 -0.000000
vn -0.866025 0.500000 -0.000000
vn -0.866025 -0.000000 -0.500000
vn -0.750000 0.500000 -0.433013
vn -0.000000 0.866025 -0.500000
vn -0.000000 1.000000 -0.000000
vn 0.250000 0.866025 -0.433013
vn 0.433013 0.866025 -0.250000
vn 0.500000 0.866025 -0.000000
vn 0.433013 0.866025 0.250000
vn 0.250000 0.866025 0.433013
vn -0.000000 0.866025 0.500000
vn -0.250000 0.866025 0.433013
vn -0.433013 0.866025 0.250000
vn -0.500000 0.866025 -0.000000
vn -0.433013 0.866025 -0.250000
vn -0.250000 0.866025 -0.433013
vn -0.645803 -0.250000 -0.721414
vn -0.621143 0.000000 -0.783697
vn -0.353553 -0.382683 -0.853553
vn -0.264256 0.000000 -0.964453
vn 0.000000 -0.382683 -0.923880
vn 0.134923 0.000000 -0.990856
vn 0.353553 -0.382683 -0.853553
vn 0.512509 0.000000 -0.858682
vn 0.653281 -0.382683 -0.653281
vn 0.808072 0.000000 -0.589083
vn 0.853553 -0.382683 -0.353553
vn 0.974311 0.000000 -0.225207
vn 0.923880 -0.382683 0.000000
vn 0.984620 0.000000 0.174711
vn 0.853553 -0.382683 0.353553
vn 0.837349 0.000000 0.546669
vn 0.653281 -0.382683 0.653281
vn 0.556068 0.000000 0.831137
vn 0.353553 -0.382683 0.853553
vn 0.185793 0.000000 0.982589
vn 0.000000 -0.382683 0.923880
vn -0.214216 0.000000 0.976786
vn -0.353553 -0.382683 0.853553
vn -0.579942 0.000000 0.814658
vn -0.653281 -0.382683 0.653281
vn -0.852853 0.000000 0.522150
vn -0.853553 -0.382683 0.353553
vn -0.989273 0.000000 0.146078
vn -0.964613 -0.250000 0.083794
vn -0.923880 -0.382683 0.000000
vn -0.897241 -0.433013 -0.086366
vn -0.707107 -0.707107 0.000000
vn -0.805208 -0.500000 -0.318810
vn -0.653281 -0.707107 -0.270598
vn -0.713176 -0.433013 -0.551253
vn -0.500000 -0.707107 -0.500000
vn -0.653281 -0.382683 -0.653281
vn -0.270598 -0.707107 -0.653281
vn 0.000000 -0.707107 -0.707107
vn 0.270598 -0.707107 -0.653281
vn 0.500000 -0.707107 -0.500000
vn 0.653281 -0.707107 -0.270598
vn 0.707107 -0.707107 0.000000
vn 0.653281 -0.707107 0.270598
vn 0.500000 -0.707107 0.500000
vn 0.270598 -0.707107 0.653281
vn 0.000000 -0.707107 0.707107
vn -0.270598 -0.707107 0.653281
vn -0.500000 -0.707107 0.500000
vn -0.653281 -0.707107 0.270598
vn 0.000000 -0.923880 0.382683
vn 0.000000 -1.000000 0.000000
vn 0.146447 -0.923880 0.353553
vn 0.270598 -0.923880 0.270598
vn 0.353553 -0.923880 0.146447
vn 0.382683 -0.923880 0.000000
vn 0.353553 -0.923880 -0.146447
vn 0.270598 -0.923880 -0.270598
vn 0.146447 -0.923880 -0.353553
vn 0.000000 -0.923880 -0.382683
vn -0.146447 -0.923880 -0.353553
vn -0.270598 -0.923880 -0.270598
vn -0.353553 -0.923880 -0.146447
vn -0.382683 -0.923880 0.000000
vn -0.353553 -0.923880 0.146447
vn -0.270598 -0.923880 0.270598
vn -0.146447 -0.923880 0.353553
usemtl Steel_-_Satin
f 12/1/1 1/2/2 13/3/3
f 13/3/3 1/2/2 2/4/4
f 13/3/3 2/4/4 3/5/5
f 3/5/5 4/6/6 13/3/3
f 13/3/3 4/6/6 14/7/7
f 13/3/3 14/7/7 10/8/8
f 10/8/8 14/7/7 9/9/9
f 9/9/9 14/7/7 8/10/10
f 8/10/10 14/7/7 7/11/11
f 7/11/11 14/7/7 6/12/12
f 6/12/12 14/7/7 5/13/13
f 5/13/13 14/7/7 4/6/6
f 10/8/8 11/14/14 13/3/3
f 13/3/3 11/14/14 12/1/1
f 26/15/15 15/16/16 27/17/17
f 27/17/17 15/16/16 16/18/18
f 27/17/17 16/18/18 17/19/19
f 17/19/19 18/20/20 27/17/17
f 27/17/17 18/20/20 28/21/21
f 27/17/17 28/21/21 24/22/22
f 24/22/22 28/21/21 23/23/23
f 23/23/23 28/21/21 22/24/24
f 22/24/24 28/21/21 21/25/25
f 21/25/25 28/21/21 20/26/26
f 20/26/26 28/21/21 19/27/27
f 19/27/27 28/21/21 18/20/20
f 24/22/22 25/28/28 27/17/17
f 27/17/17 25/28/28 26/15/15
f 12/29/29 39/30/30 1/31/31
f 1/31/31 39/30/30 29/32/32
f 1/33/31 29/34/32 2/35/33
f 2/35/33 29/34/32 139/36/34
f 2/35/33 139/36/34 3/37/35
f 3/37/35 139/36/34 129/38/36
f 3/37/35 129/38/36 4/39/37
f 4/39/37 129/38/36 119/40/38
f 4/39/37 119/40/38 5/41/39
f 5/41/39 119/40/38 109/42/40
f 5/41/39 109/42/40 6/43/41
f 6/43/41 109/42/40 99/44/42
f 6/43/41 99/44/42 7/45/43
f 7/45/43 99/44/42 89/46/44
f 7/45/43 89/46/44 8/47/45
f 8/47/45 89/46/44 79/48/46
f 8/47/45 79/48/46 9/49/47
f 9/49/47 79/48/46 69/50/48
f 9/49/47 69/50/48 10/51/49
f 10/51/49 69/50/48 59/52/50
f 10/51/49 59/52/50 11/53/51
f 11/53/51 59/52/50 49/54/52
f 11/53/51 49/54/52 12/29/29
f 12/29/29 49/54/52 39/30/30
f 26/55/53 148/56/54 15/57/55
f 15/57/55 148/56/54 38/58/56
f 15/59/55 38/60/56 16/61/57
f 16/61/57 38/60/56 48/62/58
f 16/61/57 48/62/58 17/63/59
f 17/63/59 48/62/58 58/64/60
f 17/63/59 58/64/60 18/65/61
f 18/65/61 58/64/60 68/66/62
f 18/65/61 68/66/62 19/67/63
f 19/67/63 68/66/62 78/68/64
f 19/67/63 78/68/64 20/69/65
f 20/69/65 78/68/64 88/70/66
f 20/69/65 88/70/66 21/71/67
f 21/71/67 88/70/66 98/72/68
f 21/71/67 98/72/68 22/73/69
f 22/73/69 98/72/68 108/74/70
f 22/73/69 108/74/70 23/75/71
f 23/75/71 108/74/70 118/76/72
f 23/75/71 118/76/72 24/77/73
f 24/77/73 118/76/72 128/78/74
f 24/77/73 128/78/74 25/79/75
f 25/79/75 128/78/74 138/80/76
f 25/79/75 138/80/76 26/55/53
f 26/55/53 138/80/76 148/56/54
f 29/34/32 30/81/77 139/36/34
f 139/36/34 30/81/77 140/82/78
f 139/36/34 140/82/78 129/38/36
f 129/38/36 140/82/78 130/83/79
f 129/38/36 130/83/79 119/40/38
f 119/40/38 130/83/79 120/84/80
f 119/40/38 120/84/80 109/42/40
f 109/42/40 120/84/80 110/85/81
f 109/42/40 110/85/81 99/44/42
f 99/44/42 110/85/81 100/86/82
f 99/44/42 100/86/82 89/46/44
f 89/46/44 100/86/82 90/87/83
f 89/46/44 90/87/83 79/48/46
f 79/48/46 90/87/83 80/88/84
f 79/48/46 80/88/84 69/50/48
f 69/50/48 80/88/84 70/89/85
f 69/50/48 70/89/85 59/52/50
f 59/52/50 70/89/85 60/90/86
f 59/52/50 60/90/86 49/54/52
f 49/54/52 60/90/86 50/91/87
f 49/54/52 50/91/87 39/30/30
f 39/30/30 50/91/87 40/92/88
f 39/30/30 40/92/88 29/32/32
f 29/32/32 40/92/88 30/93/77
f 30/81/77 31/94/89 140/82/78
f 140/82/78 31/94/89 141/95/90
f 140/82/78 141/95/90 130/83/79
f 130/83/79 141/95/90 131/96/91
f 130/83/79 131/96/91 120/84/80
f 120/84/80 131/96/91 121/97/92
f 120/84/80 121/97/92 110/85/81
f 110/85/81 121/97/92 111/98/93
f 110/85/81 111/98/93 100/86/82
f 100/86/82 111/98/93 101/99/94
f 100/86/82 101/99/94 90/87/83
f 90/87/83 101/99/94 91/100/95
f 90/87/83 91/100/95 80/88/84
f 80/88/84 91/100/95 81/101/96
f 80/88/84 81/101/96 70/89/85
f 70/89/85 81/101/96 71/102/97
f 70/89/85 71/102/97 60/90/86
f 60/90/86 71/102/97 61/103/98
f 60/90/86 61/103/98 50/91/87
f 50/91/87 61/103/98 51/104/99
f 50/91/87 51/104/99 40/92/88
f 40/92/88 51/104/99 41/105/100
f 40/92/88 41/105/100 30/93/77
f 30/93/77 41/105/100 31/106/89
f 31/94/89 32/107/101 141/95/90
f 141/95/90 32/107/101 142/108/102
f 141/95/90 142/108/102 131/96/91
f 131/96/91 142/108/102 132/109/103
f 131/96/91 132/109/103 121/97/92
f 121/97/92 132/109/103 122/110/104
f 121/97/92 122/110/104 111/98/93
f 111/98/93 122/110/104 112/111/105
f 111/98/93 112/111/105 101/99/94
f 101/99/94 112/111/105 102/112/106
f 101/99/94 102/112/106 91/100/95
f 91/100/95 102/112/106 92/113/107
f 91/100/95 92/113/107 81/101/96
f 81/101/96 92/113/107 82/114/108
f 81/101/96 82/114/108 71/102/97
f 71/102/97 82/114/108 72/115/109
f 71/102/97 72/115/109 61/103/98
f 61/103/98 72/115/109 62/116/110
f 61/103/98 62/116/110 51/104/99
f 51/104/99 62/116/110 52/117/111
f 51/104/99 52/117/111 41/105/100
f 41/105/100 52/117/111 42/118/112
f 41/105/100 42/118/112 31/106/89
f 31/106/89 42/118/112 32/119/101
f 32/107/101 33/120/113 142/108/102
f 142/108/102 33/120/113 143/121/114
f 142/108/102 143/121/114 132/109/103
f 132/109/103 143/121/114 133/122/115
f 132/109/103 133/122/115 122/110/104
f 122/110/104 133/122/115 123/123/116
f 122/110/104 123/123/116 112/111/105
f 112/111/105 123/123/116 113/124/117
f 112/111/105 113/124/117 102/112/106
f 102/112/106 113/124/117 103/125/118
f 102/112/106 103/125/118 92/113/107
f 92/113/107 103/125/118 93/126/119
f 92/113/107 93/126/119 82/114/108
f 82/114/108 93/126/119 83/127/120
f 82/114/108 83/127/120 72/115/109
f 72/115/109 83/127/120 73/128/121
f 72/115/109 73/128/121 62/116/110
f 62/116/110 73/128/121 63/129/122
f 62/116/110 63/129/122 52/117/111
f 52/117/111 63/129/122 53/130/123
f 52/117/111 53/130/123 42/118/112
f 42/118/112 53/130/123 43/131/124
f 42/118/112 43/131/124 32/119/101
f 32/119/101 43/131/124 33/132/113
f 33/120/113 34/133/125 143/121/114
f 143/121/114 34/133/125 144/134/126
f 143/121/114 144/134/126 133/122/115
f 133/122/115 144/134/126 134/135/127
f 133/122/115 134/135/127 123/123/116
f 123/123/116 134/135/127 124/136/128
f 123/123/116 124/136/128 113/124/117
f 113/124/117 124/136/128 114/137/129
f 113/124/117 114/137/129 103/125/118
f 103/125/118 114/137/129 104/138/130
f 103/125/118 104/138/130 93/126/119
f 93/126/119 104/138/130 94/139/131
f 93/126/119 94/139/131 83/127/120
f 83/127/120 94/139/131 84/140/132
f 83/127/120 84/140/132 73/128/121
f 73/128/121 84/140/132 74/141/133
f 73/128/121 74/141/133 63/129/122
f 63/129/122 74/141/133 64/142/134
f 63/129/122 64/142/134 53/130/123
f 53/130/123 64/142/134 54/143/135
f 53/130/123 54/143/135 43/131/124
f 43/131/124 54/143/135 44/144/136
f 43/131/124 44/144/136 33/132/113
f 33/132/113 44/144/136 34/145/125
f 34/133/125 35/146/137 144/134/126
f 144/134/126 35/146/137 145/147/138
f 144/134/126 145/147/138 134/135/127
f 134/135/127 145/147/138 135/148/139
f 134/135/127 135/148/139 124/136/128
f 124/136/128 135/148/139 125/149/140
f 124/136/128 125/149/140 114/137/129
f 114/137/129 125/149/140 115/150/141
f 114/137/129 115/150/141 104/138/130
f 104/138/130 115/150/141 105/151/142
f 104/138/130 105/151/142 94/139/131
f 94/139/131 105/151/142 95/152/143
f 94/139/131 95/152/143 84/140/132
f 84/140/132 95/152/143 85/153/144
f 84/140/132 85/153/144 74/141/133
f 74/141/133 85/153/144 75/154/145
f 74/141/133 75/154/145 64/142/134
f 64/142/134 75/154/145 65/155/146
f 64/142/134 65/155/146 54/143/135
f 54/143/135 65/155/146 55/156/147
f 54/143/135 55/156/147 44/144/136
f 44/144/136 55/156/147 45/157/148
f 44/144/136 45/157/148 34/145/125
f 34/145/125 45/157/148 35/158/137
f 35/146/137 36/159/149 145/147/138
f 145/147/138 36/159/149 146/160/150
f 145/147/138 146/160/150 135/148/139
f 135/148/139 146/160/150 136/161/151
f 135/148/139 136/161/151 125/149/140
f 125/149/140 136/161/151 126/162/152
f 125/149/140 126/162/152 115/150/141
f 115/150/141 126/162/152 116/163/153
f 115/150/141 116/163/153 105/151/142
f 105/151/142 116/163/153 106/164/154
f 105/151/142 106/164/154 95/152/143
f 95/152/143 106/164/154 96/165/155
f 95/152/143 96/165/155 85/153/144
f 85/153/144 96/165/155 86/166/156
f 85/153/144 86/166/156 75/154/145
f 75/154/145 86/166/156 76/167/157
f 75/154/145 76/167/157 65/155/146
f 65/155/146 76/167/157 66/168/158
f 65/155/146 66/168/158 55/156/147
f 55/156/147 66/168/158 56/169/159
f 55/156/147 56/169/159 45/157/148
f 45/157/148 56/169/159 46/170/160
f 45/157/148 46/170/160 35/158/137
f 35/158/137 46/170/160 36/171/149
f 36/159/149 37/172/161 146/160/150
f 146/160/150 37/172/161 147/173/162
f 146/160/150 147/173/162 136/161/151
f 136/161/151 147/173/162 137/174/163
f 136/161/151 137/174/163 126/162/152
f 126/162/152 137/174/163 127/175/164
f 126/162/152 127/175/164 116/163/153
f 116/163/153 127/175/164 117/176/165
f 116/163/153 117/176/165 106/164/154
f 106/164/154 117/176/165 107/177/166
f 106/164/154 107/177/166 96/165/155
f 96/165/155 107/177/166 97/178/167
f 96/165/155 97/178/167 86/166/156
f 86/166/156 97/178/167 87/179/168
f 86/166/156 87/179/168 76/167/157
f 76/167/157 87/179/168 77/180/169
f 76/167/157 77/180/169 66/168/158
f 66/168/158 77/180/169 67/181/170
f 66/168/158 67/181/170 56/169/159
f 56/169/159 67/181/170 57/182/171
f 56/169/159 57/182/171 46/170/160
f 46/170/160 57/182/171 47/183/172
f 46/170/160 47/183/172 36/171/149
f 36/171/149 47/183/172 37/184/161
f 37/172/161 38/58/56 147/173/162
f 147/173/162 38/58/56 148/56/54
f 147/173/162 148/56/54 137/174/163
f 137/174/163 148/56/54 138/80/76
f 137/174/163 138/80/76 127/175/164
f 127/175/164 138/80/76 128/78/74
f 127/175/164 128/78/74 117/176/165
f 117/176/165 128/78/74 118/76/72
f 117/176/165 118/76/72 107/177/166
f 107/177/166 118/76/72 108/74/70
f 107/177/166 108/74/70 97/178/167
f 97/178/167 108/74/70 98/72/68
f 97/178/167 98/72/68 87/179/168
f 87/179/168 98/72/68 88/70/66
f 87/179/168 88/70/66 77/180/169
f 77/180/169 88/70/66 78/68/64
f 77/180/169 78/68/64 67/181/170
f 67/181/170 78/68/64 68/66/62
f 67/181/170 68/66/62 57/182/171
f 57/182/171 68/66/62 58/64/60
f 57/182/171 58/64/60 47/183/172
f 47/183/172 58/64/60 48/62/58
f 47/183/172 48/62/58 37/184/161
f 37/184/161 48/62/58 38/60/56
f 150/185/173 164/186/174 149/187/175
f 149/187/175 164/186/174 162/188/176
f 149/189/175 162/190/176 160/191/177
f 160/191/177 162/190/176 184/192/178
f 160/191/177 184/192/178 159/193/179
f 159/193/179 184/192/178 182/194/180
f 159/193/179 182/194/180 158/195/181
f 158/195/181 182/194/180 180/196/182
f 158/195/181 180/196/182 157/197/183
f 157/197/183 180/196/182 178/198/184
f 157/197/183 178/198/184 156/199/185
f 156/199/185 178/198/184 176/200/186
f 156/199/185 176/200/186 155/201/187
f 155/201/187 176/200/186 174/202/188
f 155/201/187 174/202/188 154/203/189
f 154/203/189 174/202/188 172/204/190
f 154/203/189 172/204/190 153/205/191
f 153/205/191 172/204/190 170/206/192
f 153/205/191 170/206/192 152/207/193
f 152/207/193 170/206/192 168/208/194
f 152/207/193 168/208/194 151/209/195
f 151/209/195 168/208/194 166/210/196
f 151/209/195 166/210/196 150/185/173
f 150/185/173 166/210/196 164/186/174
f 163/211/197 161/212/198 185/213/199
f 185/213/199 161/214/198 183/215/200
f 183/215/200 161/216/198 181/217/201
f 181/217/201 161/218/198 179/219/202
f 177/220/203 161/221/198 175/222/204
f 175/222/204 161/223/198 173/224/205
f 173/224/205 161/225/198 171/226/206
f 169/227/207 161/228/198 167/229/208
f 167/229/208 161/230/198 165/231/209
f 165/231/209 161/232/198 163/233/197
f 162/190/176 163/211/197 184/192/178
f 184/192/178 163/211/197 185/213/199
f 184/192/178 185/213/199 182/194/180
f 182/194/180 185/213/199 183/215/200
f 182/194/180 183/215/200 180/196/182
f 180/196/182 183/215/200 181/217/201
f 180/196/182 181/217/201 178/198/184
f 178/198/184 181/217/201 179/219/202
f 178/198/184 179/219/202 176/200/186
f 176/200/186 179/219/202 177/220/203
f 176/200/186 177/220/203 174/202/188
f 174/202/188 177/220/203 175/222/204
f 174/202/188 175/222/204 172/204/190
f 172/204/190 175/222/204 173/224/205
f 172/204/190 173/224/205 170/206/192
f 170/206/192 173/224/205 171/226/206
f 170/206/192 171/226/206 168/208/194
f 168/208/194 171/226/206 169/227/207
f 168/208/194 169/227/207 166/210/196
f 166/210/196 169/227/207 167/229/208
f 166/210/196 167/229/208 164/186/174
f 164/186/174 167/229/208 165/231/209
f 164/186/174 165/231/209 162/188/176
f 162/188/176 165/231/209 163/233/197
f 171/226/206 161/234/198 169/227/207
f 179/219/202 161/235/198 177/220/203
f 192/236/210 186/237/211 191/238/212
f 191/238/212 186/237/211 187/239/213
f 191/238/212 187/239/213 190/240/214
f 190/240/214 187/239/213 188/241/215
f 190/240/214 188/241/215 189/242/216
f 160/243/217 196/244/218 149/245/219
f 149/245/219 196/244/218 197/246/220
f 149/245/219 197/246/220 150/247/221
f 150/247/221 197/246/220 198/248/222
f 150/247/221 198/248/222 151/249/223
f 151/249/223 198/248/222 199/250/224
f 151/249/223 199/250/224 200/251/225
f 196/244/218 160/243/217 195/252/226
f 195/252/226 160/243/217 159/253/227
f 195/252/226 159/253/227 194/254/228
f 194/254/228 159/253/227 193/255/229
f 193/255/229 159/253/227 158/256/230
f 193/255/229 158/256/230 157/257/231
f 156/258/232 206/259/233 157/257/231
f 157/257/231 206/259/233 186/260/234
f 157/257/231 186/260/234 192/261/235
f 206/259/233 156/258/232 205/262/236
f 205/262/236 156/258/232 155/263/237
f 205/262/236 155/263/237 204/264/238
f 204/264/238 155/263/237 154/265/239
f 204/264/238 154/265/239 203/266/240
f 203/266/240 154/265/239 202/267/241
f 202/267/241 154/265/239 153/268/242
f 202/267/241 153/268/242 201/269/243
f 201/269/243 153/268/242 152/270/244
f 201/269/243 152/270/244 200/251/225
f 200/251/225 152/270/244 151/249/223
f 192/261/235 193/255/229 157/257/231
f 207/271/245 208/272/246 220/273/247
f 220/273/247 208/272/246 249/274/248
f 220/273/247 249/274/248 219/275/249
f 219/275/249 249/274/248 298/276/250
f 219/275/249 298/276/250 218/277/251
f 218/277/251 298/276/250 290/278/252
f 218/277/251 290/278/252 217/279/253
f 217/279/253 290/278/252 282/280/254
f 217/279/253 282/280/254 216/281/255
f 216/281/255 282/280/254 274/282/256
f 216/281/255 274/282/256 214/283/257
f 214/283/257 274/282/256 266/284/258
f 214/283/257 266/284/258 213/285/259
f 213/285/259 266/284/258 212/286/260
f 212/286/260 266/284/258 258/287/261
f 212/286/260 258/287/261 211/288/262
f 211/288/262 258/287/261 226/289/263
f 211/290/262 226/291/263 210/292/264
f 210/292/264 226/291/263 250/293/265
f 210/292/264 250/293/265 209/294/266
f 209/294/266 250/293/265 234/295/267
f 209/294/266 234/295/267 208/272/246
f 208/272/246 234/295/267 249/274/248
f 214/283/257 215/296/268 216/281/255
f 193/297/269 192/298/270 225/299/271
f 225/299/271 192/298/270 281/300/272
f 225/299/271 281/300/272 224/301/273
f 224/301/273 281/300/272 289/302/274
f 224/301/273 289/302/274 223/303/275
f 223/303/275 289/302/274 297/304/276
f 223/303/275 297/304/276 222/305/277
f 222/305/277 297/304/276 305/306/278
f 222/305/277 305/306/278 221/307/279
f 221/307/279 305/306/278 242/308/280
f 221/307/279 242/308/280 186/309/281
f 186/309/281 242/308/280 241/310/282
f 186/309/281 241/310/282 187/311/283
f 187/311/283 241/310/282 188/312/284
f 188/312/284 241/310/282 257/313/285
f 188/312/284 257/313/285 189/314/286
f 189/314/286 257/313/285 233/315/287
f 189/316/286 233/317/287 190/318/288
f 190/318/288 233/317/287 265/319/289
f 190/318/288 265/319/289 191/320/290
f 191/320/290 265/319/289 273/321/291
f 191/320/290 273/321/291 192/298/270
f 192/298/270 273/321/291 281/300/272
f 186/309/281 206/322/292 221/307/279
f 226/291/263 227/323/293 250/293/265
f 250/293/265 227/323/293 251/324/294
f 250/293/265 251/324/294 234/295/267
f 234/295/267 251/324/294 235/325/295
f 234/295/267 235/325/295 249/274/248
f 249/274/248 235/325/295 248/326/296
f 249/274/248 248/326/296 298/276/250
f 298/276/250 248/326/296 299/327/297
f 298/276/250 299/327/297 290/278/252
f 290/278/252 299/327/297 291/328/298
f 290/278/252 291/328/298 282/280/254
f 282/280/254 291/328/298 283/329/299
f 282/280/254 283/329/299 274/282/256
f 274/282/256 283/329/299 275/330/300
f 274/282/256 275/330/300 266/284/258
f 266/284/258 275/330/300 267/331/301
f 266/284/258 267/331/301 258/287/261
f 258/287/261 267/331/301 259/332/302
f 258/287/261 259/332/302 226/289/263
f 226/289/263 259/332/302 227/333/293
f 227/323/293 228/334/303 251/324/294
f 251/324/294 228/334/303 252/335/304
f 251/324/294 252/335/304 235/325/295
f 235/325/295 252/335/304 236/336/305
f 235/325/295 236/336/305 248/326/296
f 248/326/296 236/336/305 247/337/306
f 248/326/296 247/337/306 299/327/297
f 299/327/297 247/337/306 300/338/307
f 299/327/297 300/338/307 291/328/298
f 291/328/298 300/338/307 292/339/308
f 291/328/298 292/339/308 283/329/299
f 283/329/299 292/339/308 284/340/309
f 283/329/299 284/340/309 275/330/300
f 275/330/300 284/340/309 276/341/310
f 275/330/300 276/341/310 267/331/301
f 267/331/301 276/341/310 268/342/311
f 267/331/301 268/342/311 259/332/302
f 259/332/302 268/342/311 260/343/312
f 259/332/302 260/343/312 227/333/293
f 227/333/293 260/343/312 228/344/303
f 228/334/303 229/345/313 252/335/304
f 252/335/304 229/345/313 253/346/314
f 252/335/304 253/346/314 236/336/305
f 236/336/305 253/346/314 237/347/315
f 236/336/305 237/347/315 247/337/306
f 247/337/306 237/347/315 246/348/316
f 247/337/306 246/348/316 300/338/307
f 300/338/307 246/348/316 301/349/317
f 300/338/307 301/349/317 292/339/308
f 292/339/308 301/349/317 293/350/318
f 292/339/308 293/350/318 284/340/309
f 284/340/309 293/350/318 285/351/319
f 284/340/309 285/351/319 276/341/310
f 276/341/310 285/351/319 277/352/320
f 276/341/310 277/352/320 268/342/311
f 268/342/311 277/352/320 269/353/321
f 268/342/311 269/353/321 260/343/312
f 260/343/312 269/353/321 261/354/322
f 260/343/312 261/354/322 228/344/303
f 228/344/303 261/354/322 229/355/313
f 229/345/313 230/356/323 253/346/314
f 253/346/314 230/356/323 254/357/324
f 253/346/314 254/357/324 237/347/315
f 237/347/315 254/357/324 238/358/325
f 237/347/315 238/358/325 246/348/316
f 246/348/316 238/358/325 245/359/326
f 246/348/316 245/359/326 301/349/317
f 301/349/317 245/359/326 302/360/327
f 301/349/317 302/360/327 293/350/318
f 293/350/318 302/360/327 294/361/328
f 293/350/318 294/361/328 285/351/319
f 285/351/319 294/361/328 286/362/329
f 285/351/319 286/362/329 277/352/320
f 277/352/320 286/362/329 278/363/330
f 277/352/320 278/363/330 269/353/321
f 269/353/321 278/363/330 270/364/331
f 269/353/321 270/364/331 261/354/322
f 261/354/322 270/364/331 262/365/332
f 261/354/322 262/365/332 229/355/313
f 229/355/313 262/365/332 230/366/323
f 230/356/323 231/367/333 254/357/324
f 254/357/324 231/367/333 255/368/334
f 254/357/324 255/368/334 238/358/325
f 238/358/325 255/368/334 239/369/335
f 238/358/325 239/369/335 245/359/326
f 245/359/326 239/369/335 244/370/336
f 245/359/326 244/370/336 302/360/327
f 302/360/327 244/370/336 303/371/337
f 302/360/327 303/371/337 294/361/328
f 294/361/328 303/371/337 295/372/338
f 294/361/328 295/372/338 286/362/329
f 286/362/329 295/372/338 287/373/339
f 286/362/329 287/373/339 278/363/330
f 278/363/330 287/373/339 279/374/340
f 278/363/330 279/374/340 270/364/331
f 270/364/331 279/374/340 271/375/341
f 270/364/331 271/375/341 262/365/332
f 262/365/332 271/375/341 263/376/342
f 262/365/332 263/376/342 230/366/323
f 230/366/323 263/376/342 231/377/333
f 231/367/333 232/378/343 255/368/334
f 255/368/334 232/378/343 256/379/344
f 255/368/334 256/379/344 239/369/335
f 239/369/335 256/379/344 240/380/345
f 239/369/335 240/380/345 244/370/336
f 244/370/336 240/380/345 243/381/346
f 244/370/336 243/381/346 303/371/337
f 303/371/337 243/381/346 304/382/347
f 303/371/337 304/382/347 295/372/338
f 295/372/338 304/382/347 296/383/348
f 295/372/338 296/383/348 287/373/339
f 287/373/339 296/383/348 288/384/349
f 287/373/339 288/384/349 279/374/340
f 279/374/340 288/384/349 280/385/350
f 279/374/340 280/385/350 271/375/341
f 271/375/341 280/385/350 272/386/351
f 271/375/341 272/386/351 263/376/342
f 263/376/342 272/386/351 264/387/352
f 263/376/342 264/387/352 231/377/333
f 231/377/333 264/387/352 232/388/343
f 232/378/343 233/315/287 256/379/344
f 256/379/344 233/315/287 257/313/285
f 256/379/344 257/313/285 240/380/345
f 240/380/345 257/313/285 241/310/282
f 240/380/345 241/310/282 243/381/346
f 243/381/346 241/310/282 242/308/280
f 243/381/346 242/308/280 304/382/347
f 304/382/347 242/308/280 305/306/278
f 304/382/347 305/306/278 296/383/348
f 296/383/348 305/306/278 297/304/276
f 296/383/348 297/304/276 288/384/349
f 288/384/349 297/304/276 289/302/274
f 288/384/349 289/302/274 280/385/350
f 280/385/350 289/302/274 281/300/272
f 280/385/350 281/300/272 272/386/351
f 272/386/351 281/300/272 273/321/291
f 272/386/351 273/321/291 264/387/352
f 264/387/352 273/321/291 265/319/289
f 264/387/352 265/319/289 232/388/343
f 232/388/343 265/319/289 233/317/287
f 216/389/353 215/390/354 323/391/355
f 323/391/355 215/390/354 306/392/356
f 323/391/355 306/392/356 319/393/357
f 319/394/357 306/395/356 307/396/358
f 319/394/357 307/396/358 329/397/359
f 329/397/359 307/396/358 308/398/360
f 329/397/359 308/398/360 332/399/361
f 332/399/361 308/398/360 309/400/362
f 332/399/361 309/400/362 335/401/363
f 335/401/363 309/400/362 310/402/364
f 335/401/363 310/402/364 338/403/365
f 338/403/365 310/402/364 311/404/366
f 338/403/365 311/404/366 341/405/367
f 341/405/367 311/404/366 312/406/368
f 341/405/367 312/406/368 344/407/369
f 344/407/369 312/406/368 313/408/370
f 344/407/369 313/408/370 347/409/371
f 347/409/371 313/408/370 314/410/372
f 347/409/371 314/410/372 350/411/373
f 350/411/373 314/410/372 315/412/374
f 350/411/373 315/412/374 353/413/375
f 353/413/375 315/412/374 316/414/376
f 353/413/375 316/414/376 356/415/377
f 356/415/377 316/414/376 317/416/378
f 356/415/377 317/416/378 322/417/379
f 322/417/379 317/416/378 207/418/380
f 322/417/379 207/418/380 220/419/381
f 322/417/379 220/419/381 361/420/382
f 361/420/382 220/419/381 219/421/383
f 361/420/382 219/421/383 362/422/384
f 362/422/384 219/421/383 218/423/385
f 362/422/384 218/423/385 364/424/386
f 364/424/386 218/423/385 217/425/387
f 364/424/386 217/425/387 327/426/388
f 327/426/388 217/425/387 328/427/389
f 327/426/388 328/427/389 324/428/390
f 324/428/390 328/427/389 323/391/355
f 324/428/390 323/391/355 320/429/391
f 320/429/391 323/391/355 319/393/357
f 320/430/391 319/394/357 330/431/392
f 330/431/392 319/394/357 329/397/359
f 330/431/392 329/397/359 333/432/393
f 333/432/393 329/397/359 332/399/361
f 333/432/393 332/399/361 336/433/394
f 336/433/394 332/399/361 335/401/363
f 336/433/394 335/401/363 339/434/395
f 339/434/395 335/401/363 338/403/365
f 339/434/395 338/403/365 342/435/396
f 342/435/396 338/403/365 341/405/367
f 342/435/396 341/405/367 345/436/397
f 345/436/397 341/405/367 344/407/369
f 345/436/397 344/407/369 348/437/398
f 348/437/398 344/407/369 347/409/371
f 348/437/398 347/409/371 351/438/399
f 351/438/399 347/409/371 350/411/373
f 351/438/399 350/411/373 354/439/400
f 354/439/400 350/411/373 353/413/375
f 354/439/400 353/413/375 357/440/401
f 357/440/401 353/413/375 356/415/377
f 357/440/401 356/415/377 359/441/402
f 359/441/402 356/415/377 322/417/379
f 359/441/402 322/417/379 362/422/384
f 362/422/384 322/417/379 361/420/382
f 217/425/387 216/389/353 328/427/389
f 328/427/389 216/389/353 323/391/355
f 321/442/403 318/443/404 325/444/405
f 325/444/405 318/445/404 326/446/406
f 326/446/406 318/447/404 365/448/407
f 365/448/407 318/449/404 363/450/408
f 363/450/408 318/451/404 360/452/409
f 358/453/410 318/454/404 355/455/411
f 355/455/411 318/456/404 352/457/412
f 352/457/412 318/458/404 349/459/413
f 349/459/413 318/460/404 346/461/414
f 343/462/415 318/463/404 340/464/416
f 340/464/416 318/465/404 337/466/417
f 337/466/417 318/467/404 334/468/418
f 334/468/418 318/469/404 331/470/419
f 331/470/419 318/471/404 321/472/403
f 320/429/391 321/442/403 324/428/390
f 324/428/390 321/442/403 325/444/405
f 324/428/390 325/444/405 327/426/388
f 327/426/388 325/444/405 326/446/406
f 327/426/388 326/446/406 364/424/386
f 364/424/386 326/446/406 365/448/407
f 364/424/386 365/448/407 362/422/384
f 362/422/384 365/448/407 363/450/408
f 362/422/384 363/450/408 359/441/402
f 359/441/402 363/450/408 360/452/409
f 359/441/402 360/452/409 357/440/401
f 357/440/401 360/452/409 358/453/410
f 357/440/401 358/453/410 354/439/400
f 354/439/400 358/453/410 355/455/411
f 354/439/400 355/455/411 351/438/399
f 351/438/399 355/455/411 352/457/412
f 351/438/399 352/457/412 348/437/398
f 348/437/398 352/457/412 349/459/413
f 348/437/398 349/459/413 345/436/397
f 345/436/397 349/459/413 346/461/414
f 345/436/397 346/461/414 342/435/396
f 342/435/396 346/461/414 343/462/415
f 342/435/396 343/462/415 339/434/395
f 339/434/395 343/462/415 340/464/416
f 339/434/395 340/464/416 336/433/394
f 336/433/394 340/464/416 337/466/417
f 336/433/394 337/466/417 333/432/393
f 333/432/393 337/466/417 334/468/418
f 333/432/393 334/468/418 330/431/392
f 330/431/392 334/468/418 331/470/419
f 330/431/392 331/470/419 320/430/391
f 320/430/391 331/470/419 321/472/403
f 360/452/409 318/473/404 358/453/410
f 346/461/414 318/474/404 343/462/415
f 367/475/420 307/476/421 366/477/422
f 366/477/422 307/476/421 306/478/423
f 366/477/422 306/478/423 377/479/424
f 377/479/424 306/478/423 215/480/425
f 377/479/424 215/480/425 376/481/426
f 376/481/426 215/480/425 214/482/427
f 376/481/426 214/482/427 208/483/428
f 368/484/429 309/485/430 367/475/420
f 367/475/420 309/485/430 308/486/431
f 367/475/420 308/486/431 307/476/421
f 309/485/430 368/484/429 310/487/432
f 310/487/432 368/484/429 369/488/433
f 310/487/432 369/488/433 311/489/434
f 311/489/434 369/488/433 370/490/435
f 311/489/434 370/490/435 312/491/436
f 312/491/436 370/490/435 313/492/437
f 313/492/437 370/490/435 371/493/438
f 313/492/437 371/493/438 314/494/439
f 314/494/439 371/493/438 372/495/440
f 314/494/439 372/495/440 315/496/441
f 315/496/441 372/495/440 373/497/442
f 315/496/441 373/497/442 316/498/443
f 316/498/443 373/497/442 374/499/444
f 316/498/443 374/499/444 317/500/445
f 317/500/445 374/499/444 207/501/446
f 207/501/446 374/499/444 375/502/447
f 207/501/446 375/502/447 376/481/426
f 208/483/428 207/501/446 376/481/426
f 208/503/448 214/504/449 209/505/450
f 209/505/450 214/504/449 213/506/451
f 209/505/450 213/506/451 210/507/452
f 210/507/452 213/506/451 212/508/453
f 210/507/452 212/508/453 211/509/454
f 377/510/455 381/511/456 366/512/457
f 366/512/457 381/511/456 379/513/458
f 366/514/457 379/515/458 367/516/459
f 367/516/459 379/515/458 401/517/460
f 367/516/459 401/517/460 368/518/461
f 368/518/461 401/517/460 399/519/462
f 368/518/461 399/519/462 369/520/463
f 369/520/463 399/519/462 397/521/464
f 369/520/463 397/521/464 370/522/465
f 370/522/465 397/521/464 395/523/466
f 370/522/465 395/523/466 371/524/467
f 371/524/467 395/523/466 393/525/468
f 371/524/467 393/525/468 372/526/469
f 372/526/469 393/525/468 391/527/470
f 372/526/469 391/527/470 373/528/471
f 373/528/471 391/527/470 389/529/472
f 373/528/471 389/529/472 374/530/473
f 374/530/473 389/529/472 387/531/474
f 374/530/473 387/531/474 375/532/475
f 375/532/475 387/531/474 385/533/476
f 375/532/475 385/533/476 376/534/477
f 376/534/477 385/533/476 383/535/478
f 376/534/477 383/535/478 377/510/455
f 377/510/455 383/535/478 381/511/456
f 380/536/479 378/537/480 402/538/481
f 402/538/481 378/539/480 400/540/482
f 400/540/482 378/541/480 398/542/483
f 398/542/483 378/543/480 396/544/484
f 394/545/485 378/546/480 392/547/486
f 392/547/486 378/548/480 390/549/487
f 390/549/487 378/550/480 388/551/488
f 386/552/489 378/553/480 384/554/490
f 384/554/490 378/555/480 382/556/491
f 382/556/491 378/557/480 380/558/479
f 379/515/458 380/536/479 401/517/460
f 401/517/460 380/536/479 402/538/481
f 401/517/460 402/538/481 399/519/462
f 399/519/462 402/538/481 400/540/482
f 399/519/462 400/540/482 397/521/464
f 397/521/464 400/540/482 398/542/483
f 397/521/464 398/542/483 395/523/466
f 395/523/466 398/542/483 396/544/484
f 395/523/466 396/544/484 393/525/468
f 393/525/468 396/544/484 394/545/485
f 393/525/468 394/545/485 391/527/470
f 391/527/470 394/545/485 392/547/486
f 391/527/470 392/547/486 389/529/472
f 389/529/472 392/547/486 390/549/487
f 389/529/472 390/549/487 387/531/474
f 387/531/474 390/549/487 388/551/488
f 387/531/474 388/551/488 385/533/476
f 385/533/476 388/551/488 386/552/489
f 385/533/476 386/552/489 383/535/478
f 383/535/478 386/552/489 384/554/490
f 383/535/478 384/554/490 381/511/456
f 381/511/456 384/554/490 382/556/491
f 381/511/456 382/556/491 379/513/458
f 379/513/458 382/556/491 380/558/479
f 388/551/488 378/559/480 386/552/489
f 396/544/484 378/560/480 394/545/485
f 221/561/492 206/562/493 408/563/494
f 408/563/494 206/562/493 205/564/495
f 408/563/494 205/564/495 414/565/496
f 414/565/496 205/564/495 204/566/497
f 414/565/496 204/566/497 417/567/498
f 417/567/498 204/566/497 203/568/499
f 417/567/498 203/568/499 420/569/500
f 420/569/500 203/568/499 202/570/501
f 420/569/500 202/570/501 423/571/502
f 423/571/502 202/570/501 201/572/503
f 423/571/502 201/572/503 426/573/504
f 426/573/504 201/572/503 200/574/505
f 426/573/504 200/574/505 429/575/506
f 429/575/506 200/574/505 199/576/507
f 429/575/506 199/576/507 432/577/508
f 432/577/508 199/576/507 198/578/509
f 432/577/508 198/578/509 435/579/510
f 435/579/510 198/578/509 197/580/511
f 435/579/510 197/580/511 404/581/512
f 404/582/512 197/583/511 196/584/513
f 404/582/512 196/584/513 438/585/514
f 438/585/514 196/584/513 195/586/515
f 438/585/514 195/586/515 441/587/516
f 441/587/516 195/586/515 194/588/517
f 441/587/516 194/588/517 407/589/518
f 407/589/518 194/588/517 193/590/519
f 407/589/518 193/590/519 225/591/520
f 407/589/518 225/591/520 446/592/521
f 446/592/521 225/591/520 224/593/522
f 446/592/521 224/593/522 447/594/523
f 447/594/523 224/593/522 223/595/524
f 447/594/523 223/595/524 449/596/525
f 449/596/525 223/595/524 222/597/526
f 449/596/525 222/597/526 412/598/527
f 412/598/527 222/597/526 413/599/528
f 412/598/527 413/599/528 409/600/529
f 409/600/529 413/599/528 408/563/494
f 409/600/529 408/563/494 415/601/530
f 415/601/530 408/563/494 414/565/496
f 415/601/530 414/565/496 418/602/531
f 418/602/531 414/565/496 417/567/498
f 418/602/531 417/567/498 421/603/532
f 421/603/532 417/567/498 420/569/500
f 421/603/532 420/569/500 424/604/533
f 424/604/533 420/569/500 423/571/502
f 424/604/533 423/571/502 427/605/534
f 427/605/534 423/571/502 426/573/504
f 427/605/534 426/573/504 430/606/535
f 430/606/535 426/573/504 429/575/506
f 430/606/535 429/575/506 433/607/536
f 433/607/536 429/575/506 432/577/508
f 433/607/536 432/577/508 436/608/537
f 436/608/537 432/577/508 435/579/510
f 436/608/537 435/579/510 405/609/538
f 405/609/538 435/579/510 404/581/512
f 405/610/538 404/582/512 439/611/539
f 439/611/539 404/582/512 438/585/514
f 439/611/539 438/585/514 442/612/540
f 442/612/540 438/585/514 441/587/516
f 442/612/540 441/587/516 444/613/541
f 444/613/541 441/587/516 407/589/518
f 444/613/541 407/589/518 447/594/523
f 447/594/523 407/589/518 446/592/521
f 222/597/526 221/561/492 413/599/528
f 413/599/528 221/561/492 408/563/494
f 406/614/542 403/615/543 437/616/544
f 437/616/544 403/617/543 434/618/545
f 434/618/545 403/619/543 431/620/546
f 431/620/546 403/621/543 428/622/547
f 428/622/547 403/623/543 425/624/548
f 422/625/549 403/626/543 419/627/550
f 419/627/550 403/628/543 416/629/551
f 416/629/551 403/630/543 410/631/552
f 410/631/552 403/632/543 411/633/553
f 450/634/554 403/635/543 448/636/555
f 448/636/555 403/637/543 445/638/556
f 445/638/556 403/639/543 443/640/557
f 443/640/557 403/641/543 440/642/558
f 440/642/558 403/643/543 406/644/542
f 405/609/538 406/614/542 436/608/537
f 436/608/537 406/614/542 437/616/544
f 436/608/537 437/616/544 433/607/536
f 433/607/536 437/616/544 434/618/545
f 433/607/536 434/618/545 430/606/535
f 430/606/535 434/618/545 431/620/546
f 430/606/535 431/620/546 427/605/534
f 427/605/534 431/620/546 428/622/547
f 427/605/534 428/622/547 424/604/533
f 424/604/533 428/622/547 425/624/548
f 424/604/533 425/624/548 421/603/532
f 421/603/532 425/624/548 422/625/549
f 421/603/532 422/625/549 418/602/531
f 418/602/531 422/625/549 419/627/550
f 418/602/531 419/627/550 415/601/530
f 415/601/530 419/627/550 416/629/551
f 415/601/530 416/629/551 409/600/529
f 409/600/529 416/629/551 410/631/552
f 409/600/529 410/631/552 412/598/527
f 412/598/527 410/631/552 411/633/553
f 412/598/527 411/633/553 449/596/525
f 449/596/525 411/633/553 450/634/554
f 449/596/525 450/634/554 447/594/523
f 447/594/523 450/634/554 448/636/555
f 447/594/523 448/636/555 444/613/541
f 444/613/541 448/636/555 445/638/556
f 444/613/541 445/638/556 442/612/540
f 442/612/540 445/638/556 443/640/557
f 442/612/540 443/640/557 439/611/539
f 439/611/539 443/640/557 440/642/558
f 439/611/539 440/642/558 405/610/538
f 405/610/538 440/642/558 406/644/542
f 425/624/548 403/645/543 422/625/549
f 411/633/553 403/646/543 450/634/554
# 450 vertices
# 646 texture params
# 558 normals
# 892 facets

# 1 groups
