# WaveFront *.obj file (generated by Autodesk ATF)

mtllib body1_visual.mtl

g Body1

v 0.400000 6.141888 1.080173
v 0.346410 6.176530 0.883196
v 0.200000 6.201890 0.738999
v 0.000000 6.211173 0.686219
v -0.200000 6.201890 0.738999
v -0.346410 6.176530 0.883196
v -0.400000 6.141888 1.080173
v -0.346410 6.107246 1.277150
v -0.200000 6.081886 1.421347
v 0.000000 6.072603 1.474127
v 0.200000 6.081886 1.421347
v 0.346410 6.107246 1.277150
v 0.000000 6.224111 1.094633
v 0.400000 53.580797 9.423246
v 0.346410 53.546155 9.620223
v 0.200000 53.520795 9.764420
v -0.000000 53.511513 9.817200
v -0.200000 53.520795 9.764420
v -0.346410 53.546155 9.620223
v -0.400000 53.580797 9.423246
v -0.346410 53.615440 9.226269
v -0.200000 53.640799 9.082072
v -0.000000 53.650082 9.029292
v 0.200000 53.640799 9.082072
v 0.346410 53.615440 9.226269
v -0.000000 53.498574 9.408785
v 0.400000 10.454516 1.838634
v 0.400000 14.767144 2.597095
v 0.400000 19.079772 3.355556
v 0.400000 23.392400 4.114018
v 0.400000 27.705029 4.872479
v 0.400000 32.017657 5.630940
v 0.400000 36.330285 6.389401
v 0.400000 40.642913 7.147862
v 0.400000 44.955541 7.906324
v 0.400000 49.268169 8.664785
v 0.346410 10.419874 2.035611
v 0.346410 14.732502 2.794072
v 0.346410 19.045130 3.552533
v 0.346410 23.357758 4.310995
v 0.346410 27.670386 5.069456
v 0.346410 31.983014 5.827917
v 0.346410 36.295643 6.586378
v 0.346410 40.608271 7.344839
v 0.346410 44.920899 8.103300
v 0.346410 49.233527 8.861762
v 0.200000 10.394514 2.179808
v 0.200000 14.707142 2.938269
v 0.200000 19.019770 3.696730
v 0.200000 23.332398 4.455192
v 0.200000 27.645026 5.213653
v 0.200000 31.957654 5.972114
v 0.200000 36.270283 6.730575
v 0.200000 40.582911 7.489036
v 0.200000 44.895539 8.247498
v 0.200000 49.208167 9.005959
v 0.000000 10.385232 2.232588
v 0.000000 14.697860 2.991049
v 0.000000 19.010488 3.749510
v 0.000000 23.323116 4.507971
v 0.000000 27.635744 5.266433
v 0.000000 31.948372 6.024894
v -0.000000 36.261000 6.783355
v -0.000000 40.573628 7.541816
v -0.000000 44.886256 8.300277
v -0.000000 49.198885 9.058739
v -0.200000 10.394514 2.179808
v -0.200000 14.707142 2.938269
v -0.200000 19.019770 3.696730
v -0.200000 23.332398 4.455192
v -0.200000 27.645026 5.213653
v -0.200000 31.957654 5.972114
v -0.200000 36.270283 6.730575
v -0.200000 40.582911 7.489036
v -0.200000 44.895539 8.247498
v -0.200000 49.208167 9.005959
v -0.346410 10.419874 2.035611
v -0.346410 14.732502 2.794072
v -0.346410 19.045130 3.552533
v -0.346410 23.357758 4.310995
v -0.346410 27.670386 5.069456
v -0.346410 31.983014 5.827917
v -0.346410 36.295643 6.586378
v -0.346410 40.608271 7.344839
v -0.346410 44.920899 8.103300
v -0.346410 49.233527 8.861762
v -0.400000 10.454516 1.838634
v -0.400000 14.767144 2.597095
v -0.400000 19.079772 3.355556
v -0.400000 23.392400 4.114018
v -0.400000 27.705029 4.872479
v -0.400000 32.017657 5.630940
v -0.400000 36.330285 6.389401
v -0.400000 40.642913 7.147862
v -0.400000 44.955541 7.906324
v -0.400000 49.268169 8.664785
v -0.346410 10.489158 1.641657
v -0.346410 14.801787 2.400118
v -0.346410 19.114415 3.158579
v -0.346410 23.427043 3.917041
v -0.346410 27.739671 4.675502
v -0.346410 32.052299 5.433963
v -0.346410 36.364927 6.192424
v -0.346410 40.677555 6.950885
v -0.346410 44.990183 7.709347
v -0.346410 49.302811 8.467808
v -0.200000 10.514518 1.497460
v -0.200000 14.827147 2.255921
v -0.200000 19.139775 3.014382
v -0.200000 23.452403 3.772844
v -0.200000 27.765031 4.531305
v -0.200000 32.077659 5.289766
v -0.200000 36.390287 6.048227
v -0.200000 40.702915 6.806688
v -0.200000 45.015543 7.565150
v -0.200000 49.328171 8.323611
v 0.000000 10.523801 1.444680
v -0.000000 14.836429 2.203141
v -0.000000 19.149057 2.961603
v -0.000000 23.461685 3.720064
v -0.000000 27.774313 4.478525
v -0.000000 32.086941 5.236986
v -0.000000 36.399569 5.995447
v -0.000000 40.712198 6.753909
v -0.000000 45.024826 7.512370
v -0.000000 49.337454 8.270831
v 0.200000 10.514518 1.497460
v 0.200000 14.827147 2.255921
v 0.200000 19.139775 3.014382
v 0.200000 23.452403 3.772844
v 0.200000 27.765031 4.531305
v 0.200000 32.077659 5.289766
v 0.200000 36.390287 6.048227
v 0.200000 40.702915 6.806688
v 0.200000 45.015543 7.565150
v 0.200000 49.328171 8.323611
v 0.346410 10.489158 1.641657
v 0.346410 14.801787 2.400118
v 0.346410 19.114415 3.158579
v 0.346410 23.427043 3.917041
v 0.346410 27.739671 4.675502
v 0.346410 32.052299 5.433963
v 0.346410 36.364927 6.192424
v 0.346410 40.677555 6.950885
v 0.346410 44.990183 7.709347
v 0.346410 49.302811 8.467808
v 0.000000 5.239226 1.421422
v -0.000000 5.489226 1.354435
v -0.000000 5.672239 1.171422
v -0.000000 5.739226 0.921422
v -0.000000 5.672239 0.671422
v -0.000000 5.489226 0.488409
v -0.000000 5.239226 0.421422
v -0.000000 4.989226 0.488409
v -0.000000 4.806214 0.671422
v -0.000000 4.739226 0.921422
v -0.000000 4.806214 1.171422
v 0.000000 4.989226 1.354435
v 0.500000 5.239226 0.921422
v 0.250000 5.672239 0.921422
v 0.433013 5.489226 0.921422
v 0.250000 5.455733 1.296422
v 0.433013 5.364226 1.137928
v 0.433013 5.239226 1.171422
v 0.250000 5.239226 1.354435
v 0.250000 5.614226 1.137928
v 0.433013 5.455733 1.046422
v 0.250000 5.614226 0.704916
v 0.433013 5.455733 0.796422
v 0.250000 5.455733 0.546422
v 0.433013 5.364226 0.704916
v 0.250000 5.239226 0.488409
v 0.433013 5.239226 0.671422
v 0.250000 5.022720 0.546422
v 0.433013 5.114226 0.704916
v 0.250000 4.864226 0.704916
v 0.433013 5.022720 0.796422
v 0.250000 4.806214 0.921422
v 0.433013 4.989226 0.921422
v 0.250000 4.864226 1.137928
v 0.433013 5.022720 1.046422
v 0.250000 5.022720 1.296422
v 0.433013 5.114226 1.137928
v -0.000000 6.005556 1.563870
v -0.000000 6.039017 1.569755
v -0.000000 6.212228 0.584870
v -0.000000 6.178767 0.578985
v -0.000000 5.969361 0.238118
v -0.000000 5.643103 0.006608
v -0.000000 5.252208 -0.078494
v -0.000000 4.859236 -0.003568
v -0.000000 4.527078 0.219393
v -0.000000 4.308892 0.554709
v -0.000000 4.239599 0.948713
v 0.000000 4.330287 1.338350
v 0.000000 4.566443 1.661261
v 0.000000 4.910271 1.865767
v 0.000000 5.306746 1.919140
v 0.000000 5.692416 1.812836
v -0.250000 6.050620 1.503780
v -0.433013 6.082320 1.323533
v -0.500000 6.125623 1.077312
v -0.433013 6.168925 0.831091
v -0.250000 6.200625 0.650845
v 0.250000 6.167164 0.644960
v 0.433013 6.135464 0.825206
v 0.500000 6.092161 1.071427
v 0.433013 6.048859 1.317649
v 0.250000 6.017159 1.497895
v 1.000000 5.239226 0.921422
v 0.707107 5.946333 0.921422
v 0.923880 5.621910 0.921422
v 0.382683 5.892508 1.574703
v 0.707107 5.739226 1.421422
v 0.923880 5.509824 1.192020
v 0.923880 5.592780 1.067868
v 0.707107 5.892508 1.192020
v 0.382683 5.592780 1.774975
v 0.707107 5.509824 1.574703
v 0.923880 5.385673 1.274975
v 0.382683 5.239226 1.845301
v 0.707107 5.239226 1.628529
v 0.923880 5.239226 1.304105
v 0.382683 4.885673 1.774975
v 0.707107 4.968628 1.574703
v 0.923880 5.092780 1.274975
v 0.382683 4.585945 1.574703
v 0.707107 4.739226 1.421422
v 0.923880 4.968628 1.192020
v 0.382683 4.385673 1.274975
v 0.707107 4.585945 1.192020
v 0.923880 4.885673 1.067868
v 0.382683 4.315347 0.921422
v 0.707107 4.532120 0.921422
v 0.923880 4.856543 0.921422
v 0.382683 4.385673 0.567868
v 0.707107 4.585945 0.650824
v 0.923880 4.885673 0.774975
v 0.382683 4.585945 0.268140
v 0.707107 4.739226 0.421422
v 0.923880 4.968628 0.650824
v 0.382683 5.239226 -0.002458
v 0.707107 5.239226 0.214315
v 0.923880 5.239226 0.538738
v 0.923880 5.093037 0.567762
v 0.707107 4.969580 0.267747
v 0.382683 4.887539 0.067098
v 0.382683 5.592780 0.067868
v 0.707107 5.509824 0.268140
v 0.923880 5.385673 0.567868
v 0.382683 5.892508 0.268140
v 0.707107 5.739226 0.421422
v 0.923880 5.509824 0.650824
v 0.382683 6.092780 0.567868
v 0.707107 5.892508 0.650824
v 0.923880 5.592780 0.774975
v -0.000000 53.717130 8.939549
v -0.000000 54.030270 8.690583
v -0.000000 54.415939 8.584279
v -0.000000 54.812414 8.637651
v -0.000000 55.156243 8.842158
v -0.000000 55.392398 9.165069
v -0.000000 55.483086 9.554706
v -0.000000 55.413793 9.948710
v -0.000000 55.195608 10.284025
v -0.000000 54.863449 10.506987
v -0.000000 54.470477 10.581913
v -0.000000 54.079582 10.496810
v -0.000000 53.753324 10.265300
v -0.000000 53.543918 9.924434
v 0.250000 53.555521 9.858459
v 0.433013 53.587221 9.678213
v 0.500000 53.630524 9.431991
v 0.433013 53.673827 9.185770
v 0.250000 53.705527 9.005524
v 1.000000 54.483459 9.581997
v 0.382683 55.407338 9.581997
v 0.707107 55.190566 9.581997
v 0.923880 54.866142 9.581997
v 0.382683 53.830177 8.928715
v 0.707107 53.983459 9.081997
v 0.923880 54.212861 9.311399
v 0.923880 54.129906 9.435550
v 0.707107 53.830177 9.311399
v 0.382683 54.129906 8.728444
v 0.707107 54.212861 8.928715
v 0.923880 54.337012 9.228444
v 0.382683 54.483459 8.658117
v 0.707107 54.483459 8.874890
v 0.923880 54.483459 9.199313
v 0.382683 54.837012 8.728444
v 0.707107 54.754057 8.928715
v 0.923880 54.629906 9.228444
v 0.382683 55.136740 8.928715
v 0.707107 54.983459 9.081997
v 0.923880 54.754057 9.311399
v 0.382683 55.337012 9.228444
v 0.707107 55.136740 9.311399
v 0.923880 54.837012 9.435550
v 0.382683 55.337012 9.935550
v 0.707107 55.136740 9.852595
v 0.923880 54.837012 9.728444
v 0.382683 55.136740 10.235278
v 0.707107 54.983459 10.081997
v 0.923880 54.754057 9.852595
v 0.382683 54.483459 10.505876
v 0.707107 54.483459 10.289104
v 0.923880 54.483459 9.964680
v 0.923880 54.629648 9.935657
v 0.707107 54.753105 10.235672
v 0.382683 54.835147 10.436321
v 0.382683 54.129906 10.435550
v 0.707107 54.212861 10.235278
v 0.923880 54.337012 9.935550
v 0.382683 53.830177 10.235278
v 0.707107 53.983459 10.081997
v 0.923880 54.212861 9.852595
v 0.382683 53.629906 9.935550
v 0.707107 53.830177 9.852595
v 0.923880 54.129906 9.728444
v 0.707107 53.776352 9.581997
v 0.923880 54.100775 9.581997
v -0.000000 53.510457 9.918549
v -0.250000 53.522060 9.852574
v -0.433013 53.553760 9.672328
v -0.500000 53.597063 9.426107
v -0.433013 53.640366 9.179885
v -0.250000 53.672066 8.999639
v -0.000000 53.683668 8.933664
v 0.500000 11.374202 2.000379
v 0.500000 16.656242 2.929331
v 0.500000 21.938282 3.858282
v 0.500000 27.220323 4.787234
v 0.500000 32.502363 5.716185
v 0.500000 37.784403 6.645137
v 0.500000 43.066443 7.574088
v 0.500000 48.348484 8.503040
v 0.250000 11.299199 2.426847
v 0.250000 16.581239 3.355798
v 0.250000 21.863279 4.284750
v 0.250000 27.145320 5.213701
v 0.250000 32.427360 6.142653
v 0.250000 37.709400 7.071604
v 0.250000 42.991441 8.000556
v 0.250000 48.273481 8.929507
v -0.250000 48.273481 8.929507
v -0.250000 42.991441 8.000556
v -0.250000 37.709400 7.071604
v -0.250000 32.427360 6.142653
v -0.250000 27.145320 5.213701
v -0.250000 21.863279 4.284750
v -0.250000 16.581239 3.355798
v -0.250000 11.299199 2.426847
v 0.433013 11.330899 2.246600
v 0.433013 16.612939 3.175552
v 0.433013 21.894979 4.104503
v 0.433013 27.177020 5.033455
v 0.433013 32.459060 5.962406
v 0.433013 37.741100 6.891358
v 0.433013 43.023140 7.820309
v 0.433013 48.305181 8.749261
v 0.433013 11.417505 1.754158
v 0.433013 16.699545 2.683109
v 0.433013 21.981585 3.612061
v 0.433013 27.263625 4.541012
v 0.433013 32.545666 5.469964
v 0.433013 37.827706 6.398916
v 0.433013 43.109746 7.327867
v 0.433013 48.391786 8.256819
v 0.250000 11.449205 1.573911
v 0.250000 16.731245 2.502863
v 0.250000 22.013285 3.431815
v 0.250000 27.295325 4.360766
v 0.250000 32.577366 5.289718
v 0.250000 37.859406 6.218669
v 0.250000 43.141446 7.147621
v 0.250000 48.423486 8.076572
v -0.250000 11.449205 1.573911
v -0.250000 16.731245 2.502863
v -0.250000 22.013285 3.431815
v -0.250000 27.295325 4.360766
v -0.250000 32.577366 5.289718
v -0.250000 37.859406 6.218669
v -0.250000 43.141446 7.147621
v -0.250000 48.423486 8.076572
v -0.433013 11.417505 1.754158
v -0.433013 16.699545 2.683109
v -0.433013 21.981585 3.612061
v -0.433013 27.263625 4.541012
v -0.433013 32.545666 5.469964
v -0.433013 37.827706 6.398916
v -0.433013 43.109746 7.327867
v -0.433013 48.391786 8.256819
v -0.500000 11.374202 2.000379
v -0.500000 16.656242 2.929331
v -0.500000 21.938282 3.858282
v -0.500000 27.220323 4.787234
v -0.500000 32.502363 5.716185
v -0.500000 37.784403 6.645137
v -0.500000 43.066443 7.574088
v -0.500000 48.348484 8.503040
v -0.433013 11.330899 2.246600
v -0.433013 16.612939 3.175552
v -0.433013 21.894979 4.104503
v -0.433013 27.177020 5.033455
v -0.433013 32.459060 5.962406
v -0.433013 37.741100 6.891358
v -0.433013 43.023140 7.820309
v -0.433013 48.305181 8.749261
v -0.000000 54.483459 10.081997
v -0.000000 54.233459 10.015010
v -0.000000 54.050446 9.831997
v -0.000000 53.983459 9.581997
v -0.000000 54.050446 9.331997
v -0.000000 54.233459 9.148984
v -0.000000 54.483459 9.081997
v -0.000000 54.733459 9.148984
v -0.000000 54.916472 9.331997
v -0.000000 54.983459 9.581997
v -0.000000 54.916472 9.831997
v -0.000000 54.733459 10.015010
v 0.500000 54.483459 9.581997
v 0.250000 54.916472 9.581997
v 0.433013 54.733459 9.581997
v 0.250000 54.699965 9.956997
v 0.433013 54.608459 9.798503
v 0.433013 54.483459 9.831997
v 0.250000 54.483459 10.015010
v 0.250000 54.858459 9.798503
v 0.433013 54.699965 9.706997
v 0.250000 54.858459 9.365491
v 0.433013 54.699965 9.456997
v 0.250000 54.699965 9.206997
v 0.433013 54.608459 9.365491
v 0.250000 54.483459 9.148984
v 0.433013 54.483459 9.331997
v 0.250000 54.266953 9.206997
v 0.433013 54.358459 9.365491
v 0.250000 54.108459 9.365491
v 0.433013 54.266953 9.456997
v 0.250000 54.050446 9.581997
v 0.433013 54.233459 9.581997
v 0.250000 54.108459 9.798503
v 0.433013 54.266953 9.706997
v 0.250000 54.266953 9.956997
v 0.433013 54.358459 9.798503
vt 0.038235 1.198392 0.000000
vt 0.183450 1.345307 0.000000
vt -0.159425 1.136229 0.000000
vt -0.174090 1.547053 0.000000
vt -0.363693 1.173079 0.000000
vt -0.585606 1.547053 0.000000
vt -0.523512 1.317544 0.000000
vt 0.237427 1.547053 0.000000
vt 0.183450 1.748800 0.000000
vt 0.038235 1.895714 0.000000
vt -0.159425 1.957878 0.000000
vt -0.363693 1.921028 0.000000
vt -0.523512 1.776563 0.000000
vt 0.363693 -1.173079 0.000000
vt 0.159425 -1.136229 0.000000
vt 0.174090 -1.547053 0.000000
vt -0.038235 -1.198392 0.000000
vt -0.183450 -1.345307 0.000000
vt -0.237427 -1.547053 0.000000
vt -0.038235 -1.895714 0.000000
vt 0.159425 -1.957878 0.000000
vt -0.183450 -1.748800 0.000000
vt 0.363693 -1.921028 0.000000
vt 0.523512 -1.776563 0.000000
vt 0.585606 -1.547053 0.000000
vt 0.523512 -1.317544 0.000000
vt 0.916515 1.047198 0.000000
vt 5.295331 1.047198 0.000000
vt 0.916515 1.256637 0.000000
vt 5.295331 1.256637 0.000000
vt 0.916515 -1.256637 0.000000
vt 5.295331 -1.256637 0.000000
vt 0.916515 -1.047198 0.000000
vt 5.295331 -1.047198 0.000000
vt 0.916515 -0.837758 0.000000
vt 5.295331 -0.837758 0.000000
vt 0.916515 -0.628319 0.000000
vt 5.295331 -0.628319 0.000000
vt 0.916515 -0.418879 0.000000
vt 5.295331 -0.418879 0.000000
vt 0.916515 -0.209440 0.000000
vt 5.295331 -0.209440 0.000000
vt 0.916515 -0.000000 0.000000
vt 5.295331 0.000000 0.000000
vt 0.916515 0.209440 0.000000
vt 5.295331 0.209440 0.000000
vt 0.916515 0.418879 0.000000
vt 5.295331 0.418879 0.000000
vt 0.916515 0.628319 0.000000
vt 5.295331 0.628319 0.000000
vt 0.916515 0.837758 0.000000
vt 5.295331 0.837758 0.000000
vt 49.083485 -1.047198 0.000000
vt 44.704669 -1.047198 0.000000
vt 49.083485 -1.256637 0.000000
vt 44.704669 -1.256637 0.000000
vt 49.083485 1.256637 0.000000
vt 44.704669 1.256637 0.000000
vt 49.083485 1.047198 0.000000
vt 44.704669 1.047198 0.000000
vt 49.083485 0.837758 0.000000
vt 44.704669 0.837758 0.000000
vt 49.083485 0.628319 0.000000
vt 44.704669 0.628319 0.000000
vt 49.083485 0.418879 0.000000
vt 44.704669 0.418879 0.000000
vt 49.083485 0.209440 0.000000
vt 44.704669 0.209440 0.000000
vt 49.083485 0.000000 0.000000
vt 44.704669 0.000000 0.000000
vt 49.083485 -0.209440 0.000000
vt 44.704669 -0.209440 0.000000
vt 49.083485 -0.418879 0.000000
vt 44.704669 -0.418879 0.000000
vt 49.083485 -0.628319 0.000000
vt 44.704669 -0.628319 0.000000
vt 49.083485 -0.837758 0.000000
vt 44.704669 -0.837758 0.000000
vt 9.674146 -1.256637 0.000000
vt 9.674146 -1.047198 0.000000
vt 9.674146 -0.837758 0.000000
vt 9.674146 -0.628319 0.000000
vt 9.674146 -0.418879 0.000000
vt 9.674146 -0.209440 0.000000
vt 9.674146 0.000000 0.000000
vt 9.674146 0.209440 0.000000
vt 9.674146 0.418879 0.000000
vt 9.674146 0.628319 0.000000
vt 9.674146 0.837758 0.000000
vt 9.674146 1.047198 0.000000
vt 9.674146 1.256637 0.000000
vt 14.052961 -1.256637 0.000000
vt 14.052961 -1.047198 0.000000
vt 14.052961 -0.837758 0.000000
vt 14.052961 -0.628319 0.000000
vt 14.052961 -0.418879 0.000000
vt 14.052961 -0.209440 0.000000
vt 14.052961 0.000000 0.000000
vt 14.052961 0.209440 0.000000
vt 14.052961 0.418879 0.000000
vt 14.052961 0.628319 0.000000
vt 14.052961 0.837758 0.000000
vt 14.052961 1.047198 0.000000
vt 14.052961 1.256637 0.000000
vt 18.431777 -1.256637 0.000000
vt 18.431777 -1.047198 0.000000
vt 18.431777 -0.837758 0.000000
vt 18.431777 -0.628319 0.000000
vt 18.431777 -0.418879 0.000000
vt 18.431777 -0.209440 0.000000
vt 18.431777 0.000000 0.000000
vt 18.431777 0.209440 0.000000
vt 18.431777 0.418879 0.000000
vt 18.431777 0.628319 0.000000
vt 18.431777 0.837758 0.000000
vt 18.431777 1.047198 0.000000
vt 18.431777 1.256637 0.000000
vt 22.810592 -1.256637 0.000000
vt 22.810592 -1.047198 0.000000
vt 22.810592 -0.837758 0.000000
vt 22.810592 -0.628319 0.000000
vt 22.810592 -0.418879 0.000000
vt 22.810592 -0.209440 0.000000
vt 22.810592 0.000000 0.000000
vt 22.810592 0.209440 0.000000
vt 22.810592 0.418879 0.000000
vt 22.810592 0.628319 0.000000
vt 22.810592 0.837758 0.000000
vt 22.810592 1.047198 0.000000
vt 22.810592 1.256637 0.000000
vt 27.189408 -1.256637 0.000000
vt 27.189408 -1.047198 0.000000
vt 27.189408 -0.837758 0.000000
vt 27.189408 -0.628319 0.000000
vt 27.189408 -0.418879 0.000000
vt 27.189408 -0.209440 0.000000
vt 27.189408 0.000000 0.000000
vt 27.189408 0.209440 0.000000
vt 27.189408 0.418879 0.000000
vt 27.189408 0.628319 0.000000
vt 27.189408 0.837758 0.000000
vt 27.189408 1.047198 0.000000
vt 27.189408 1.256637 0.000000
vt 31.568223 -1.256637 0.000000
vt 31.568223 -1.047198 0.000000
vt 31.568223 -0.837758 0.000000
vt 31.568223 -0.628319 0.000000
vt 31.568223 -0.418879 0.000000
vt 31.568223 -0.209440 0.000000
vt 31.568223 0.000000 0.000000
vt 31.568223 0.209440 0.000000
vt 31.568223 0.418879 0.000000
vt 31.568223 0.628319 0.000000
vt 31.568223 0.837758 0.000000
vt 31.568223 1.047198 0.000000
vt 31.568223 1.256637 0.000000
vt 35.947039 -1.256637 0.000000
vt 35.947039 -1.047198 0.000000
vt 35.947039 -0.837758 0.000000
vt 35.947039 -0.628319 0.000000
vt 35.947039 -0.418879 0.000000
vt 35.947039 -0.209440 0.000000
vt 35.947039 0.000000 0.000000
vt 35.947039 0.209440 0.000000
vt 35.947039 0.418879 0.000000
vt 35.947039 0.628319 0.000000
vt 35.947039 0.837758 0.000000
vt 35.947039 1.047198 0.000000
vt 35.947039 1.256637 0.000000
vt 40.325854 -1.256637 0.000000
vt 40.325854 -1.047198 0.000000
vt 40.325854 -0.837758 0.000000
vt 40.325854 -0.628319 0.000000
vt 40.325854 -0.418879 0.000000
vt 40.325854 -0.209440 0.000000
vt 40.325854 0.000000 0.000000
vt 40.325854 0.209440 0.000000
vt 40.325854 0.418879 0.000000
vt 40.325854 0.628319 0.000000
vt 40.325854 0.837758 0.000000
vt 40.325854 1.047198 0.000000
vt 40.325854 1.256637 0.000000
vt -0.000000 -0.740480 0.000000
vt 0.261799 -0.740480 0.000000
vt 0.000000 -0.555360 0.000000
vt 0.261799 -0.555360 0.000000
vt -0.000000 -0.370240 0.000000
vt 0.261799 -0.370240 0.000000
vt -0.000000 -0.185120 0.000000
vt 0.261799 -0.185120 0.000000
vt -0.000000 0.000000 0.000000
vt 0.261799 0.000000 0.000000
vt -0.000000 0.185120 0.000000
vt 0.261799 0.185120 0.000000
vt -0.000000 0.370240 0.000000
vt 0.261799 0.370240 0.000000
vt -0.000000 0.555360 0.000000
vt 0.261799 0.555360 0.000000
vt -0.000000 0.740480 0.000000
vt 0.261799 0.740480 0.000000
vt -0.000000 0.925601 0.000000
vt 0.261799 0.925601 0.000000
vt -0.000000 1.110721 0.000000
vt 0.261799 1.110721 0.000000
vt -0.000000 -1.110721 0.000000
vt 0.261799 -1.110721 0.000000
vt -0.000000 -0.925601 0.000000
vt 0.261799 -0.925601 0.000000
vt 0.523599 -1.110721 0.000000
vt 0.785398 -1.110721 0.000000
vt 0.523599 -0.925601 0.000000
vt 0.785398 -0.925601 0.000000
vt 0.523599 -0.740480 0.000000
vt 0.785398 -0.740480 0.000000
vt 0.523599 -0.555360 0.000000
vt 0.785398 -0.555360 0.000000
vt 0.523599 -0.370240 0.000000
vt 0.523599 -0.185120 0.000000
vt 0.785398 -0.185120 0.000000
vt 0.523599 0.000000 0.000000
vt 0.785398 0.000000 0.000000
vt 0.523599 0.185120 0.000000
vt 0.785398 0.185120 0.000000
vt 0.523599 0.370240 0.000000
vt 0.523599 0.555360 0.000000
vt 0.785398 0.555360 0.000000
vt 0.523599 0.740480 0.000000
vt 0.785398 0.740480 0.000000
vt 0.523599 0.925601 0.000000
vt 0.785398 0.925601 0.000000
vt 0.523599 1.110721 0.000000
vt 0.785398 -0.370240 0.000000
vt 0.785398 0.370240 0.000000
vt -0.530230 0.828782 0.000000
vt -0.012950 0.839589 0.000000
vt -0.507558 1.086606 0.000000
vt -0.029058 1.239316 0.000000
vt -0.616835 1.321224 0.000000
vt -0.200557 1.600742 0.000000
vt -0.500000 1.866025 0.000000
vt -0.154810 0.465534 0.000000
vt -0.678776 0.616835 0.000000
vt -0.431935 0.177016 0.000000
vt -0.913394 0.507558 0.000000
vt -0.799974 0.020209 0.000000
vt -1.200026 0.020209 0.000000
vt -1.171218 0.530230 0.000000
vt -1.568065 0.177016 0.000000
vt -1.383165 0.678776 0.000000
vt -1.845190 0.465534 0.000000
vt -1.492442 0.913394 0.000000
vt -1.987050 0.839589 0.000000
vt -1.970942 1.239316 0.000000
vt -1.469770 1.171218 0.000000
vt -1.799443 1.600742 0.000000
vt -1.321224 1.383165 0.000000
vt -1.500000 1.866025 0.000000
vt -1.086606 1.492442 0.000000
vt -1.500000 1.900000 0.000000
vt -0.500000 1.900000 0.000000
vt -0.828782 1.469770 0.000000
vt 0.500000 0.500000 0.000000
vt -0.500000 0.500000 0.000000
vt 0.433013 0.250000 0.000000
vt -0.433013 0.250000 0.000000
vt 0.250000 0.066987 0.000000
vt -0.250000 0.066987 0.000000
vt 0.000000 0.000000 0.000000
vt -0.252680 -1.770493 0.000000
vt 0.000000 -1.728101 0.000000
vt -0.392699 -1.666081 0.000000
vt 0.000000 -1.443301 0.000000
vt -0.392699 -1.388401 0.000000
vt 0.000000 -1.158501 0.000000
vt -0.392699 -1.110721 0.000000
vt 0.000000 -0.873701 0.000000
vt -0.392699 -0.833041 0.000000
vt 0.000000 -0.588901 0.000000
vt -0.392699 -0.555360 0.000000
vt 0.000000 -0.304100 0.000000
vt -0.392699 -0.277680 0.000000
vt 0.000000 -0.019300 0.000000
vt -0.392699 0.000000 0.000000
vt 0.000000 0.265500 0.000000
vt -0.392699 0.277680 0.000000
vt 0.000000 0.550300 0.000000
vt -0.392699 0.555360 0.000000
vt 0.000000 0.835100 0.000000
vt -0.392699 0.834585 0.000000
vt -0.392699 1.110721 0.000000
vt -0.785398 1.110721 0.000000
vt -0.785398 1.388401 0.000000
vt -1.178097 1.388401 0.000000
vt -1.178097 1.666081 0.000000
vt -1.570796 1.666081 0.000000
vt 0.000000 1.119901 0.000000
vt -0.392699 1.388401 0.000000
vt -0.785398 1.666081 0.000000
vt -1.178097 1.943761 0.000000
vt -1.570796 1.943761 0.000000
vt 0.000000 1.404701 0.000000
vt -0.392699 1.666081 0.000000
vt -0.785398 1.943761 0.000000
vt -1.178097 2.221441 0.000000
vt -1.570796 2.221441 0.000000
vt 0.000000 1.689501 0.000000
vt -0.392699 1.943761 0.000000
vt -0.447832 2.145820 0.000000
vt -0.785398 2.221441 0.000000
vt -0.785398 -2.221441 0.000000
vt -0.447832 -2.297063 0.000000
vt -0.523599 -2.098342 0.000000
vt -0.785398 -1.943761 0.000000
vt -0.447832 -1.899620 0.000000
vt -0.785398 -1.666081 0.000000
vt -0.785398 -1.388401 0.000000
vt -0.785398 -1.110721 0.000000
vt -0.785398 -0.833041 0.000000
vt -0.785398 -0.555360 0.000000
vt -0.785398 -0.277680 0.000000
vt -0.785398 0.000000 0.000000
vt -0.785398 0.277680 0.000000
vt -0.785398 0.555360 0.000000
vt -0.785398 0.834070 0.000000
vt 0.000000 1.974301 0.000000
vt -0.252680 2.016693 0.000000
vt -1.570796 1.388401 0.000000
vt -1.178097 1.110721 0.000000
vt -1.570796 1.110721 0.000000
vt -1.178097 0.833556 0.000000
vt -1.570796 0.833041 0.000000
vt -1.178097 0.555360 0.000000
vt -1.178097 0.277680 0.000000
vt -1.570796 0.277680 0.000000
vt -1.178097 0.000000 0.000000
vt -1.570796 0.000000 0.000000
vt -1.178097 -0.277680 0.000000
vt -1.570796 -0.277680 0.000000
vt -1.178097 -0.555360 0.000000
vt -1.570796 -0.555360 0.000000
vt -1.178097 -0.833041 0.000000
vt -1.178097 -1.110721 0.000000
vt -1.570796 -1.110721 0.000000
vt -1.178097 -1.388401 0.000000
vt -1.570796 -1.388401 0.000000
vt -1.178097 -1.666081 0.000000
vt -1.570796 -1.666081 0.000000
vt -1.178097 -1.943761 0.000000
vt -1.570796 -1.943761 0.000000
vt -1.178097 -2.221441 0.000000
vt -1.570796 -0.833041 0.000000
vt -1.570796 0.555360 0.000000
vt -0.252680 0.450948 0.000000
vt 0.000000 0.493340 0.000000
vt -0.392699 0.555360 0.000000
vt 0.000000 0.778140 0.000000
vt -0.392699 0.833041 0.000000
vt 0.000000 1.062941 0.000000
vt -0.392699 1.110721 0.000000
vt 0.000000 1.347741 0.000000
vt -0.392699 1.388401 0.000000
vt 0.000000 1.632541 0.000000
vt -0.392699 1.666081 0.000000
vt 0.000000 1.917341 0.000000
vt -0.392699 1.943761 0.000000
vt 0.000000 2.202141 0.000000
vt -0.392699 2.221441 0.000000
vt -0.392699 -2.221441 0.000000
vt 0.000000 -2.240742 0.000000
vt 0.000000 -1.955941 0.000000
vt -0.392699 -1.943761 0.000000
vt 0.000000 -1.671141 0.000000
vt -0.392699 -1.666081 0.000000
vt 0.000000 -1.386341 0.000000
vt -0.392699 -1.386856 0.000000
vt -0.392699 -1.110721 0.000000
vt -0.785398 -1.110721 0.000000
vt -0.785398 -0.833041 0.000000
vt -1.178097 -0.833041 0.000000
vt -1.178097 -0.555360 0.000000
vt -1.570796 -0.555360 0.000000
vt 0.000000 -1.101541 0.000000
vt -0.392699 -0.833041 0.000000
vt -0.785398 -0.555360 0.000000
vt -1.178097 -0.277680 0.000000
vt -1.570796 -0.277680 0.000000
vt 0.000000 -0.816741 0.000000
vt -0.392699 -0.555360 0.000000
vt -0.785398 -0.277680 0.000000
vt -1.178097 0.000000 0.000000
vt -1.570796 0.000000 0.000000
vt 0.000000 -0.531941 0.000000
vt -0.392699 -0.277680 0.000000
vt -0.447832 -0.075622 0.000000
vt -0.785398 0.000000 0.000000
vt -0.523599 0.123100 0.000000
vt -0.785398 0.277680 0.000000
vt -0.447832 0.321822 0.000000
vt -0.785398 0.555360 0.000000
vt -0.785398 0.833041 0.000000
vt -0.785398 1.110721 0.000000
vt -0.785398 1.388401 0.000000
vt -0.785398 1.666081 0.000000
vt -0.785398 1.943761 0.000000
vt -0.785398 2.221441 0.000000
vt -0.785398 -2.221441 0.000000
vt -0.785398 -1.943761 0.000000
vt -0.785398 -1.666081 0.000000
vt -0.785398 -1.387371 0.000000
vt 0.000000 -0.247140 0.000000
vt -0.252680 -0.204748 0.000000
vt -1.178097 2.221441 0.000000
vt -1.570796 2.221441 0.000000
vt -1.178097 1.943761 0.000000
vt -1.570796 1.943761 0.000000
vt -1.178097 1.666081 0.000000
vt -1.570796 1.666081 0.000000
vt -1.178097 1.388401 0.000000
vt -1.570796 1.388401 0.000000
vt -1.178097 1.110721 0.000000
vt -1.570796 1.110721 0.000000
vt -1.178097 0.833041 0.000000
vt -1.570796 0.833041 0.000000
vt -1.178097 0.555360 0.000000
vt -1.178097 0.277680 0.000000
vt -1.570796 0.277680 0.000000
vt -1.178097 -1.110721 0.000000
vt -1.570796 -1.110721 0.000000
vt -1.178097 -1.387886 0.000000
vt -1.570796 -1.388401 0.000000
vt -1.178097 -1.666081 0.000000
vt -1.570796 -1.666081 0.000000
vt -1.178097 -1.943761 0.000000
vt -1.570796 -1.943761 0.000000
vt -1.178097 -2.221441 0.000000
vt -1.570796 0.555360 0.000000
vt -1.570796 -0.833041 0.000000
vt -0.866025 0.785398 0.000000
vt -0.866025 1.047198 0.000000
vt -0.900000 0.785398 0.000000
vt -6.229131 1.047198 0.000000
vt -6.229131 0.523599 0.000000
vt -11.592236 1.047198 0.000000
vt -11.592236 0.523599 0.000000
vt -16.955342 1.047198 0.000000
vt -16.955342 0.523599 0.000000
vt -22.318447 1.047198 0.000000
vt -22.318447 0.523599 0.000000
vt -27.681553 1.047198 0.000000
vt -27.681553 0.523599 0.000000
vt -33.044658 1.047198 0.000000
vt -33.044658 0.523599 0.000000
vt -38.407764 1.047198 0.000000
vt -38.407764 0.523599 0.000000
vt -43.770869 1.047198 0.000000
vt -43.770869 0.523599 0.000000
vt -49.100000 0.785398 0.000000
vt -49.100000 0.523599 0.000000
vt -6.229131 1.308997 0.000000
vt -0.866025 1.308997 0.000000
vt -6.229131 1.570796 0.000000
vt -0.866025 1.570796 0.000000
vt -6.229131 -1.570796 0.000000
vt -0.866025 -1.570796 0.000000
vt -6.229131 -1.308997 0.000000
vt -0.866025 -1.308997 0.000000
vt -6.229131 -1.047198 0.000000
vt -0.866025 -1.047198 0.000000
vt -0.900000 -0.785398 0.000000
vt -0.866025 -0.785398 0.000000
vt -6.229131 -0.523599 0.000000
vt -0.900000 -0.523599 0.000000
vt -6.229131 -0.261799 0.000000
vt -0.900000 -0.261799 0.000000
vt -6.229131 0.000000 0.000000
vt -0.900000 -0.000000 0.000000
vt -6.229131 0.261799 0.000000
vt -0.900000 0.261799 0.000000
vt -0.900000 0.523599 0.000000
vt -49.133975 0.785398 0.000000
vt -49.133975 1.047198 0.000000
vt -49.133975 1.308997 0.000000
vt -43.770869 1.308997 0.000000
vt -49.133975 1.570796 0.000000
vt -43.770869 1.570796 0.000000
vt -49.133975 -1.570796 0.000000
vt -43.770869 -1.570796 0.000000
vt -49.133975 -1.308997 0.000000
vt -43.770869 -1.308997 0.000000
vt -49.133975 -1.047198 0.000000
vt -43.770869 -1.047198 0.000000
vt -49.100000 -0.785398 0.000000
vt -43.770869 -0.523599 0.000000
vt -49.100000 -0.523599 0.000000
vt -49.100000 -0.261799 0.000000
vt -43.770869 -0.261799 0.000000
vt -49.100000 0.000000 0.000000
vt -43.770869 0.000000 0.000000
vt -49.100000 0.261799 0.000000
vt -43.770869 0.261799 0.000000
vt -49.133975 -0.785398 0.000000
vt -11.592236 1.570796 0.000000
vt -11.592236 1.308997 0.000000
vt -16.955342 1.570796 0.000000
vt -16.955342 1.308997 0.000000
vt -11.592236 -1.570796 0.000000
vt -11.592236 -1.308997 0.000000
vt -11.592236 -1.047198 0.000000
vt -11.592236 -0.523599 0.000000
vt -11.592236 -0.261799 0.000000
vt -11.592236 0.000000 0.000000
vt -11.592236 0.261799 0.000000
vt -22.318447 1.570796 0.000000
vt -22.318447 1.308997 0.000000
vt -16.955342 -1.570796 0.000000
vt -16.955342 -1.308997 0.000000
vt -16.955342 -1.047198 0.000000
vt -16.955342 -0.523599 0.000000
vt -16.955342 -0.261799 0.000000
vt -16.955342 0.000000 0.000000
vt -16.955342 0.261799 0.000000
vt -27.681553 1.570796 0.000000
vt -27.681553 1.308997 0.000000
vt -22.318447 -1.570796 0.000000
vt -22.318447 -1.308997 0.000000
vt -22.318447 -1.047198 0.000000
vt -22.318447 -0.523599 0.000000
vt -22.318447 -0.261799 0.000000
vt -22.318447 0.000000 0.000000
vt -22.318447 0.261799 0.000000
vt -33.044658 1.570796 0.000000
vt -33.044658 1.308997 0.000000
vt -27.681553 -1.570796 0.000000
vt -27.681553 -1.308997 0.000000
vt -27.681553 -1.047198 0.000000
vt -27.681553 -0.523599 0.000000
vt -27.681553 -0.261799 0.000000
vt -27.681553 0.000000 0.000000
vt -27.681553 0.261799 0.000000
vt -38.407764 1.570796 0.000000
vt -38.407764 1.308997 0.000000
vt -33.044658 -1.570796 0.000000
vt -33.044658 -1.308997 0.000000
vt -33.044658 -1.047198 0.000000
vt -33.044658 -0.523599 0.000000
vt -33.044658 -0.261799 0.000000
vt -33.044658 0.000000 0.000000
vt -33.044658 0.261799 0.000000
vt -38.407764 -1.570796 0.000000
vt -38.407764 -1.308997 0.000000
vt -38.407764 -1.047198 0.000000
vt -38.407764 -0.523599 0.000000
vt -38.407764 -0.261799 0.000000
vt -38.407764 0.000000 0.000000
vt -38.407764 0.261799 0.000000
vt -1.469770 1.171218 0.000000
vt -1.970942 1.239316 0.000000
vt -1.492442 0.913394 0.000000
vt -1.987050 0.839589 0.000000
vt -1.845190 0.465534 0.000000
vt -1.799443 1.600742 0.000000
vt -1.321224 1.383165 0.000000
vt -1.500000 1.866025 0.000000
vt -1.086606 1.492442 0.000000
vt -1.500000 1.900000 0.000000
vt -0.500000 1.900000 0.000000
vt -0.500000 1.866025 0.000000
vt -0.828782 1.469770 0.000000
vt -0.616835 1.321224 0.000000
vt -0.507558 1.086606 0.000000
vt -0.029058 1.239316 0.000000
vt -0.200557 1.600742 0.000000
vt -0.012950 0.839589 0.000000
vt -0.530230 0.828782 0.000000
vt -0.154810 0.465534 0.000000
vt -0.678776 0.616835 0.000000
vt -0.431935 0.177016 0.000000
vt -0.913394 0.507558 0.000000
vt -0.799974 0.020209 0.000000
vt -1.200026 0.020209 0.000000
vt -1.171218 0.530230 0.000000
vt -1.568065 0.177016 0.000000
vt -1.383165 0.678776 0.000000
vt 0.500000 0.500000 0.000000
vt -0.500000 0.500000 0.000000
vt 0.433013 0.250000 0.000000
vt -0.433013 0.250000 0.000000
vt 0.250000 0.066987 0.000000
vt -0.250000 0.066987 0.000000
vt -0.000000 0.000000 0.000000
vt -0.000000 -0.740480 0.000000
vt 0.261799 -0.740480 0.000000
vt 0.000000 -0.555360 0.000000
vt 0.261799 -0.555360 0.000000
vt -0.000000 -0.370240 0.000000
vt 0.261799 -0.370240 0.000000
vt -0.000000 -0.185120 0.000000
vt 0.261799 -0.185120 0.000000
vt -0.000000 0.000000 0.000000
vt 0.261799 0.000000 0.000000
vt -0.000000 0.185120 0.000000
vt 0.261799 0.185120 0.000000
vt -0.000000 0.370240 0.000000
vt 0.261799 0.370240 0.000000
vt -0.000000 0.555360 0.000000
vt 0.261799 0.555360 0.000000
vt -0.000000 0.740480 0.000000
vt 0.261799 0.740480 0.000000
vt -0.000000 0.925601 0.000000
vt 0.261799 0.925601 0.000000
vt -0.000000 1.110721 0.000000
vt 0.261799 1.110721 0.000000
vt -0.000000 -1.110721 0.000000
vt 0.261799 -1.110721 0.000000
vt -0.000000 -0.925601 0.000000
vt 0.261799 -0.925601 0.000000
vt 0.523599 -1.110721 0.000000
vt 0.785398 -1.110721 0.000000
vt 0.523599 -0.925601 0.000000
vt 0.785398 -0.925601 0.000000
vt 0.523599 -0.740480 0.000000
vt 0.785398 -0.740480 0.000000
vt 0.523599 -0.555360 0.000000
vt 0.785398 -0.555360 0.000000
vt 0.523599 -0.370240 0.000000
vt 0.523599 -0.185120 0.000000
vt 0.785398 -0.185120 0.000000
vt 0.523599 0.000000 0.000000
vt 0.785398 0.000000 0.000000
vt 0.523599 0.185120 0.000000
vt 0.785398 0.185120 0.000000
vt 0.523599 0.370240 0.000000
vt 0.523599 0.555360 0.000000
vt 0.785398 0.555360 0.000000
vt 0.523599 0.740480 0.000000
vt 0.785398 0.740480 0.000000
vt 0.523599 0.925601 0.000000
vt 0.785398 0.925601 0.000000
vt 0.523599 1.110721 0.000000
vt 0.785398 -0.370240 0.000000
vt 0.785398 0.370240 0.000000
vn 0.346410 0.937304 -0.038226
vn 0.200000 0.962664 -0.182423
vn 0.400000 0.902662 0.158751
vn -0.000000 0.984885 0.173212
vn 0.346410 0.868019 0.355728
vn 0.000000 0.833377 0.552705
vn 0.200000 0.842659 0.499925
vn -0.000000 0.971946 -0.235203
vn -0.200000 0.962664 -0.182423
vn -0.346410 0.937304 -0.038226
vn -0.400000 0.902662 0.158751
vn -0.346410 0.868019 0.355728
vn -0.200000 0.842659 0.499925
vn 0.346410 -0.868019 -0.355728
vn 0.400000 -0.902662 -0.158751
vn -0.000000 -0.984885 -0.173212
vn 0.346410 -0.937304 0.038226
vn 0.200000 -0.962664 0.182423
vn -0.000000 -0.971946 0.235203
vn -0.346410 -0.937304 0.038226
vn -0.400000 -0.902662 -0.158751
vn -0.200000 -0.962664 0.182423
vn -0.346410 -0.868019 -0.355728
vn -0.200000 -0.842659 -0.499925
vn -0.000000 -0.833377 -0.552705
vn 0.200000 -0.842659 -0.499925
vn -0.866025 0.086606 -0.492442
vn -0.866025 0.086606 -0.492442
vn -1.000000 -0.000000 0.000000
vn -1.000000 -0.000000 0.000000
vn -0.866025 -0.086606 0.492442
vn -0.866025 -0.086606 0.492442
vn -0.500000 -0.150006 0.852935
vn -0.500000 -0.150006 0.852935
vn 0.000000 -0.173212 0.984885
vn 0.000000 -0.173212 0.984885
vn 0.500000 -0.150006 0.852935
vn 0.500000 -0.150006 0.852935
vn 0.866025 -0.086606 0.492442
vn 0.866025 -0.086606 0.492442
vn 1.000000 0.000000 -0.000000
vn 1.000000 0.000000 -0.000000
vn 0.866025 0.086606 -0.492442
vn 0.866025 0.086606 -0.492442
vn 0.500000 0.150006 -0.852935
vn 0.500000 0.150006 -0.852935
vn -0.000000 0.173212 -0.984885
vn -0.000000 0.173212 -0.984885
vn -0.500000 0.150006 -0.852935
vn -0.500000 0.150006 -0.852935
vn -0.866025 -0.086606 0.492442
vn -0.866025 -0.086606 0.492442
vn -1.000000 -0.000000 0.000000
vn -1.000000 -0.000000 0.000000
vn -0.866025 0.086606 -0.492442
vn -0.866025 0.086606 -0.492442
vn -0.500000 0.150006 -0.852935
vn -0.500000 0.150006 -0.852935
vn -0.000000 0.173212 -0.984885
vn -0.000000 0.173212 -0.984885
vn 0.500000 0.150006 -0.852935
vn 0.500000 0.150006 -0.852935
vn 0.866025 0.086606 -0.492442
vn 0.866025 0.086606 -0.492442
vn 1.000000 0.000000 -0.000000
vn 1.000000 0.000000 -0.000000
vn 0.866025 -0.086606 0.492442
vn 0.866025 -0.086606 0.492442
vn 0.500000 -0.150006 0.852935
vn 0.500000 -0.150006 0.852935
vn 0.000000 -0.173212 0.984885
vn 0.000000 -0.173212 0.984885
vn -0.500000 -0.150006 0.852935
vn -0.500000 -0.150006 0.852935
vn -1.000000 -0.000000 0.000000
vn -0.866025 -0.086606 0.492442
vn -0.500000 -0.150006 0.852935
vn 0.000000 -0.173212 0.984885
vn 0.500000 -0.150006 0.852935
vn 0.866025 -0.086606 0.492442
vn 1.000000 0.000000 -0.000000
vn 0.866025 0.086606 -0.492442
vn 0.500000 0.150006 -0.852935
vn -0.000000 0.173212 -0.984885
vn -0.500000 0.150006 -0.852935
vn -0.866025 0.086606 -0.492442
vn -1.000000 -0.000000 0.000000
vn -0.866025 -0.086606 0.492442
vn -0.500000 -0.150006 0.852935
vn 0.000000 -0.173212 0.984885
vn 0.500000 -0.150006 0.852935
vn 0.866025 -0.086606 0.492442
vn 1.000000 0.000000 -0.000000
vn 0.866025 0.086606 -0.492442
vn 0.500000 0.150006 -0.852935
vn -0.000000 0.173212 -0.984885
vn -0.500000 0.150006 -0.852935
vn -0.866025 0.086606 -0.492442
vn -1.000000 -0.000000 0.000000
vn -0.866025 -0.086606 0.492442
vn -0.500000 -0.150006 0.852935
vn 0.000000 -0.173212 0.984885
vn 0.500000 -0.150006 0.852935
vn 0.866025 -0.086606 0.492442
vn 1.000000 0.000000 -0.000000
vn 0.866025 0.086606 -0.492442
vn 0.500000 0.150006 -0.852935
vn -0.000000 0.173212 -0.984885
vn -0.500000 0.150006 -0.852935
vn -0.866025 0.086606 -0.492442
vn -1.000000 -0.000000 0.000000
vn -0.866025 -0.086606 0.492442
vn -0.500000 -0.150006 0.852935
vn 0.000000 -0.173212 0.984885
vn 0.500000 -0.150006 0.852935
vn 0.866025 -0.086606 0.492442
vn 1.000000 0.000000 -0.000000
vn 0.866025 0.086606 -0.492442
vn 0.500000 0.150006 -0.852935
vn -0.000000 0.173212 -0.984885
vn -0.500000 0.150006 -0.852935
vn -0.866025 0.086606 -0.492442
vn -1.000000 -0.000000 0.000000
vn -0.866025 -0.086606 0.492442
vn -0.500000 -0.150006 0.852935
vn 0.000000 -0.173212 0.984885
vn 0.500000 -0.150006 0.852935
vn 0.866025 -0.086606 0.492442
vn 1.000000 0.000000 -0.000000
vn 0.866025 0.086606 -0.492442
vn 0.500000 0.150006 -0.852935
vn -0.000000 0.173212 -0.984885
vn -0.500000 0.150006 -0.852935
vn -0.866025 0.086606 -0.492442
vn -1.000000 -0.000000 0.000000
vn -0.866025 -0.086606 0.492442
vn -0.500000 -0.150006 0.852935
vn 0.000000 -0.173212 0.984885
vn 0.500000 -0.150006 0.852935
vn 0.866025 -0.086606 0.492442
vn 1.000000 0.000000 -0.000000
vn 0.866025 0.086606 -0.492442
vn 0.500000 0.150006 -0.852935
vn -0.000000 0.173212 -0.984885
vn -0.500000 0.150006 -0.852935
vn -0.866025 0.086606 -0.492442
vn -1.000000 -0.000000 0.000000
vn -0.866025 -0.086606 0.492442
vn -0.500000 -0.150006 0.852935
vn 0.000000 -0.173212 0.984885
vn 0.500000 -0.150006 0.852935
vn 0.866025 -0.086606 0.492442
vn 1.000000 0.000000 -0.000000
vn 0.866025 0.086606 -0.492442
vn 0.500000 0.150006 -0.852935
vn -0.000000 0.173212 -0.984885
vn -0.500000 0.150006 -0.852935
vn -0.866025 0.086606 -0.492442
vn -1.000000 -0.000000 0.000000
vn -0.866025 -0.086606 0.492442
vn -0.500000 -0.150006 0.852935
vn 0.000000 -0.173212 0.984885
vn 0.500000 -0.150006 0.852935
vn 0.866025 -0.086606 0.492442
vn 1.000000 0.000000 -0.000000
vn 0.866025 0.086606 -0.492442
vn 0.500000 0.150006 -0.852935
vn -0.000000 0.173212 -0.984885
vn -0.500000 0.150006 -0.852935
vn -0.866025 0.086606 -0.492442
vn 0.000000 -0.500000 -0.866025
vn -0.500000 -0.433013 -0.750000
vn -0.000000 -0.000000 -1.000000
vn -0.500000 -0.000000 -0.866025
vn 0.000000 0.500000 -0.866025
vn -0.500000 0.433013 -0.750000
vn 0.000000 0.866025 -0.500000
vn -0.500000 0.750000 -0.433013
vn 0.000000 1.000000 -0.000000
vn -0.500000 0.866025 -0.000000
vn 0.000000 0.866025 0.500000
vn -0.500000 0.750000 0.433013
vn 0.000000 0.500000 0.866025
vn -0.500000 0.433013 0.750000
vn 0.000000 -0.000000 1.000000
vn -0.500000 -0.000000 0.866025
vn 0.000000 -0.500000 0.866025
vn -0.500000 -0.433013 0.750000
vn 0.000000 -0.866025 0.500000
vn -0.500000 -0.750000 0.433013
vn 0.000000 -1.000000 0.000000
vn -0.500000 -0.866025 -0.000000
vn 0.000000 -0.866025 -0.500000
vn -0.500000 -0.750000 -0.433013
vn -0.866025 -0.500000 -0.000000
vn -1.000000 -0.000000 -0.000000
vn -0.866025 -0.433013 -0.250000
vn -0.866025 -0.250000 -0.433013
vn -0.866025 -0.000000 -0.500000
vn -0.866025 0.250000 -0.433013
vn -0.866025 0.433013 -0.250000
vn -0.866025 0.500000 -0.000000
vn -0.866025 0.433013 0.250000
vn -0.866025 0.250000 0.433013
vn -0.866025 -0.000000 0.500000
vn -0.866025 -0.250000 0.433013
vn -0.866025 -0.433013 0.250000
vn -1.000000 -0.000000 0.000000
vn -1.000000 -0.000000 0.000000
vn -1.000000 -0.000000 0.000000
vn -1.000000 -0.000000 0.000000
vn -1.000000 -0.000000 0.000000
vn -1.000000 -0.000000 0.000000
vn -1.000000 -0.000000 0.000000
vn -1.000000 -0.000000 0.000000
vn -1.000000 -0.000000 0.000000
vn -1.000000 -0.000000 0.000000
vn -1.000000 -0.000000 0.000000
vn -1.000000 -0.000000 0.000000
vn -1.000000 -0.000000 0.000000
vn -1.000000 -0.000000 0.000000
vn -1.000000 -0.000000 0.000000
vn -1.000000 -0.000000 0.000000
vn -1.000000 -0.000000 0.000000
vn -1.000000 -0.000000 0.000000
vn -1.000000 -0.000000 0.000000
vn -1.000000 -0.000000 0.000000
vn -1.000000 -0.000000 0.000000
vn -1.000000 -0.000000 0.000000
vn -1.000000 -0.000000 0.000000
vn -1.000000 -0.000000 0.000000
vn -1.000000 -0.000000 0.000000
vn -1.000000 -0.000000 0.000000
vn -1.000000 -0.000000 0.000000
vn -1.000000 -0.000000 0.000000
vn 0.000000 -0.984885 -0.173212
vn 0.000000 -0.984885 -0.173212
vn 0.000000 -0.984885 -0.173212
vn 0.000000 -0.984885 -0.173212
vn 0.000000 -0.984885 -0.173212
vn 0.000000 -0.984885 -0.173212
vn 0.000000 -0.984885 -0.173212
vn 0.250000 0.777932 0.576473
vn -0.000000 0.766329 0.642448
vn 0.382683 0.653281 0.653281
vn -0.000000 0.453189 0.891414
vn 0.382683 0.353553 0.853553
vn -0.000000 0.067520 0.997718
vn 0.382683 0.000000 0.923880
vn -0.000000 -0.328955 0.944346
vn 0.382683 -0.353553 0.853553
vn -0.000000 -0.672784 0.739839
vn 0.382683 -0.653281 0.653281
vn -0.000000 -0.908940 0.416928
vn 0.382683 -0.853553 0.353553
vn -0.000000 -0.999628 0.027291
vn 0.382683 -0.923880 0.000000
vn -0.000000 -0.930334 -0.366713
vn 0.382683 -0.853553 -0.353553
vn -0.000000 -0.712149 -0.702029
vn 0.382683 -0.653281 -0.653281
vn -0.000000 -0.379991 -0.924990
vn 0.382683 -0.351688 -0.854324
vn 0.382683 0.000000 -0.923880
vn 0.707107 0.000000 -0.707107
vn 0.707107 0.270598 -0.653281
vn 0.923880 0.146447 -0.353553
vn 0.923880 0.270598 -0.270598
vn 1.000000 0.000000 0.000000
vn -0.000000 0.012982 -0.999916
vn 0.382683 0.353553 -0.853553
vn 0.707107 0.500000 -0.500000
vn 0.923880 0.353553 -0.146447
vn -0.000000 0.403877 -0.914813
vn 0.382683 0.653281 -0.653281
vn 0.707107 0.653281 -0.270598
vn 0.923880 0.382683 0.000000
vn -0.000000 0.730135 -0.683303
vn 0.382683 0.853553 -0.353553
vn 0.433013 0.896238 -0.096216
vn 0.707107 0.707107 -0.000000
vn 0.500000 0.852935 0.150006
vn 0.707107 0.653281 0.270598
vn 0.433013 0.809632 0.396227
vn 0.707107 0.500000 0.500000
vn 0.707107 0.270598 0.653281
vn 0.707107 0.000000 0.707107
vn 0.707107 -0.270598 0.653281
vn 0.707107 -0.500000 0.500000
vn 0.707107 -0.653281 0.270598
vn 0.707107 -0.707107 0.000000
vn 0.707107 -0.653281 -0.270598
vn 0.707107 -0.500000 -0.500000
vn 0.707107 -0.269646 -0.653675
vn -0.000000 0.939541 -0.342437
vn 0.250000 0.927938 -0.276462
vn 0.923880 0.000000 -0.382683
vn 0.923880 -0.146189 -0.353660
vn 0.923880 -0.270598 -0.270598
vn 0.923880 -0.353553 -0.146447
vn 0.923880 -0.382683 0.000000
vn 0.923880 -0.353553 0.146447
vn 0.923880 -0.270598 0.270598
vn 0.923880 -0.146447 0.353553
vn 0.923880 0.000000 0.382683
vn 0.923880 0.146447 0.353553
vn 0.923880 0.270598 0.270598
vn 0.923880 0.353553 0.146447
vn 0.250000 -0.777932 -0.576473
vn -0.000000 -0.766329 -0.642448
vn 0.382683 -0.653281 -0.653281
vn -0.000000 -0.453189 -0.891414
vn 0.382683 -0.353553 -0.853553
vn -0.000000 -0.067520 -0.997718
vn 0.382683 0.000000 -0.923880
vn -0.000000 0.328955 -0.944346
vn 0.382683 0.353553 -0.853553
vn -0.000000 0.672784 -0.739839
vn 0.382683 0.653281 -0.653281
vn -0.000000 0.908940 -0.416928
vn 0.382683 0.853553 -0.353553
vn -0.000000 0.999628 -0.027291
vn 0.382683 0.923880 0.000000
vn -0.000000 0.930334 0.366713
vn 0.382683 0.853553 0.353553
vn -0.000000 0.712149 0.702029
vn 0.382683 0.653281 0.653281
vn -0.000000 0.379991 0.924990
vn 0.382683 0.351688 0.854324
vn 0.382683 0.000000 0.923880
vn 0.707107 0.000000 0.707107
vn 0.707107 -0.270598 0.653281
vn 0.923880 -0.146447 0.353553
vn 0.923880 -0.270598 0.270598
vn 1.000000 0.000000 0.000000
vn -0.000000 -0.012982 0.999916
vn 0.382683 -0.353553 0.853553
vn 0.707107 -0.500000 0.500000
vn 0.923880 -0.353553 0.146447
vn -0.000000 -0.403877 0.914813
vn 0.382683 -0.653281 0.653281
vn 0.707107 -0.653281 0.270598
vn 0.923880 -0.382683 0.000000
vn -0.000000 -0.730135 0.683303
vn 0.382683 -0.853553 0.353553
vn 0.433013 -0.896238 0.096216
vn 0.707107 -0.707107 0.000000
vn 0.500000 -0.852935 -0.150006
vn 0.707107 -0.653281 -0.270598
vn 0.433013 -0.809632 -0.396227
vn 0.707107 -0.500000 -0.500000
vn 0.707107 -0.270598 -0.653281
vn 0.707107 0.000000 -0.707107
vn 0.707107 0.270598 -0.653281
vn 0.707107 0.500000 -0.500000
vn 0.707107 0.653281 -0.270598
vn 0.707107 0.707107 0.000000
vn 0.707107 0.653281 0.270598
vn 0.707107 0.500000 0.500000
vn 0.707107 0.269646 0.653675
vn -0.000000 -0.939541 0.342437
vn 0.250000 -0.927938 0.276462
vn 0.923880 0.382683 0.000000
vn 0.923880 0.353553 -0.146447
vn 0.923880 0.270598 -0.270598
vn 0.923880 0.146447 -0.353553
vn 0.923880 0.000000 -0.382683
vn 0.923880 -0.146447 -0.353553
vn 0.923880 -0.270598 -0.270598
vn 0.923880 -0.353553 -0.146447
vn 0.923880 0.000000 0.382683
vn 0.923880 0.146189 0.353660
vn 0.923880 0.270598 0.270598
vn 0.923880 0.353553 0.146447
vn -0.000000 -0.173212 0.984885
vn 0.500000 -0.150006 0.852935
vn -0.000000 -0.173212 0.984885
vn 0.500000 -0.150006 0.852935
vn -0.500000 -0.150006 0.852935
vn 0.500000 -0.150006 0.852935
vn -0.500000 -0.150006 0.852935
vn 0.500000 -0.150006 0.852935
vn -0.500000 -0.150006 0.852935
vn 0.500000 -0.150006 0.852935
vn -0.500000 -0.150006 0.852935
vn 0.500000 -0.150006 0.852935
vn -0.500000 -0.150006 0.852935
vn 0.500000 -0.150006 0.852935
vn -0.500000 -0.150006 0.852935
vn 0.500000 -0.150006 0.852935
vn -0.500000 -0.150006 0.852935
vn 0.500000 -0.150006 0.852935
vn -0.500000 -0.150006 0.852935
vn -0.000000 -0.173212 0.984885
vn -0.500000 -0.150006 0.852935
vn 0.866025 -0.086606 0.492442
vn 0.866025 -0.086606 0.492442
vn 1.000000 0.000000 -0.000000
vn 1.000000 0.000000 -0.000000
vn 0.866025 0.086606 -0.492442
vn 0.866025 0.086606 -0.492442
vn 0.500000 0.150006 -0.852935
vn 0.500000 0.150006 -0.852935
vn -0.000000 0.173212 -0.984885
vn -0.000000 0.173212 -0.984885
vn -0.500000 0.150006 -0.852935
vn -0.500000 0.150006 -0.852935
vn -0.866025 0.086606 -0.492442
vn -0.866025 0.086606 -0.492442
vn -1.000000 -0.000000 0.000000
vn -1.000000 -0.000000 0.000000
vn -0.866025 -0.086606 0.492442
vn -0.866025 -0.086606 0.492442
vn -0.500000 -0.150006 0.852935
vn -0.000000 -0.173212 0.984885
vn 0.500000 -0.150006 0.852935
vn 0.866025 -0.086606 0.492442
vn 0.866025 -0.086606 0.492442
vn 1.000000 0.000000 -0.000000
vn 1.000000 0.000000 -0.000000
vn 0.866025 0.086606 -0.492442
vn 0.866025 0.086606 -0.492442
vn 0.500000 0.150006 -0.852935
vn 0.500000 0.150006 -0.852935
vn -0.000000 0.173212 -0.984885
vn -0.500000 0.150006 -0.852935
vn -0.500000 0.150006 -0.852935
vn -0.866025 0.086606 -0.492442
vn -0.866025 0.086606 -0.492442
vn -1.000000 -0.000000 0.000000
vn -1.000000 -0.000000 0.000000
vn -0.866025 -0.086606 0.492442
vn -0.866025 -0.086606 0.492442
vn -0.000000 0.173212 -0.984885
vn 1.000000 0.000000 -0.000000
vn 0.866025 -0.086606 0.492442
vn 1.000000 0.000000 -0.000000
vn 0.866025 -0.086606 0.492442
vn 0.866025 0.086606 -0.492442
vn 0.500000 0.150006 -0.852935
vn -0.500000 0.150006 -0.852935
vn -0.866025 0.086606 -0.492442
vn -1.000000 -0.000000 0.000000
vn -0.866025 -0.086606 0.492442
vn 1.000000 0.000000 -0.000000
vn 0.866025 -0.086606 0.492442
vn 0.866025 0.086606 -0.492442
vn 0.500000 0.150006 -0.852935
vn -0.500000 0.150006 -0.852935
vn -0.866025 0.086606 -0.492442
vn -1.000000 -0.000000 0.000000
vn -0.866025 -0.086606 0.492442
vn 1.000000 0.000000 -0.000000
vn 0.866025 -0.086606 0.492442
vn 0.866025 0.086606 -0.492442
vn 0.500000 0.150006 -0.852935
vn -0.500000 0.150006 -0.852935
vn -0.866025 0.086606 -0.492442
vn -1.000000 -0.000000 0.000000
vn -0.866025 -0.086606 0.492442
vn 1.000000 0.000000 -0.000000
vn 0.866025 -0.086606 0.492442
vn 0.866025 0.086606 -0.492442
vn 0.500000 0.150006 -0.852935
vn -0.500000 0.150006 -0.852935
vn -0.866025 0.086606 -0.492442
vn -1.000000 -0.000000 0.000000
vn -0.866025 -0.086606 0.492442
vn 1.000000 0.000000 -0.000000
vn 0.866025 -0.086606 0.492442
vn 0.866025 0.086606 -0.492442
vn 0.500000 0.150006 -0.852935
vn -0.500000 0.150006 -0.852935
vn -0.866025 0.086606 -0.492442
vn -1.000000 -0.000000 0.000000
vn -0.866025 -0.086606 0.492442
vn 0.866025 0.086606 -0.492442
vn 0.500000 0.150006 -0.852935
vn -0.500000 0.150006 -0.852935
vn -0.866025 0.086606 -0.492442
vn -1.000000 -0.000000 0.000000
vn -0.866025 -0.086606 0.492442
vn -1.000000 -0.000000 0.000000
vn -1.000000 -0.000000 0.000000
vn -1.000000 -0.000000 0.000000
vn -1.000000 -0.000000 0.000000
vn -1.000000 -0.000000 0.000000
vn -1.000000 -0.000000 0.000000
vn -1.000000 -0.000000 0.000000
vn -1.000000 -0.000000 0.000000
vn -1.000000 -0.000000 0.000000
vn -1.000000 -0.000000 0.000000
vn -1.000000 -0.000000 0.000000
vn -1.000000 -0.000000 0.000000
vn -1.000000 -0.000000 0.000000
vn -1.000000 -0.000000 0.000000
vn -1.000000 -0.000000 0.000000
vn -1.000000 -0.000000 0.000000
vn -1.000000 -0.000000 0.000000
vn -1.000000 -0.000000 0.000000
vn -1.000000 -0.000000 0.000000
vn -1.000000 -0.000000 0.000000
vn -1.000000 -0.000000 0.000000
vn -1.000000 -0.000000 0.000000
vn -1.000000 -0.000000 0.000000
vn -1.000000 -0.000000 0.000000
vn -1.000000 -0.000000 0.000000
vn -1.000000 -0.000000 0.000000
vn -1.000000 -0.000000 0.000000
vn -1.000000 -0.000000 0.000000
vn -0.000000 0.984885 0.173212
vn -0.000000 0.984885 0.173212
vn -0.000000 0.984885 0.173212
vn -0.000000 0.984885 0.173212
vn -0.000000 0.984885 0.173212
vn -0.000000 0.984885 0.173212
vn -0.000000 0.984885 0.173212
vn 0.000000 -0.500000 -0.866025
vn -0.500000 -0.433013 -0.750000
vn -0.000000 -0.000000 -1.000000
vn -0.500000 -0.000000 -0.866025
vn 0.000000 0.500000 -0.866025
vn -0.500000 0.433013 -0.750000
vn 0.000000 0.866025 -0.500000
vn -0.500000 0.750000 -0.433013
vn 0.000000 1.000000 -0.000000
vn -0.500000 0.866025 -0.000000
vn 0.000000 0.866025 0.500000
vn -0.500000 0.750000 0.433013
vn 0.000000 0.500000 0.866025
vn -0.500000 0.433013 0.750000
vn 0.000000 -0.000000 1.000000
vn -0.500000 -0.000000 0.866025
vn 0.000000 -0.500000 0.866025
vn -0.500000 -0.433013 0.750000
vn 0.000000 -0.866025 0.500000
vn -0.500000 -0.750000 0.433013
vn 0.000000 -1.000000 -0.000000
vn -0.500000 -0.866025 -0.000000
vn 0.000000 -0.866025 -0.500000
vn -0.500000 -0.750000 -0.433013
vn -0.866025 -0.500000 -0.000000
vn -1.000000 -0.000000 -0.000000
vn -0.866025 -0.433013 -0.250000
vn -0.866025 -0.250000 -0.433013
vn -0.866025 -0.000000 -0.500000
vn -0.866025 0.250000 -0.433013
vn -0.866025 0.433013 -0.250000
vn -0.866025 0.500000 -0.000000
vn -0.866025 0.433013 0.250000
vn -0.866025 0.250000 0.433013
vn -0.866025 -0.000000 0.500000
vn -0.866025 -0.250000 0.433013
vn -0.866025 -0.433013 0.250000
usemtl Steel_-_Satin
f 2/1/1 3/2/2 1/3/3
f 1/3/3 3/2/2 13/4/4
f 1/3/3 13/4/4 12/5/5
f 12/5/5 13/4/4 10/6/6
f 12/5/5 10/6/6 11/7/7
f 3/2/2 4/8/8 13/4/4
f 13/4/4 4/8/8 5/9/9
f 13/4/4 5/9/9 6/10/10
f 7/11/11 8/12/12 6/10/10
f 6/10/10 8/12/12 13/4/4
f 8/12/12 9/13/13 13/4/4
f 13/4/4 9/13/13 10/6/6
f 25/14/14 14/15/15 26/16/16
f 26/16/16 14/15/15 15/17/17
f 26/16/16 15/17/17 16/18/18
f 16/18/18 17/19/19 26/16/16
f 26/16/16 17/19/19 19/20/20
f 26/16/16 19/20/20 20/21/21
f 17/19/19 18/22/22 19/20/20
f 20/21/21 21/23/23 26/16/16
f 26/16/16 21/23/23 22/24/24
f 26/16/16 22/24/24 23/25/25
f 23/25/25 24/26/26 26/16/16
f 26/16/16 24/26/26 25/14/14
f 12/27/27 37/28/28 1/29/29
f 1/29/29 37/28/28 27/30/30
f 1/31/29 27/32/30 2/33/31
f 2/33/31 27/32/30 137/34/32
f 2/33/31 137/34/32 3/35/33
f 3/35/33 137/34/32 127/36/34
f 3/35/33 127/36/34 4/37/35
f 4/37/35 127/36/34 117/38/36
f 4/37/35 117/38/36 5/39/37
f 5/39/37 117/38/36 107/40/38
f 5/39/37 107/40/38 6/41/39
f 6/41/39 107/40/38 97/42/40
f 6/41/39 97/42/40 7/43/41
f 7/43/41 97/42/40 87/44/42
f 7/43/41 87/44/42 8/45/43
f 8/45/43 87/44/42 77/46/44
f 8/45/43 77/46/44 9/47/45
f 9/47/45 77/46/44 67/48/46
f 9/47/45 67/48/46 10/49/47
f 10/49/47 67/48/46 57/50/48
f 10/49/47 57/50/48 11/51/49
f 11/51/49 57/50/48 47/52/50
f 11/51/49 47/52/50 12/27/27
f 12/27/27 47/52/50 37/28/28
f 25/53/51 146/54/52 14/55/53
f 14/55/53 146/54/52 36/56/54
f 14/57/53 36/58/54 15/59/55
f 15/59/55 36/58/54 46/60/56
f 15/59/55 46/60/56 16/61/57
f 16/61/57 46/60/56 56/62/58
f 16/61/57 56/62/58 17/63/59
f 17/63/59 56/62/58 66/64/60
f 17/63/59 66/64/60 18/65/61
f 18/65/61 66/64/60 76/66/62
f 18/65/61 76/66/62 19/67/63
f 19/67/63 76/66/62 86/68/64
f 19/67/63 86/68/64 20/69/65
f 20/69/65 86/68/64 96/70/66
f 20/69/65 96/70/66 21/71/67
f 21/71/67 96/70/66 106/72/68
f 21/71/67 106/72/68 22/73/69
f 22/73/69 106/72/68 116/74/70
f 22/73/69 116/74/70 23/75/71
f 23/75/71 116/74/70 126/76/72
f 23/75/71 126/76/72 24/77/73
f 24/77/73 126/76/72 136/78/74
f 24/77/73 136/78/74 25/53/51
f 25/53/51 136/78/74 146/54/52
f 27/32/30 28/79/75 137/34/32
f 137/34/32 28/79/75 138/80/76
f 137/34/32 138/80/76 127/36/34
f 127/36/34 138/80/76 128/81/77
f 127/36/34 128/81/77 117/38/36
f 117/38/36 128/81/77 118/82/78
f 117/38/36 118/82/78 107/40/38
f 107/40/38 118/82/78 108/83/79
f 107/40/38 108/83/79 97/42/40
f 97/42/40 108/83/79 98/84/80
f 97/42/40 98/84/80 87/44/42
f 87/44/42 98/84/80 88/85/81
f 87/44/42 88/85/81 77/46/44
f 77/46/44 88/85/81 78/86/82
f 77/46/44 78/86/82 67/48/46
f 67/48/46 78/86/82 68/87/83
f 67/48/46 68/87/83 57/50/48
f 57/50/48 68/87/83 58/88/84
f 57/50/48 58/88/84 47/52/50
f 47/52/50 58/88/84 48/89/85
f 47/52/50 48/89/85 37/28/28
f 37/28/28 48/89/85 38/90/86
f 37/28/28 38/90/86 27/30/30
f 27/30/30 38/90/86 28/91/75
f 28/79/75 29/92/87 138/80/76
f 138/80/76 29/92/87 139/93/88
f 138/80/76 139/93/88 128/81/77
f 128/81/77 139/93/88 129/94/89
f 128/81/77 129/94/89 118/82/78
f 118/82/78 129/94/89 119/95/90
f 118/82/78 119/95/90 108/83/79
f 108/83/79 119/95/90 109/96/91
f 108/83/79 109/96/91 98/84/80
f 98/84/80 109/96/91 99/97/92
f 98/84/80 99/97/92 88/85/81
f 88/85/81 99/97/92 89/98/93
f 88/85/81 89/98/93 78/86/82
f 78/86/82 89/98/93 79/99/94
f 78/86/82 79/99/94 68/87/83
f 68/87/83 79/99/94 69/100/95
f 68/87/83 69/100/95 58/88/84
f 58/88/84 69/100/95 59/101/96
f 58/88/84 59/101/96 48/89/85
f 48/89/85 59/101/96 49/102/97
f 48/89/85 49/102/97 38/90/86
f 38/90/86 49/102/97 39/103/98
f 38/90/86 39/103/98 28/91/75
f 28/91/75 39/103/98 29/104/87
f 29/92/87 30/105/99 139/93/88
f 139/93/88 30/105/99 140/106/100
f 139/93/88 140/106/100 129/94/89
f 129/94/89 140/106/100 130/107/101
f 129/94/89 130/107/101 119/95/90
f 119/95/90 130/107/101 120/108/102
f 119/95/90 120/108/102 109/96/91
f 109/96/91 120/108/102 110/109/103
f 109/96/91 110/109/103 99/97/92
f 99/97/92 110/109/103 100/110/104
f 99/97/92 100/110/104 89/98/93
f 89/98/93 100/110/104 90/111/105
f 89/98/93 90/111/105 79/99/94
f 79/99/94 90/111/105 80/112/106
f 79/99/94 80/112/106 69/100/95
f 69/100/95 80/112/106 70/113/107
f 69/100/95 70/113/107 59/101/96
f 59/101/96 70/113/107 60/114/108
f 59/101/96 60/114/108 49/102/97
f 49/102/97 60/114/108 50/115/109
f 49/102/97 50/115/109 39/103/98
f 39/103/98 50/115/109 40/116/110
f 39/103/98 40/116/110 29/104/87
f 29/104/87 40/116/110 30/117/99
f 30/105/99 31/118/111 140/106/100
f 140/106/100 31/118/111 141/119/112
f 140/106/100 141/119/112 130/107/101
f 130/107/101 141/119/112 131/120/113
f 130/107/101 131/120/113 120/108/102
f 120/108/102 131/120/113 121/121/114
f 120/108/102 121/121/114 110/109/103
f 110/109/103 121/121/114 111/122/115
f 110/109/103 111/122/115 100/110/104
f 100/110/104 111/122/115 101/123/116
f 100/110/104 101/123/116 90/111/105
f 90/111/105 101/123/116 91/124/117
f 90/111/105 91/124/117 80/112/106
f 80/112/106 91/124/117 81/125/118
f 80/112/106 81/125/118 70/113/107
f 70/113/107 81/125/118 71/126/119
f 70/113/107 71/126/119 60/114/108
f 60/114/108 71/126/119 61/127/120
f 60/114/108 61/127/120 50/115/109
f 50/115/109 61/127/120 51/128/121
f 50/115/109 51/128/121 40/116/110
f 40/116/110 51/128/121 41/129/122
f 40/116/110 41/129/122 30/117/99
f 30/117/99 41/129/122 31/130/111
f 31/118/111 32/131/123 141/119/112
f 141/119/112 32/131/123 142/132/124
f 141/119/112 142/132/124 131/120/113
f 131/120/113 142/132/124 132/133/125
f 131/120/113 132/133/125 121/121/114
f 121/121/114 132/133/125 122/134/126
f 121/121/114 122/134/126 111/122/115
f 111/122/115 122/134/126 112/135/127
f 111/122/115 112/135/127 101/123/116
f 101/123/116 112/135/127 102/136/128
f 101/123/116 102/136/128 91/124/117
f 91/124/117 102/136/128 92/137/129
f 91/124/117 92/137/129 81/125/118
f 81/125/118 92/137/129 82/138/130
f 81/125/118 82/138/130 71/126/119
f 71/126/119 82/138/130 72/139/131
f 71/126/119 72/139/131 61/127/120
f 61/127/120 72/139/131 62/140/132
f 61/127/120 62/140/132 51/128/121
f 51/128/121 62/140/132 52/141/133
f 51/128/121 52/141/133 41/129/122
f 41/129/122 52/141/133 42/142/134
f 41/129/122 42/142/134 31/130/111
f 31/130/111 42/142/134 32/143/123
f 32/131/123 33/144/135 142/132/124
f 142/132/124 33/144/135 143/145/136
f 142/132/124 143/145/136 132/133/125
f 132/133/125 143/145/136 133/146/137
f 132/133/125 133/146/137 122/134/126
f 122/134/126 133/146/137 123/147/138
f 122/134/126 123/147/138 112/135/127
f 112/135/127 123/147/138 113/148/139
f 112/135/127 113/148/139 102/136/128
f 102/136/128 113/148/139 103/149/140
f 102/136/128 103/149/140 92/137/129
f 92/137/129 103/149/140 93/150/141
f 92/137/129 93/150/141 82/138/130
f 82/138/130 93/150/141 83/151/142
f 82/138/130 83/151/142 72/139/131
f 72/139/131 83/151/142 73/152/143
f 72/139/131 73/152/143 62/140/132
f 62/140/132 73/152/143 63/153/144
f 62/140/132 63/153/144 52/141/133
f 52/141/133 63/153/144 53/154/145
f 52/141/133 53/154/145 42/142/134
f 42/142/134 53/154/145 43/155/146
f 42/142/134 43/155/146 32/143/123
f 32/143/123 43/155/146 33/156/135
f 33/144/135 34/157/147 143/145/136
f 143/145/136 34/157/147 144/158/148
f 143/145/136 144/158/148 133/146/137
f 133/146/137 144/158/148 134/159/149
f 133/146/137 134/159/149 123/147/138
f 123/147/138 134/159/149 124/160/150
f 123/147/138 124/160/150 113/148/139
f 113/148/139 124/160/150 114/161/151
f 113/148/139 114/161/151 103/149/140
f 103/149/140 114/161/151 104/162/152
f 103/149/140 104/162/152 93/150/141
f 93/150/141 104/162/152 94/163/153
f 93/150/141 94/163/153 83/151/142
f 83/151/142 94/163/153 84/164/154
f 83/151/142 84/164/154 73/152/143
f 73/152/143 84/164/154 74/165/155
f 73/152/143 74/165/155 63/153/144
f 63/153/144 74/165/155 64/166/156
f 63/153/144 64/166/156 53/154/145
f 53/154/145 64/166/156 54/167/157
f 53/154/145 54/167/157 43/155/146
f 43/155/146 54/167/157 44/168/158
f 43/155/146 44/168/158 33/156/135
f 33/156/135 44/168/158 34/169/147
f 34/157/147 35/170/159 144/158/148
f 144/158/148 35/170/159 145/171/160
f 144/158/148 145/171/160 134/159/149
f 134/159/149 145/171/160 135/172/161
f 134/159/149 135/172/161 124/160/150
f 124/160/150 135/172/161 125/173/162
f 124/160/150 125/173/162 114/161/151
f 114/161/151 125/173/162 115/174/163
f 114/161/151 115/174/163 104/162/152
f 104/162/152 115/174/163 105/175/164
f 104/162/152 105/175/164 94/163/153
f 94/163/153 105/175/164 95/176/165
f 94/163/153 95/176/165 84/164/154
f 84/164/154 95/176/165 85/177/166
f 84/164/154 85/177/166 74/165/155
f 74/165/155 85/177/166 75/178/167
f 74/165/155 75/178/167 64/166/156
f 64/166/156 75/178/167 65/179/168
f 64/166/156 65/179/168 54/167/157
f 54/167/157 65/179/168 55/180/169
f 54/167/157 55/180/169 44/168/158
f 44/168/158 55/180/169 45/181/170
f 44/168/158 45/181/170 34/169/147
f 34/169/147 45/181/170 35/182/159
f 35/170/159 36/56/54 145/171/160
f 145/171/160 36/56/54 146/54/52
f 145/171/160 146/54/52 135/172/161
f 135/172/161 146/54/52 136/78/74
f 135/172/161 136/78/74 125/173/162
f 125/173/162 136/78/74 126/76/72
f 125/173/162 126/76/72 115/174/163
f 115/174/163 126/76/72 116/74/70
f 115/174/163 116/74/70 105/175/164
f 105/175/164 116/74/70 106/72/68
f 105/175/164 106/72/68 95/176/165
f 95/176/165 106/72/68 96/70/66
f 95/176/165 96/70/66 85/177/166
f 85/177/166 96/70/66 86/68/64
f 85/177/166 86/68/64 75/178/167
f 75/178/167 86/68/64 76/66/62
f 75/178/167 76/66/62 65/179/168
f 65/179/168 76/66/62 66/64/60
f 65/179/168 66/64/60 55/180/169
f 55/180/169 66/64/60 56/62/58
f 55/180/169 56/62/58 45/181/170
f 45/181/170 56/62/58 46/60/56
f 45/181/170 46/60/56 35/182/159
f 35/182/159 46/60/56 36/58/54
f 148/183/171 162/184/172 147/185/173
f 147/185/173 162/184/172 165/186/174
f 147/185/173 165/186/174 158/187/175
f 158/187/175 165/186/174 182/188/176
f 158/187/175 182/188/176 157/189/177
f 157/189/177 182/188/176 180/190/178
f 157/189/177 180/190/178 156/191/179
f 156/191/179 180/190/178 178/192/180
f 156/191/179 178/192/180 155/193/181
f 155/193/181 178/192/180 176/194/182
f 155/193/181 176/194/182 154/195/183
f 154/195/183 176/194/182 174/196/184
f 154/195/183 174/196/184 153/197/185
f 153/197/185 174/196/184 172/198/186
f 153/197/185 172/198/186 152/199/187
f 152/199/187 172/198/186 170/200/188
f 152/199/187 170/200/188 151/201/189
f 151/201/189 170/200/188 168/202/190
f 151/201/189 168/202/190 150/203/191
f 150/203/191 168/202/190 160/204/192
f 150/205/191 160/206/192 149/207/193
f 149/207/193 160/206/192 166/208/194
f 149/207/193 166/208/194 148/183/171
f 148/183/171 166/208/194 162/184/172
f 161/209/195 159/210/196 167/211/197
f 167/211/197 159/212/196 163/213/198
f 163/213/198 159/214/196 164/215/199
f 164/215/199 159/216/196 183/217/200
f 181/218/201 159/219/196 179/220/202
f 179/220/202 159/221/196 177/222/203
f 177/222/203 159/223/196 175/224/204
f 173/225/205 159/226/196 171/227/206
f 171/227/206 159/228/196 169/229/207
f 169/229/207 159/230/196 161/231/195
f 160/206/192 161/209/195 166/208/194
f 166/208/194 161/209/195 167/211/197
f 166/208/194 167/211/197 162/184/172
f 162/184/172 167/211/197 163/213/198
f 162/184/172 163/213/198 165/186/174
f 165/186/174 163/213/198 164/215/199
f 165/186/174 164/215/199 182/188/176
f 182/188/176 164/215/199 183/217/200
f 182/188/176 183/217/200 180/190/178
f 180/190/178 183/217/200 181/218/201
f 180/190/178 181/218/201 178/192/180
f 178/192/180 181/218/201 179/220/202
f 178/192/180 179/220/202 176/194/182
f 176/194/182 179/220/202 177/222/203
f 176/194/182 177/222/203 174/196/184
f 174/196/184 177/222/203 175/224/204
f 174/196/184 175/224/204 172/198/186
f 172/198/186 175/224/204 173/225/205
f 172/198/186 173/225/205 170/200/188
f 170/200/188 173/225/205 171/227/206
f 170/200/188 171/227/206 168/202/190
f 168/202/190 171/227/206 169/229/207
f 168/202/190 169/229/207 160/204/192
f 160/204/192 169/229/207 161/231/195
f 183/217/200 159/232/196 181/218/201
f 175/224/204 159/233/196 173/225/205
f 158/234/208 197/235/209 147/236/210
f 147/236/210 197/235/209 198/237/211
f 147/236/210 198/237/211 148/238/212
f 148/238/212 198/237/211 199/239/213
f 148/238/212 199/239/213 184/240/214
f 197/235/209 158/234/208 196/241/215
f 196/241/215 158/234/208 157/242/216
f 196/241/215 157/242/216 195/243/217
f 195/243/217 157/242/216 156/244/218
f 195/243/217 156/244/218 194/245/219
f 194/245/219 156/244/218 193/246/220
f 193/246/220 156/244/218 155/247/221
f 193/246/220 155/247/221 192/248/222
f 192/248/222 155/247/221 154/249/223
f 192/248/222 154/249/223 191/250/224
f 191/250/224 154/249/223 153/251/225
f 191/250/224 153/251/225 190/252/226
f 190/252/226 153/251/225 189/253/227
f 189/253/227 153/251/225 152/254/228
f 189/253/227 152/254/228 188/255/229
f 188/255/229 152/254/228 151/256/230
f 188/255/229 151/256/230 187/257/231
f 187/257/231 151/256/230 150/258/232
f 187/257/231 150/258/232 186/259/233
f 186/259/233 150/258/232 185/260/234
f 185/260/234 150/258/232 184/240/214
f 184/240/214 150/258/232 149/261/235
f 184/240/214 149/261/235 148/238/212
f 186/262/236 185/263/237 204/264/238
f 204/264/238 185/263/237 200/265/239
f 204/264/238 200/265/239 203/266/240
f 203/266/240 200/265/239 201/267/241
f 203/266/240 201/267/241 202/268/242
f 209/269/243 184/270/244 213/271/245
f 213/271/245 184/270/244 199/272/246
f 213/271/245 199/272/246 218/273/247
f 218/273/247 199/272/246 198/274/248
f 218/273/247 198/274/248 221/275/249
f 221/275/249 198/274/248 197/276/250
f 221/275/249 197/276/250 224/277/251
f 224/277/251 197/276/250 196/278/252
f 224/277/251 196/278/252 227/279/253
f 227/279/253 196/278/252 195/280/254
f 227/279/253 195/280/254 230/281/255
f 230/281/255 195/280/254 194/282/256
f 230/281/255 194/282/256 233/283/257
f 233/283/257 194/282/256 193/284/258
f 233/283/257 193/284/258 236/285/259
f 236/285/259 193/284/258 192/286/260
f 236/285/259 192/286/260 239/287/261
f 239/287/261 192/286/260 191/288/262
f 239/287/261 191/288/262 247/289/263
f 247/289/263 191/288/262 242/290/264
f 247/289/263 242/290/264 243/291/265
f 243/291/265 242/290/264 249/292/266
f 243/291/265 249/292/266 250/293/267
f 250/293/267 249/292/266 253/294/268
f 250/293/267 253/294/268 210/295/269
f 191/288/262 190/296/270 242/290/264
f 242/290/264 190/296/270 248/297/271
f 242/290/264 248/297/271 249/292/266
f 249/292/266 248/297/271 252/298/272
f 249/292/266 252/298/272 253/294/268
f 253/294/268 252/298/272 256/299/273
f 253/294/268 256/299/273 210/300/269
f 190/296/270 189/301/274 248/297/271
f 248/297/271 189/301/274 251/302/275
f 248/297/271 251/302/275 252/298/272
f 252/298/272 251/302/275 255/303/276
f 252/298/272 255/303/276 256/299/273
f 256/299/273 255/303/276 212/304/277
f 256/299/273 212/304/277 210/305/269
f 189/301/274 188/306/278 251/302/275
f 251/302/275 188/306/278 254/307/279
f 251/302/275 254/307/279 255/303/276
f 255/303/276 254/307/279 206/308/280
f 255/303/276 206/308/280 211/309/281
f 211/310/281 206/311/280 207/312/282
f 211/310/281 207/312/282 217/313/283
f 217/313/283 207/312/282 208/314/284
f 217/313/283 208/314/284 214/315/285
f 214/315/285 208/314/284 213/271/245
f 214/315/285 213/271/245 219/316/286
f 219/316/286 213/271/245 218/273/247
f 219/316/286 218/273/247 222/317/287
f 222/317/287 218/273/247 221/275/249
f 222/317/287 221/275/249 225/318/288
f 225/318/288 221/275/249 224/277/251
f 225/318/288 224/277/251 228/319/289
f 228/319/289 224/277/251 227/279/253
f 228/319/289 227/279/253 231/320/290
f 231/320/290 227/279/253 230/281/255
f 231/320/290 230/281/255 234/321/291
f 234/321/291 230/281/255 233/283/257
f 234/321/291 233/283/257 237/322/292
f 237/322/292 233/283/257 236/285/259
f 237/322/292 236/285/259 240/323/293
f 240/323/293 236/285/259 239/287/261
f 240/323/293 239/287/261 246/324/294
f 246/324/294 239/287/261 247/289/263
f 246/324/294 247/289/263 243/291/265
f 188/306/278 187/325/295 254/307/279
f 254/307/279 187/325/295 205/326/296
f 254/307/279 205/326/296 206/308/280
f 208/314/284 209/269/243 213/271/245
f 250/293/267 210/327/269 244/328/297
f 244/328/297 210/329/269 245/330/298
f 245/330/298 210/331/269 241/332/299
f 238/333/300 210/334/269 235/335/301
f 235/335/301 210/336/269 232/337/302
f 232/337/302 210/338/269 229/339/303
f 229/339/303 210/340/269 226/341/304
f 223/342/305 210/343/269 220/344/306
f 220/344/306 210/345/269 215/346/307
f 215/346/307 210/347/269 216/348/308
f 216/348/308 210/349/269 212/350/277
f 216/348/308 212/350/277 211/310/281
f 211/309/281 212/304/277 255/303/276
f 214/315/285 215/346/307 217/313/283
f 217/313/283 215/346/307 216/348/308
f 217/313/283 216/348/308 211/310/281
f 215/346/307 214/315/285 220/344/306
f 220/344/306 214/315/285 219/316/286
f 220/344/306 219/316/286 223/342/305
f 223/342/305 219/316/286 222/317/287
f 223/342/305 222/317/287 226/341/304
f 226/341/304 222/317/287 225/318/288
f 226/341/304 225/318/288 229/339/303
f 229/339/303 225/318/288 228/319/289
f 229/339/303 228/319/289 232/337/302
f 232/337/302 228/319/289 231/320/290
f 232/337/302 231/320/290 235/335/301
f 235/335/301 231/320/290 234/321/291
f 235/335/301 234/321/291 238/333/300
f 238/333/300 234/321/291 237/322/292
f 238/333/300 237/322/292 241/332/299
f 241/332/299 237/322/292 240/323/293
f 241/332/299 240/323/293 245/330/298
f 245/330/298 240/323/293 246/324/294
f 245/330/298 246/324/294 244/328/297
f 244/328/297 246/324/294 243/291/265
f 244/328/297 243/291/265 250/293/267
f 210/351/269 223/342/305 226/341/304
f 210/352/269 238/333/300 241/332/299
f 275/353/309 257/354/310 280/355/311
f 280/355/311 257/354/310 258/356/312
f 280/355/311 258/356/312 285/357/313
f 285/357/313 258/356/312 259/358/314
f 285/357/313 259/358/314 288/359/315
f 288/359/315 259/358/314 260/360/316
f 288/359/315 260/360/316 291/361/317
f 291/361/317 260/360/316 261/362/318
f 291/361/317 261/362/318 294/363/319
f 294/363/319 261/362/318 262/364/320
f 294/363/319 262/364/320 297/365/321
f 297/365/321 262/364/320 263/366/322
f 297/365/321 263/366/322 277/367/323
f 277/368/323 263/369/322 264/370/324
f 277/368/323 264/370/324 300/371/325
f 300/371/325 264/370/324 265/372/326
f 300/371/325 265/372/326 303/373/327
f 303/373/327 265/372/326 266/374/328
f 303/373/327 266/374/328 311/375/329
f 311/375/329 266/374/328 306/376/330
f 311/375/329 306/376/330 307/377/331
f 307/377/331 306/376/330 313/378/332
f 307/377/331 313/378/332 314/379/333
f 314/379/333 313/378/332 317/380/334
f 314/379/333 317/380/334 276/381/335
f 266/374/328 267/382/336 306/376/330
f 306/376/330 267/382/336 312/383/337
f 306/376/330 312/383/337 313/378/332
f 313/378/332 312/383/337 316/384/338
f 313/378/332 316/384/338 317/380/334
f 317/380/334 316/384/338 320/385/339
f 317/380/334 320/385/339 276/386/335
f 267/382/336 268/387/340 312/383/337
f 312/383/337 268/387/340 315/388/341
f 312/383/337 315/388/341 316/384/338
f 316/384/338 315/388/341 319/389/342
f 316/384/338 319/389/342 320/385/339
f 320/385/339 319/389/342 322/390/343
f 320/385/339 322/390/343 276/391/335
f 268/387/340 269/392/344 315/388/341
f 315/388/341 269/392/344 318/393/345
f 315/388/341 318/393/345 319/389/342
f 319/389/342 318/393/345 272/394/346
f 319/389/342 272/394/346 321/395/347
f 321/395/347 272/394/346 273/396/348
f 321/395/347 273/396/348 284/397/349
f 284/397/349 273/396/348 274/398/350
f 284/397/349 274/398/350 281/399/351
f 281/399/351 274/398/350 280/355/311
f 281/399/351 280/355/311 286/400/352
f 286/400/352 280/355/311 285/357/313
f 286/400/352 285/357/313 289/401/353
f 289/401/353 285/357/313 288/359/315
f 289/401/353 288/359/315 292/402/354
f 292/402/354 288/359/315 291/361/317
f 292/402/354 291/361/317 295/403/355
f 295/403/355 291/361/317 294/363/319
f 295/403/355 294/363/319 298/404/356
f 298/404/356 294/363/319 297/365/321
f 298/404/356 297/365/321 278/405/357
f 278/405/357 297/365/321 277/367/323
f 278/406/357 277/368/323 301/407/358
f 301/407/358 277/368/323 300/371/325
f 301/407/358 300/371/325 304/408/359
f 304/408/359 300/371/325 303/373/327
f 304/408/359 303/373/327 310/409/360
f 310/409/360 303/373/327 311/375/329
f 310/409/360 311/375/329 307/377/331
f 269/392/344 270/410/361 318/393/345
f 318/393/345 270/410/361 271/411/362
f 318/393/345 271/411/362 272/394/346
f 274/398/350 275/353/309 280/355/311
f 279/412/363 276/413/335 299/414/364
f 299/414/364 276/415/335 296/416/365
f 296/416/365 276/417/335 293/418/366
f 293/418/366 276/419/335 290/420/367
f 290/420/367 276/421/335 287/422/368
f 287/422/368 276/423/335 282/424/369
f 283/425/370 276/426/335 322/390/343
f 308/427/371 276/428/335 309/429/372
f 309/429/372 276/430/335 305/431/373
f 305/431/373 276/432/335 302/433/374
f 302/433/374 276/434/335 279/435/363
f 278/405/357 279/412/363 298/404/356
f 298/404/356 279/412/363 299/414/364
f 298/404/356 299/414/364 295/403/355
f 295/403/355 299/414/364 296/416/365
f 295/403/355 296/416/365 292/402/354
f 292/402/354 296/416/365 293/418/366
f 292/402/354 293/418/366 289/401/353
f 289/401/353 293/418/366 290/420/367
f 289/401/353 290/420/367 286/400/352
f 286/400/352 290/420/367 287/422/368
f 286/400/352 287/422/368 281/399/351
f 281/399/351 287/422/368 282/424/369
f 281/399/351 282/424/369 284/397/349
f 284/397/349 282/424/369 283/425/370
f 284/397/349 283/425/370 321/395/347
f 321/395/347 283/425/370 322/390/343
f 321/395/347 322/390/343 319/389/342
f 279/435/363 278/406/357 302/433/374
f 302/433/374 278/406/357 301/407/358
f 302/433/374 301/407/358 305/431/373
f 305/431/373 301/407/358 304/408/359
f 305/431/373 304/408/359 309/429/372
f 309/429/372 304/408/359 310/409/360
f 309/429/372 310/409/360 308/427/371
f 308/427/371 310/409/360 307/377/331
f 308/427/371 307/377/331 314/379/333
f 282/424/369 276/436/335 283/425/370
f 276/437/335 308/427/371 314/379/333
f 184/438/375 209/439/376 185/440/377
f 185/440/377 209/439/376 338/441/378
f 185/440/377 338/441/378 353/442/379
f 353/442/379 338/441/378 339/443/380
f 353/442/379 339/443/380 352/444/381
f 352/444/381 339/443/380 340/445/382
f 352/444/381 340/445/382 351/446/383
f 351/446/383 340/445/382 341/447/384
f 351/446/383 341/447/384 350/448/385
f 350/448/385 341/447/384 342/449/386
f 350/448/385 342/449/386 349/450/387
f 349/450/387 342/449/386 343/451/388
f 349/450/387 343/451/388 348/452/389
f 348/452/389 343/451/388 344/453/390
f 348/452/389 344/453/390 347/454/391
f 347/454/391 344/453/390 345/455/392
f 347/454/391 345/455/392 346/456/393
f 346/456/393 345/455/392 323/457/394
f 346/456/393 323/457/394 324/458/395
f 338/441/378 209/439/376 354/459/396
f 354/459/396 209/439/376 208/460/397
f 354/459/396 208/460/397 330/461/398
f 330/461/398 208/460/397 207/462/399
f 330/463/398 207/464/399 362/465/400
f 362/465/400 207/464/399 206/466/401
f 362/465/400 206/466/401 370/467/402
f 370/467/402 206/466/401 205/468/403
f 370/467/402 205/468/403 186/469/404
f 186/469/404 205/468/403 187/470/405
f 370/467/402 186/469/404 378/471/406
f 378/471/406 186/469/404 204/472/407
f 378/471/406 204/472/407 386/473/408
f 386/473/408 204/472/407 203/474/409
f 386/473/408 203/474/409 394/475/410
f 394/475/410 203/474/409 202/476/411
f 394/475/410 202/476/411 402/477/412
f 402/477/412 202/476/411 201/478/413
f 402/477/412 201/478/413 353/442/379
f 353/442/379 201/478/413 200/479/414
f 353/442/379 200/479/414 185/440/377
f 270/480/415 323/457/394 271/481/416
f 271/481/416 323/457/394 345/455/392
f 271/481/416 345/455/392 272/482/417
f 272/482/417 345/455/392 361/483/418
f 272/482/417 361/483/418 273/484/419
f 273/484/419 361/483/418 337/485/420
f 273/486/419 337/487/420 274/488/421
f 274/488/421 337/487/420 369/489/422
f 274/488/421 369/489/422 275/490/423
f 275/490/423 369/489/422 377/491/424
f 275/490/423 377/491/424 329/492/425
f 329/492/425 377/491/424 385/493/426
f 329/492/425 385/493/426 328/494/427
f 328/494/427 385/493/426 327/495/428
f 327/495/428 385/493/426 393/496/429
f 327/495/428 393/496/429 326/497/430
f 326/497/430 393/496/429 401/498/431
f 326/497/430 401/498/431 325/499/432
f 325/499/432 401/498/431 409/500/433
f 325/499/432 409/500/433 324/458/395
f 324/458/395 409/500/433 346/456/393
f 329/492/425 257/501/434 275/490/423
f 330/461/398 331/502/435 354/459/396
f 354/459/396 331/502/435 355/503/436
f 354/459/396 355/503/436 338/441/378
f 338/441/378 355/503/436 339/443/380
f 331/502/435 332/504/437 355/503/436
f 355/503/436 332/504/437 356/505/438
f 355/503/436 356/505/438 339/443/380
f 339/443/380 356/505/438 340/445/382
f 331/506/435 330/463/398 363/507/439
f 363/507/439 330/463/398 362/465/400
f 363/507/439 362/465/400 371/508/440
f 371/508/440 362/465/400 370/467/402
f 371/508/440 370/467/402 379/509/441
f 379/509/441 370/467/402 378/471/406
f 379/509/441 378/471/406 387/510/442
f 387/510/442 378/471/406 386/473/408
f 387/510/442 386/473/408 395/511/443
f 395/511/443 386/473/408 394/475/410
f 395/511/443 394/475/410 403/512/444
f 403/512/444 394/475/410 402/477/412
f 403/512/444 402/477/412 352/444/381
f 352/444/381 402/477/412 353/442/379
f 332/504/437 333/513/445 356/505/438
f 356/505/438 333/513/445 357/514/446
f 356/505/438 357/514/446 340/445/382
f 340/445/382 357/514/446 341/447/384
f 332/515/437 331/506/435 364/516/447
f 364/516/447 331/506/435 363/507/439
f 364/516/447 363/507/439 372/517/448
f 372/517/448 363/507/439 371/508/440
f 372/517/448 371/508/440 380/518/449
f 380/518/449 371/508/440 379/509/441
f 380/518/449 379/509/441 388/519/450
f 388/519/450 379/509/441 387/510/442
f 388/519/450 387/510/442 396/520/451
f 396/520/451 387/510/442 395/511/443
f 396/520/451 395/511/443 404/521/452
f 404/521/452 395/511/443 403/512/444
f 404/521/452 403/512/444 351/446/383
f 351/446/383 403/512/444 352/444/381
f 333/513/445 334/522/453 357/514/446
f 357/514/446 334/522/453 358/523/454
f 357/514/446 358/523/454 341/447/384
f 341/447/384 358/523/454 342/449/386
f 333/524/445 332/515/437 365/525/455
f 365/525/455 332/515/437 364/516/447
f 365/525/455 364/516/447 373/526/456
f 373/526/456 364/516/447 372/517/448
f 373/526/456 372/517/448 381/527/457
f 381/527/457 372/517/448 380/518/449
f 381/527/457 380/518/449 389/528/458
f 389/528/458 380/518/449 388/519/450
f 389/528/458 388/519/450 397/529/459
f 397/529/459 388/519/450 396/520/451
f 397/529/459 396/520/451 405/530/460
f 405/530/460 396/520/451 404/521/452
f 405/530/460 404/521/452 350/448/385
f 350/448/385 404/521/452 351/446/383
f 334/522/453 335/531/461 358/523/454
f 358/523/454 335/531/461 359/532/462
f 358/523/454 359/532/462 342/449/386
f 342/449/386 359/532/462 343/451/388
f 334/533/453 333/524/445 366/534/463
f 366/534/463 333/524/445 365/525/455
f 366/534/463 365/525/455 374/535/464
f 374/535/464 365/525/455 373/526/456
f 374/535/464 373/526/456 382/536/465
f 382/536/465 373/526/456 381/527/457
f 382/536/465 381/527/457 390/537/466
f 390/537/466 381/527/457 389/528/458
f 390/537/466 389/528/458 398/538/467
f 398/538/467 389/528/458 397/529/459
f 398/538/467 397/529/459 406/539/468
f 406/539/468 397/529/459 405/530/460
f 406/539/468 405/530/460 349/450/387
f 349/450/387 405/530/460 350/448/385
f 335/531/461 336/540/469 359/532/462
f 359/532/462 336/540/469 360/541/470
f 359/532/462 360/541/470 343/451/388
f 343/451/388 360/541/470 344/453/390
f 335/542/461 334/533/453 367/543/471
f 367/543/471 334/533/453 366/534/463
f 367/543/471 366/534/463 375/544/472
f 375/544/472 366/534/463 374/535/464
f 375/544/472 374/535/464 383/545/473
f 383/545/473 374/535/464 382/536/465
f 383/545/473 382/536/465 391/546/474
f 391/546/474 382/536/465 390/537/466
f 391/546/474 390/537/466 399/547/475
f 399/547/475 390/537/466 398/538/467
f 399/547/475 398/538/467 407/548/476
f 407/548/476 398/538/467 406/539/468
f 407/548/476 406/539/468 348/452/389
f 348/452/389 406/539/468 349/450/387
f 336/540/469 337/485/420 360/541/470
f 360/541/470 337/485/420 361/483/418
f 360/541/470 361/483/418 344/453/390
f 344/453/390 361/483/418 345/455/392
f 336/549/469 335/542/461 368/550/477
f 368/550/477 335/542/461 367/543/471
f 368/550/477 367/543/471 376/551/478
f 376/551/478 367/543/471 375/544/472
f 376/551/478 375/544/472 384/552/479
f 384/552/479 375/544/472 383/545/473
f 384/552/479 383/545/473 392/553/480
f 392/553/480 383/545/473 391/546/474
f 392/553/480 391/546/474 400/554/481
f 400/554/481 391/546/474 399/547/475
f 400/554/481 399/547/475 408/555/482
f 408/555/482 399/547/475 407/548/476
f 408/555/482 407/548/476 347/454/391
f 347/454/391 407/548/476 348/452/389
f 337/487/420 336/549/469 369/489/422
f 369/489/422 336/549/469 368/550/477
f 369/489/422 368/550/477 377/491/424
f 377/491/424 368/550/477 376/551/478
f 377/491/424 376/551/478 385/493/426
f 385/493/426 376/551/478 384/552/479
f 385/493/426 384/552/479 393/496/429
f 393/496/429 384/552/479 392/553/480
f 393/496/429 392/553/480 401/498/431
f 401/498/431 392/553/480 400/554/481
f 401/498/431 400/554/481 409/500/433
f 409/500/433 400/554/481 408/555/482
f 409/500/433 408/555/482 346/456/393
f 346/456/393 408/555/482 347/454/391
f 411/556/483 268/557/484 410/558/485
f 410/558/485 268/557/484 267/559/486
f 410/558/485 267/559/486 266/560/487
f 268/557/484 411/556/483 269/561/488
f 269/561/488 411/556/483 412/562/489
f 269/561/488 412/562/489 270/563/490
f 270/563/490 412/562/489 413/564/491
f 270/563/490 413/564/491 323/565/492
f 323/565/492 413/564/491 329/566/493
f 329/566/493 413/564/491 257/567/494
f 257/567/494 413/564/491 414/568/495
f 257/567/494 414/568/495 415/569/496
f 416/570/497 259/571/498 415/569/496
f 415/569/496 259/571/498 258/572/499
f 415/569/496 258/572/499 257/567/494
f 259/571/498 416/570/497 260/573/500
f 260/573/500 416/570/497 417/574/501
f 260/573/500 417/574/501 261/575/502
f 261/575/502 417/574/501 418/576/503
f 261/575/502 418/576/503 262/577/504
f 262/577/504 418/576/503 419/578/505
f 262/577/504 419/578/505 263/579/506
f 263/579/506 419/578/505 264/580/507
f 264/580/507 419/578/505 420/581/508
f 264/580/507 420/581/508 265/582/509
f 265/582/509 420/581/508 421/583/510
f 265/582/509 421/583/510 266/560/487
f 266/560/487 421/583/510 410/558/485
f 323/584/511 329/585/512 324/586/513
f 324/586/513 329/585/512 328/587/514
f 324/586/513 328/587/514 325/588/515
f 325/588/515 328/587/514 327/589/516
f 325/588/515 327/589/516 326/590/517
f 421/591/518 425/592/519 410/593/520
f 410/593/520 425/592/519 428/594/521
f 410/593/520 428/594/521 411/595/522
f 411/595/522 428/594/521 445/596/523
f 411/595/522 445/596/523 412/597/524
f 412/597/524 445/596/523 443/598/525
f 412/597/524 443/598/525 413/599/526
f 413/599/526 443/598/525 441/600/527
f 413/599/526 441/600/527 414/601/528
f 414/601/528 441/600/527 439/602/529
f 414/601/528 439/602/529 415/603/530
f 415/603/530 439/602/529 437/604/531
f 415/603/530 437/604/531 416/605/532
f 416/605/532 437/604/531 435/606/533
f 416/605/532 435/606/533 417/607/534
f 417/607/534 435/606/533 433/608/535
f 417/607/534 433/608/535 418/609/536
f 418/609/536 433/608/535 431/610/537
f 418/609/536 431/610/537 419/611/538
f 419/611/538 431/610/537 423/612/539
f 419/613/538 423/614/539 420/615/540
f 420/615/540 423/614/539 429/616/541
f 420/615/540 429/616/541 421/591/518
f 421/591/518 429/616/541 425/592/519
f 424/617/542 422/618/543 430/619/544
f 430/619/544 422/620/543 426/621/545
f 426/621/545 422/622/543 427/623/546
f 427/623/546 422/624/543 446/625/547
f 444/626/548 422/627/543 442/628/549
f 442/628/549 422/629/543 440/630/550
f 440/630/550 422/631/543 438/632/551
f 436/633/552 422/634/543 434/635/553
f 434/635/553 422/636/543 432/637/554
f 432/637/554 422/638/543 424/639/542
f 423/614/539 424/617/542 429/616/541
f 429/616/541 424/617/542 430/619/544
f 429/616/541 430/619/544 425/592/519
f 425/592/519 430/619/544 426/621/545
f 425/592/519 426/621/545 428/594/521
f 428/594/521 426/621/545 427/623/546
f 428/594/521 427/623/546 445/596/523
f 445/596/523 427/623/546 446/625/547
f 445/596/523 446/625/547 443/598/525
f 443/598/525 446/625/547 444/626/548
f 443/598/525 444/626/548 441/600/527
f 441/600/527 444/626/548 442/628/549
f 441/600/527 442/628/549 439/602/529
f 439/602/529 442/628/549 440/630/550
f 439/602/529 440/630/550 437/604/531
f 437/604/531 440/630/550 438/632/551
f 437/604/531 438/632/551 435/606/533
f 435/606/533 438/632/551 436/633/552
f 435/606/533 436/633/552 433/608/535
f 433/608/535 436/633/552 434/635/553
f 433/608/535 434/635/553 431/610/537
f 431/610/537 434/635/553 432/637/554
f 431/610/537 432/637/554 423/612/539
f 423/612/539 432/637/554 424/639/542
f 446/625/547 422/640/543 444/626/548
f 438/632/551 422/641/543 436/633/552
# 446 vertices
# 641 texture params
# 554 normals
# 884 facets

# 1 groups
